<?xml version="1.0" standalone="no"?>
<!DOCTYPE svg PUBLIC "-//W3C//DTD SVG 1.1//EN" "http://www.w3.org/Graphics/SVG/1.1/DTD/svg11.dtd" >
<svg xmlns="http://www.w3.org/2000/svg">
<metadata>Generated by IcoMoon</metadata>
<defs>
<font id="ilpt" horiz-adv-x="1024">
<font-face units-per-em="1024" ascent="960" descent="-64" />
<missing-glyph horiz-adv-x="1024" />
<glyph unicode="&#x20;" horiz-adv-x="512" d="" />
<glyph unicode="&#xe900;" glyph-name="d-cube" d="M490.923-64c-3.584 0-7.125 0.896-10.368 2.688l-384.256 213.333c-6.741 3.755-10.965 10.88-10.965 18.645v426.667c0 7.765 4.224 14.891 10.965 18.688l384.256 213.333c6.485 3.584 14.251 3.627 20.736-0.043l383.744-213.333c6.741-3.755 10.965-10.88 10.965-18.645v-426.667c0-7.765-4.224-14.891-10.965-18.645l-383.744-213.333c-3.243-1.792-6.784-2.688-10.368-2.688zM128 183.211l362.923-201.472 362.411 201.472v401.579l-362.411 201.472-362.923-201.472v-401.579zM490.923-64c-11.776 0-21.333 9.557-21.333 21.333v414.123l-373.291 207.189c-6.997 3.925-10.965 11.221-10.965 18.731 0 3.499 0.896 7.040 2.688 10.325 5.803 10.325 18.773 13.867 29.056 8.277l373.888-207.573 373.376 207.531c10.197 5.717 23.253 2.048 29.013-8.235s2.048-23.296-8.235-29.013l-372.779-207.232v-414.123c-0.085-11.776-9.643-21.333-21.419-21.333zM490.667 832c-0.043 0-0.043 0-0.085 0-11.776 0.043-21.291 9.643-21.248 21.419l0.171 33.493-6.059-6.016c-8.32-8.32-21.845-8.32-30.165 0-4.181 4.181-6.229 9.643-6.229 15.104s2.091 10.923 6.229 15.104l42.709 42.709c3.84 3.84 8.747 5.888 13.739 6.187v0c0.043-0.128 0.853 0 1.323 0 0.896 0 1.792-0.043 2.688-0.171 4.011-0.512 7.893-2.133 11.136-4.907 0.512-0.427 0.939-0.853 1.408-1.28l42.539-42.539c8.32-8.32 8.32-21.845 0-30.165s-21.845-8.32-30.165 0l-6.443 6.443-0.213-34.133c-0.043-11.733-9.6-21.248-21.333-21.248zM960 21.333c-0.043 0-0.085 0-0.171 0h-60.16c-11.776 0-21.333 9.557-21.333 21.333s9.557 21.333 21.333 21.333h8.832l-27.563 27.563c-8.32 8.32-8.32 21.845 0 30.165s21.845 8.32 30.165 0l27.563-27.563v12.501c0 11.776 9.557 21.333 21.333 21.333s21.333-9.557 21.333-21.333v-64.043c0-0.043 0-0.043 0-0.043v-0.043c0 0 0 0 0-0.043v0c0-0.043 0-0.043 0-0.085v0c-0.085-5.205-2.005-9.984-5.163-13.653l-0.043-0.043c-0.939-1.067-2.005-2.091-3.157-2.987-3.2-2.475-7.168-4.053-11.477-4.352-0.512-0.043-0.981-0.043-1.493-0.043zM21.333 21.333c-0.512 0-0.981 0-1.493 0.043-4.309 0.299-8.235 1.877-11.477 4.352-1.152 0.896-2.219 1.92-3.157 2.987v0l-0.043 0.043c-3.157 3.669-5.077 8.448-5.163 13.653v0c0 0.043 0 0.043 0 0.085v0c0 0.043 0 0.043 0 0.043v0.043c0 0 0 0 0 0.043v60.373c0 11.776 9.557 21.333 21.333 21.333s21.333-9.557 21.333-21.333v-8.832l27.563 27.563c8.32 8.32 21.845 8.32 30.165 0s8.32-21.845 0-30.165l-27.563-27.563h8.832c11.776 0 21.333-9.557 21.333-21.333s-9.557-21.333-21.333-21.333h-60.16c-0.085 0-0.128 0-0.171 0z" />
<glyph unicode="&#xe901;" glyph-name="active-protection" d="M490.624-64c-3.541 0-7.125 0.896-10.325 2.688-16.128 8.917-395.008 221.611-395.008 488.021v462.635c0 8.405 4.949 16.043 12.629 19.456 7.723 3.413 16.683 2.048 22.955-3.584 43.008-38.528 98.56-59.733 156.416-59.733 78.848 0 151.979 39.253 195.669 105.003 3.925 5.931 10.624 9.515 17.749 9.515v0c7.168 0 13.824-3.584 17.792-9.557 43.563-65.749 116.693-105.003 195.541-105.003 57.216 0 112.213 20.736 155.093 58.496 9.472 10.069 30.123 6.997 35.499-6.997 1.152-3.072 1.579-6.315 1.323-9.515v-460.8c0-266.368-378.88-479.104-395.008-488.021-3.2-1.707-6.784-2.603-10.325-2.603zM127.957 846.379v-419.712c0-218.539 302.421-408.917 362.667-444.672 60.203 35.755 362.667 226.347 362.667 444.672v419.669c-44.288-28.288-95.957-43.563-149.248-43.563-83.157 0-160.939 36.949-213.419 100.181-52.395-63.189-130.176-100.181-213.333-100.181-53.333 0-105.003 15.275-149.333 43.605zM447.915 362.667v0c-5.675 0-11.093 2.261-15.104 6.229l-85.163 85.333c-8.32 8.32-8.32 21.888 0 30.165 8.32 8.32 21.845 8.32 30.165 0l70.144-70.229 155.691 155.563c8.32 8.32 21.845 8.32 30.165 0s8.32-21.845 0-30.165l-170.837-170.667c-3.968-3.968-9.387-6.229-15.061-6.229z" />
<glyph unicode="&#xe902;" glyph-name="add" d="M490.667-64c-270.549 0-490.667 220.117-490.667 490.667s220.117 490.667 490.667 490.667 490.667-220.117 490.667-490.667-220.117-490.667-490.667-490.667zM490.667 874.667c-247.040 0-448-200.96-448-448s200.96-448 448-448 448 200.96 448 448-200.96 448-448 448zM746.667 405.333h-512c-11.776 0-21.333 9.557-21.333 21.333s9.557 21.333 21.333 21.333h512c11.776 0 21.333-9.557 21.333-21.333s-9.557-21.333-21.333-21.333zM490.667 149.333c-11.776 0-21.333 9.557-21.333 21.333v512c0 11.776 9.557 21.333 21.333 21.333s21.333-9.557 21.333-21.333v-512c0-11.776-9.557-21.333-21.333-21.333z" />
<glyph unicode="&#xe903;" glyph-name="adjustments" d="M192 533.333h-85.333c-58.795 0-106.667 47.872-106.667 106.667v85.333c0 58.795 47.872 106.667 106.667 106.667h85.333c58.795 0 106.667-47.872 106.667-106.667v-85.333c0-58.795-47.872-106.667-106.667-106.667zM106.667 789.333c-35.285 0-64-28.715-64-64v-85.333c0-35.285 28.715-64 64-64h85.333c35.285 0 64 28.715 64 64v85.333c0 35.285-28.715 64-64 64h-85.333zM874.667 21.333h-85.333c-58.795 0-106.667 47.872-106.667 106.667v85.333c0 58.795 47.872 106.667 106.667 106.667h85.333c58.795 0 106.667-47.872 106.667-106.667v-85.333c0-58.795-47.872-106.667-106.667-106.667zM789.333 277.333c-35.285 0-64-28.715-64-64v-85.333c0-35.285 28.715-64 64-64h85.333c35.285 0 64 28.715 64 64v85.333c0 35.285-28.715 64-64 64h-85.333zM533.333 277.333h-85.333c-58.795 0-106.667 47.872-106.667 106.667v85.333c0 58.795 47.872 106.667 106.667 106.667h85.333c58.795 0 106.667-47.872 106.667-106.667v-85.333c0-58.795-47.872-106.667-106.667-106.667zM448 533.333c-35.285 0-64-28.715-64-64v-85.333c0-35.285 28.715-64 64-64h85.333c35.285 0 64 28.715 64 64v85.333c0 35.285-28.715 64-64 64h-85.333zM149.333 789.333c-11.776 0-21.333 9.557-21.333 21.333v85.333c0 11.776 9.557 21.333 21.333 21.333s21.333-9.557 21.333-21.333v-85.333c0-11.776-9.557-21.333-21.333-21.333zM149.333-64c-11.776 0-21.333 9.557-21.333 21.333v597.333c0 11.776 9.557 21.333 21.333 21.333s21.333-9.557 21.333-21.333v-597.333c0-11.776-9.557-21.333-21.333-21.333zM490.667-64c-11.776 0-21.333 9.557-21.333 21.333v341.333c0 11.776 9.557 21.333 21.333 21.333s21.333-9.557 21.333-21.333v-341.333c0-11.776-9.557-21.333-21.333-21.333zM490.667 533.333c-11.776 0-21.333 9.557-21.333 21.333v341.333c0 11.776 9.557 21.333 21.333 21.333s21.333-9.557 21.333-21.333v-341.333c0-11.776-9.557-21.333-21.333-21.333zM832 277.333c-11.776 0-21.333 9.557-21.333 21.333v597.333c0 11.776 9.557 21.333 21.333 21.333s21.333-9.557 21.333-21.333v-597.333c0-11.776-9.557-21.333-21.333-21.333zM832-64c-11.776 0-21.333 9.557-21.333 21.333v85.333c0 11.776 9.557 21.333 21.333 21.333s21.333-9.557 21.333-21.333v-85.333c0-11.776-9.557-21.333-21.333-21.333z" />
<glyph unicode="&#xe904;" glyph-name="angle-down" d="M512 192c-5.461 0-10.923 2.091-15.104 6.229l-469.333 469.333c-8.32 8.32-8.32 21.845 0 30.165s21.845 8.32 30.165 0l454.272-454.229 454.229 454.272c8.32 8.32 21.845 8.32 30.165 0s8.32-21.845 0-30.165l-469.333-469.333c-4.139-4.181-9.6-6.272-15.061-6.272z" />
<glyph unicode="&#xe905;" glyph-name="angle-left" d="M746.667-42.667c-5.461 0-10.923 2.091-15.104 6.229l-469.333 469.333c-8.32 8.32-8.32 21.845 0 30.165l469.333 469.333c8.32 8.32 21.845 8.32 30.165 0s8.32-21.845 0-30.165l-454.229-454.229 454.229-454.229c8.32-8.32 8.32-21.845 0-30.165-4.139-4.181-9.6-6.272-15.061-6.272z" />
<glyph unicode="&#xe906;" glyph-name="angle-right" d="M277.333-42.667c-5.461 0-10.923 2.091-15.104 6.229-8.32 8.32-8.32 21.845 0 30.165l454.272 454.272-454.272 454.229c-8.32 8.32-8.32 21.845 0 30.165s21.845 8.32 30.165 0l469.333-469.333c8.32-8.32 8.32-21.845 0-30.165l-469.333-469.333c-4.139-4.139-9.6-6.229-15.061-6.229z" />
<glyph unicode="&#xe907;" glyph-name="angle-up" d="M981.333 192c-5.461 0-10.923 2.091-15.104 6.229l-454.229 454.272-454.229-454.272c-8.32-8.32-21.845-8.32-30.165 0s-8.32 21.845 0 30.165l469.333 469.333c8.32 8.32 21.845 8.32 30.165 0l469.333-469.333c8.32-8.32 8.32-21.845 0-30.165-4.181-4.139-9.643-6.229-15.104-6.229z" />
<glyph unicode="&#xe908;" glyph-name="archive" d="M874.667-63.616h-725.333c-82.347 0-149.333 66.987-149.333 149.333v490.667c0 31.829 9.856 62.208 28.587 87.893l137.685 208.981c35.669 54.101 95.616 86.357 160.384 86.357h394.197c50.005 0 96.469-24.875 124.245-66.517l153.813-230.741c16.427-24.661 25.088-53.291 25.088-82.816v-493.824c0-82.347-66.987-149.333-149.333-149.333zM326.613 916.949c-50.389 0-96.981-25.131-124.757-67.2l-137.899-209.408c-0.213-0.299-0.427-0.597-0.64-0.896-13.525-18.389-20.651-40.192-20.651-63.061v-490.667c0-58.837 47.829-106.667 106.667-106.667h725.333c58.837 0 106.667 47.829 106.667 106.667v493.824c0 21.077-6.229 41.557-17.92 59.179l-153.813 230.741c-19.84 29.739-53.035 47.488-88.747 47.488h-394.24zM46.123 652.075v0zM661.333 149.717h-298.667c-82.347 0-149.333 66.987-149.333 149.333v213.333c0 34.859-28.373 63.232-63.232 63.232h-107.435c-11.776 0-21.333 9.557-21.333 21.333s9.557 21.333 21.333 21.333h107.435c58.411 0 105.899-47.488 105.899-105.899v-213.333c0-58.837 47.829-106.667 106.667-106.667h298.667c58.837 0 106.667 47.829 106.667 106.667v212.565c0 58.837 47.829 106.667 106.667 106.667h106.667c11.776 0 21.333-9.557 21.333-21.333s-9.557-21.333-21.333-21.333h-106.667c-35.285 0-64-28.715-64-64v-212.565c0-82.347-66.987-149.333-149.333-149.333zM725.333 576.384h-426.667c-11.776 0-21.333 9.557-21.333 21.333s9.557 21.333 21.333 21.333h426.667c11.776 0 21.333-9.557 21.333-21.333s-9.557-21.333-21.333-21.333zM704 491.051h-384c-11.776 0-21.333 9.557-21.333 21.333s9.557 21.333 21.333 21.333h384c11.776 0 21.333-9.557 21.333-21.333s-9.557-21.333-21.333-21.333zM704 405.717h-384c-11.776 0-21.333 9.557-21.333 21.333s9.557 21.333 21.333 21.333h384c11.776 0 21.333-9.557 21.333-21.333s-9.557-21.333-21.333-21.333zM704 320.384h-384c-11.776 0-21.333 9.557-21.333 21.333s9.557 21.333 21.333 21.333h384c11.776 0 21.333-9.557 21.333-21.333s-9.557-21.333-21.333-21.333zM682.667 235.051h-341.333c-11.776 0-21.333 9.557-21.333 21.333s9.557 21.333 21.333 21.333h341.333c11.776 0 21.333-9.557 21.333-21.333s-9.557-21.333-21.333-21.333z" />
<glyph unicode="&#xe909;" glyph-name="arrow-down" d="M512-64c-5.461 0-10.923 2.091-15.104 6.229l-384 384c-8.32 8.32-8.32 21.845 0 30.165s21.845 8.32 30.165 0l368.939-368.896 368.896 368.896c8.32 8.32 21.845 8.32 30.165 0s8.32-21.845 0-30.165l-384-384c-4.139-4.139-9.6-6.229-15.061-6.229zM512-64c-11.776 0-21.333 9.557-21.333 21.333v981.333c0 11.776 9.557 21.333 21.333 21.333s21.333-9.557 21.333-21.333v-981.333c0-11.776-9.557-21.333-21.333-21.333z" />
<glyph unicode="&#xe90a;" glyph-name="arrow-left" d="M405.333 42.667c-5.461 0-10.923 2.091-15.104 6.229l-384 384c-8.32 8.32-8.32 21.845 0 30.165l384 384c8.32 8.32 21.845 8.32 30.165 0s8.32-21.845 0-30.165l-368.896-368.896 368.896-368.896c8.32-8.32 8.32-21.845 0-30.165-4.139-4.181-9.6-6.272-15.061-6.272zM1002.667 426.667h-981.333c-11.776 0-21.333 9.557-21.333 21.333s9.557 21.333 21.333 21.333h981.333c11.776 0 21.333-9.557 21.333-21.333s-9.557-21.333-21.333-21.333z" />
<glyph unicode="&#xe90b;" glyph-name="arrow-right" d="M618.667 42.667c-5.461 0-10.923 2.091-15.104 6.229-8.32 8.32-8.32 21.845 0 30.165l368.939 368.939-368.896 368.896c-8.32 8.32-8.32 21.845 0 30.165s21.845 8.32 30.165 0l384-384c8.32-8.32 8.32-21.845 0-30.165l-384-384c-4.181-4.139-9.643-6.229-15.104-6.229zM1002.667 426.667h-981.333c-11.776 0-21.333 9.557-21.333 21.333s9.557 21.333 21.333 21.333h981.333c11.776 0 21.333-9.557 21.333-21.333s-9.557-21.333-21.333-21.333z" />
<glyph unicode="&#xe90c;" glyph-name="arrow-up" d="M896 533.333c-5.461 0-10.923 2.091-15.104 6.229l-368.896 368.939-368.896-368.939c-8.32-8.32-21.845-8.32-30.165 0s-8.32 21.845 0 30.165l384 384c8.32 8.32 21.845 8.32 30.165 0l384-384c8.32-8.32 8.32-21.845 0-30.165-4.181-4.139-9.643-6.229-15.104-6.229zM512-64c-11.776 0-21.333 9.557-21.333 21.333v981.333c0 11.776 9.557 21.333 21.333 21.333s21.333-9.557 21.333-21.333v-981.333c0-11.776-9.557-21.333-21.333-21.333z" />
<glyph unicode="&#xe90d;" glyph-name="attention" d="M453.12 677.931c-15.019-16.597-22.315-38.827-20.096-61.056l36.309-363.008c1.109-10.923 10.283-19.2 21.248-19.2h42.667c10.965 0 20.139 8.277 21.205 19.2l36.309 363.008c2.219 22.229-5.077 44.459-20.096 61.056-29.995 33.152-87.552 33.152-117.547 0zM513.963 277.333h-4.053l-34.304 343.808c-1.067 10.411 2.219 20.395 9.259 28.16 14.037 15.488 40.192 15.488 54.229 0 6.997-7.723 10.283-17.749 9.259-28.16l-34.389-343.808zM963.627 155.264l-320.597 726.912c-26.581 48.725-75.605 77.824-131.115 77.824s-104.533-29.099-131.883-79.445l-319.445-724.523c-25.045-46.549-23.893-101.419 3.115-146.944 27.179-45.739 75.179-73.088 128.427-73.088h639.616c53.205 0 101.248 27.349 128.384 73.088 27.179 45.781 28.203 101.035 3.499 146.176zM923.435 30.848c-19.413-32.725-53.717-52.224-91.733-52.224h-639.616c-38.016 0-72.32 19.499-91.733 52.224s-20.139 72.192-1.92 105.557c0.299 0.512 0.555 1.024 0.811 1.579l319.019 723.755c18.987 34.816 54.016 55.595 93.653 55.595s74.667-20.779 92.843-54.016l320.597-726.912c18.219-33.408 17.493-72.832-1.92-105.557zM511.915 192c-35.285 0-64-28.715-64-64s28.715-64 64-64c35.285 0 64 28.715 64 64s-28.715 64-64 64zM511.915 106.667c-11.776 0-21.333 9.6-21.333 21.333s9.557 21.333 21.333 21.333 21.333-9.6 21.333-21.333-9.557-21.333-21.333-21.333z" />
<glyph unicode="&#xe90e;" glyph-name="audio" d="M320 42.453c-11.776 0-21.333 9.557-21.333 21.333v649.344c0 26.965 17.067 51.2 42.496 60.288l512 182.869c19.541 7.040 41.387 4.011 58.411-7.979 16.939-11.989 27.093-31.573 27.093-52.309v-682.88c0-11.776-9.557-21.333-21.333-21.333s-21.333 9.557-21.333 21.333v682.88c0 7.040-3.285 13.355-9.045 17.451s-12.885 4.992-19.499 2.688l-512-182.869c-8.448-3.072-14.123-11.136-14.123-20.139v-649.344c0-11.819-9.557-21.333-21.333-21.333zM320 533.333c-8.789 0-16.981 5.419-20.096 14.165-3.968 11.051 1.835 23.253 12.928 27.221l597.333 213.333c10.965 4.011 23.296-1.835 27.264-12.928s-1.792-23.296-12.928-27.264l-597.333-213.333c-2.347-0.811-4.779-1.195-7.168-1.195zM166.955-64.128c-60.757 0-110.293 28.032-121.856 73.685-5.504 21.845-1.536 44.928 11.563 66.688 20.395 33.92 61.269 61.227 109.312 73.003 82.347 20.224 158.293-9.387 173.013-67.328 5.504-21.845 1.536-44.928-11.563-66.688-20.395-33.92-61.269-61.227-109.312-73.003-17.536-4.309-34.773-6.357-51.157-6.357zM216.747 112.853c-13.013 0-26.752-1.621-40.619-5.035-36.693-9.003-68.437-29.525-82.901-53.547-4.949-8.235-10.155-20.907-6.741-34.261 8.533-33.792 64.171-50.517 121.472-36.352 36.693 9.003 68.437 29.525 82.901 53.547 4.949 8.235 10.155 20.907 6.741 34.261-6.528 25.6-40.064 41.387-80.853 41.387zM764.288 63.872c-60.757 0-110.293 28.032-121.856 73.685-5.504 21.845-1.536 44.928 11.563 66.688 20.395 33.92 61.269 61.227 109.312 73.003 82.261 20.267 158.336-9.387 173.013-67.328 5.504-21.845 1.536-44.928-11.563-66.688-20.395-33.92-61.269-61.227-109.312-73.003-17.536-4.309-34.773-6.357-51.157-6.357zM814.080 240.853c-13.013 0-26.752-1.621-40.619-5.035-36.693-9.003-68.437-29.525-82.901-53.547-4.949-8.235-10.155-20.907-6.741-34.261 8.533-33.792 64.171-50.517 121.472-36.352 36.693 9.003 68.437 29.525 82.901 53.547 4.949 8.235 10.155 20.907 6.741 34.261-6.528 25.6-40.064 41.387-80.853 41.387z" />
<glyph unicode="&#xe90f;" glyph-name="bell" d="M917.333 64h-810.667c-7.68 0-14.805 4.139-18.603 10.837-3.755 6.656-3.669 14.891 0.299 21.461l73.301 122.112c33.792 56.363 51.669 120.875 51.669 186.624v106.965c0 164.651 134.016 298.667 298.667 298.667s298.667-134.016 298.667-298.667v-106.965c0-65.749 17.877-130.261 51.669-186.624l73.301-122.112c3.968-6.571 4.053-14.805 0.299-21.461-3.797-6.699-10.923-10.837-18.603-10.837zM144.341 106.667h735.317l-53.931 89.813c-37.76 62.976-57.728 135.083-57.728 208.555v106.965c0 141.184-114.816 256-256 256s-256-114.816-256-256v-106.965c0-73.472-19.968-145.579-57.771-208.555l-53.888-89.813zM576 768c-11.776 0-21.333 9.557-21.333 21.333v85.333c0 23.552-19.115 42.667-42.667 42.667s-42.667-19.115-42.667-42.667v-85.333c0-11.776-9.557-21.333-21.333-21.333s-21.333 9.557-21.333 21.333v85.333c0 47.061 38.272 85.333 85.333 85.333s85.333-38.272 85.333-85.333v-85.333c0-11.776-9.557-21.333-21.333-21.333zM512-64c-58.837 0-106.667 47.829-106.667 106.667 0 18.859 4.992 37.333 14.421 53.461 5.973 10.155 18.944 13.483 29.227 7.637 10.155-5.973 13.568-19.029 7.637-29.227-5.547-9.429-8.576-20.736-8.576-31.872 0-35.285 28.715-64 64-64s64 28.715 64 64c0 11.136-3.029 22.443-8.576 31.872-5.973 10.155-2.56 23.253 7.637 29.227 10.197 5.845 23.211 2.517 29.227-7.637 9.429-16.128 14.421-34.603 14.421-53.461-0.085-58.837-47.915-106.667-106.752-106.667z" />
<glyph unicode="&#xe910;" glyph-name="blockchart" d="M659.328 861.269c-0.384 0.981-0.64 1.92-1.152 2.816-0.213 0.341-0.213 0.725-0.427 1.067-1.408 2.091-3.243 3.712-5.163 5.12-0.299 0.213-0.427 0.597-0.725 0.811l-128 85.333c-7.168 4.779-16.512 4.779-23.68 0l-128-85.333c-0.171-0.128-0.213-0.341-0.384-0.427-2.091-1.493-4.053-3.243-5.547-5.504-0.213-0.341-0.256-0.725-0.469-1.109-0.512-0.853-0.725-1.792-1.109-2.773-0.853-2.091-1.451-4.181-1.621-6.4-0.043-0.512-0.384-0.981-0.384-1.536v-810.667c0-7.125 3.584-13.781 9.515-17.749l128-85.333c0.384-0.256 0.853-0.171 1.237-0.384 3.157-1.835 6.656-3.2 10.581-3.2s7.424 1.365 10.581 3.2c0.384 0.213 0.853 0.128 1.237 0.384l128 85.333c5.931 3.968 9.515 10.624 9.515 17.749v810.667c0 0.555-0.341 1.024-0.384 1.536-0.171 2.219-0.768 4.309-1.621 6.4zM490.667-2.859l-85.333 56.917v759.424l85.333-56.875v-759.467zM512 793.643l-89.515 59.691 89.515 59.691 89.515-59.691-89.515-59.691zM618.667 54.059l-85.333-56.917v759.467l85.333 56.875v-759.424zM317.995 477.269c-0.384 0.981-0.64 1.92-1.152 2.816-0.213 0.341-0.213 0.725-0.427 1.067-1.451 2.176-3.328 3.84-5.291 5.291-0.256 0.171-0.341 0.469-0.597 0.64l-128 85.333c-7.168 4.779-16.512 4.779-23.68 0l-128-85.333c-0.171-0.128-0.213-0.341-0.384-0.427-2.091-1.451-4.011-3.243-5.547-5.504-0.213-0.341-0.256-0.725-0.427-1.109-0.512-0.896-0.725-1.835-1.152-2.773-0.853-2.091-1.451-4.181-1.621-6.357-0.043-0.555-0.384-1.024-0.384-1.579v-426.667c0-7.125 3.584-13.781 9.515-17.749l128-85.333c0.384-0.256 0.853-0.171 1.237-0.384 3.157-1.835 6.656-3.2 10.581-3.2s7.424 1.365 10.581 3.2c0.384 0.213 0.853 0.128 1.237 0.384l128 85.333c5.931 3.968 9.515 10.624 9.515 17.749v426.667c0 0.555-0.341 1.024-0.384 1.536-0.171 2.219-0.768 4.309-1.621 6.4zM149.333-2.816l-85.333 56.875v375.424l85.333-56.875v-375.424zM170.667 409.643l-89.515 59.691 89.515 59.691 89.557-59.691-89.557-59.691zM277.333 54.101l-85.333-56.917v375.381l85.333 56.875v-375.339zM1002.283 641.536c-0.171 2.219-0.768 4.267-1.621 6.4-0.384 0.981-0.64 1.92-1.152 2.816-0.213 0.341-0.213 0.725-0.427 1.067-1.451 2.133-3.285 3.797-5.248 5.248-0.256 0.171-0.341 0.512-0.64 0.683l-128 85.333c-7.168 4.779-16.512 4.779-23.68 0l-128-85.333c-0.171-0.128-0.213-0.341-0.384-0.427-2.091-1.451-4.011-3.243-5.547-5.504-0.213-0.341-0.256-0.725-0.427-1.109-0.512-0.896-0.725-1.835-1.152-2.773-0.853-2.091-1.451-4.181-1.621-6.357-0.043-0.555-0.384-1.024-0.384-1.579v-597.333c0-7.125 3.584-13.781 9.515-17.749l128-85.333c0.384-0.256 0.853-0.171 1.237-0.384 3.157-1.835 6.656-3.2 10.581-3.2s7.424 1.365 10.581 3.2c0.384 0.213 0.853 0.128 1.237 0.384l128 85.333c5.931 3.968 9.515 10.624 9.515 17.749v597.333c0 0.555-0.341 1.024-0.384 1.536zM832-2.859l-85.333 56.917v546.091l85.333-56.875v-546.133zM853.333 580.309l-89.515 59.691 89.515 59.691 89.515-59.691-89.515-59.691zM960 54.059l-85.333-56.917v546.133l85.333 56.875v-546.091z" />
<glyph unicode="&#xe911;" glyph-name="book" d="M874.667 746.667h-640c-58.795 0-106.667 47.829-106.667 106.667s47.872 106.667 106.667 106.667h640c8.32 0 15.915-4.821 19.371-12.416s2.261-16.512-3.2-22.784v0c0 0-16.171-21.333-16.171-71.467 0-50.261 16.299-71.595 16.469-71.808 5.035-6.4 6.144-15.317 2.56-22.656-3.541-7.381-10.88-12.203-19.029-12.203zM234.667 917.333c-35.285 0-64-28.715-64-64s28.715-64 64-64h606.251c-4.907 15.573-8.917 36.651-8.917 64s4.011 48.427 8.917 64h-606.251zM832 832h-597.333c-11.776 0-21.333 9.557-21.333 21.333s9.557 21.333 21.333 21.333h597.333c11.776 0 21.333-9.557 21.333-21.333s-9.557-21.333-21.333-21.333zM874.667-64h-640c-58.795 0-106.667 47.829-106.667 106.667v810.667c0 11.776 9.557 21.333 21.333 21.333s21.333-9.557 21.333-21.333v-810.667c0-35.285 28.715-64 64-64h618.667v789.333c0 11.776 9.557 21.333 21.333 21.333s21.333-9.557 21.333-21.333v-810.667c0-11.776-9.557-21.333-21.333-21.333z" />
<glyph unicode="&#xe912;" glyph-name="callendar" d="M874.667-64h-725.333c-82.347 0-149.333 66.987-149.333 149.333v640c0 82.347 66.987 149.333 149.333 149.333h42.667c11.776 0 21.333-9.557 21.333-21.333s-9.557-21.333-21.333-21.333h-42.667c-58.837 0-106.667-47.829-106.667-106.667v-640c0-58.837 47.829-106.667 106.667-106.667h725.333c58.837 0 106.667 47.829 106.667 106.667v640c0 58.837-47.829 106.667-106.667 106.667h-42.667c-11.776 0-21.333 9.557-21.333 21.333s9.557 21.333 21.333 21.333h42.667c82.347 0 149.333-66.987 149.333-149.333v-640c0-82.347-66.987-149.333-149.333-149.333zM661.333 832h-298.667c-11.776 0-21.333 9.557-21.333 21.333s9.557 21.333 21.333 21.333h298.667c11.776 0 21.333-9.557 21.333-21.333s-9.557-21.333-21.333-21.333zM1002.667 618.667h-981.333c-11.776 0-21.333 9.557-21.333 21.333s9.557 21.333 21.333 21.333h981.333c11.776 0 21.333-9.557 21.333-21.333s-9.557-21.333-21.333-21.333zM277.333 746.667c-11.776 0-21.333 9.557-21.333 21.333v170.667c0 11.776 9.557 21.333 21.333 21.333s21.333-9.557 21.333-21.333v-170.667c0-11.776-9.557-21.333-21.333-21.333zM746.667 746.667c-11.776 0-21.333 9.557-21.333 21.333v170.667c0 11.776 9.557 21.333 21.333 21.333s21.333-9.557 21.333-21.333v-170.667c0-11.776-9.557-21.333-21.333-21.333zM362.667 106.667c-58.837 0-106.667 47.829-106.667 106.667 0 11.776 9.557 21.333 21.333 21.333s21.333-9.557 21.333-21.333c0-35.285 28.715-64 64-64s64 28.715 64 64-28.715 64-64 64h-42.667c-11.776 0-21.333 9.557-21.333 21.333s9.557 21.333 21.333 21.333h42.667c35.285 0 64 28.715 64 64s-28.715 64-64 64-64-28.715-64-64c0-11.776-9.557-21.333-21.333-21.333s-21.333 9.557-21.333 21.333c0 58.837 47.829 106.667 106.667 106.667s106.667-47.829 106.667-106.667c0-34.816-16.811-65.877-42.752-85.333 25.941-19.456 42.752-50.517 42.752-85.333 0-58.837-47.829-106.667-106.667-106.667zM661.333 106.667c-11.776 0-21.333 9.557-21.333 21.333v289.835l-48.896-48.896c-8.32-8.32-21.845-8.32-30.165 0s-8.32 21.845 0 30.165l85.333 85.333c6.144 6.144 15.317 7.893 23.253 4.608s13.141-11.093 13.141-19.712v-341.333c0-11.776-9.557-21.333-21.333-21.333zM746.667 106.667h-170.667c-11.776 0-21.333 9.557-21.333 21.333s9.557 21.333 21.333 21.333h170.667c11.776 0 21.333-9.557 21.333-21.333s-9.557-21.333-21.333-21.333z" />
<glyph unicode="&#xe913;" glyph-name="check-1" d="M490.667-64c-270.549 0-490.667 220.117-490.667 490.667s220.117 490.667 490.667 490.667 490.667-220.117 490.667-490.667-220.117-490.667-490.667-490.667zM490.667 874.667c-247.040 0-448-200.96-448-448s200.96-448 448-448 448 200.96 448 448-200.96 448-448 448zM426.667 213.333c-5.461 0-10.923 2.091-15.104 6.229l-213.333 213.333c-8.32 8.32-8.32 21.845 0 30.165s21.845 8.32 30.165 0l198.272-198.229 326.229 326.229c8.32 8.32 21.845 8.32 30.165 0s8.32-21.845 0-30.165l-341.333-341.333c-4.139-4.139-9.6-6.229-15.061-6.229z" />
<glyph unicode="&#xe914;" glyph-name="check-2" d="M362.667 106.667c-5.461 0-10.923 2.091-15.104 6.229l-341.333 341.333c-8.32 8.32-8.32 21.845 0 30.165s21.845 8.32 30.165 0l326.272-326.229 624.896 624.939c8.32 8.32 21.845 8.32 30.165 0s8.32-21.845 0-30.165l-640-640c-4.139-4.181-9.6-6.272-15.061-6.272z" />
<glyph unicode="&#xe915;" glyph-name="close" d="M853.333 85.333c-5.461 0-10.923 2.091-15.104 6.229l-725.333 725.333c-8.32 8.32-8.32 21.845 0 30.165s21.845 8.32 30.165 0l725.333-725.333c8.32-8.32 8.32-21.845 0-30.165-4.139-4.139-9.6-6.229-15.061-6.229zM128 85.333c-5.461 0-10.923 2.091-15.104 6.229-8.32 8.32-8.32 21.845 0 30.165l725.333 725.333c8.32 8.32 21.845 8.32 30.165 0s8.32-21.845 0-30.165l-725.333-725.333c-4.139-4.139-9.6-6.229-15.061-6.229z" />
<glyph unicode="&#xe916;" glyph-name="cloud-download" d="M789.333 192c-11.776 0-21.333 9.557-21.333 21.333s9.557 21.333 21.333 21.333c105.856 0 192 86.144 192 192s-86.144 192-192 192c-11.051-0.384-22.955 7.339-24.448 18.005-19.328 135.68-137.216 237.995-274.219 237.995-152.917 0-277.333-124.416-277.333-277.333 0-12.032 1.024-24.747 3.243-39.979 0.896-6.187-0.981-12.459-5.12-17.152s-10.496-6.571-16.384-7.211c-0.939 0-3.584 0.256-4.523 0.427-80.896-0.085-147.883-67.072-147.883-149.419s66.987-149.333 149.333-149.333c11.776 0 21.333-9.557 21.333-21.333s-9.557-21.333-21.333-21.333c-105.856 0-192 86.144-192 192 0 98.987 75.307 180.693 171.605 190.933-0.64 7.808-0.939 15.189-0.939 22.4 0 176.469 143.531 320 320 320 152.064 0 283.776-109.269 313.429-256.981 124.245-8.917 219.904-110.336 219.904-233.685 0-129.408-105.301-234.667-234.667-234.667zM490.667-21.333c-129.365 0-234.667 105.259-234.667 234.667s105.301 234.667 234.667 234.667 234.667-105.259 234.667-234.667-105.301-234.667-234.667-234.667zM490.667 405.333c-105.856 0-192-86.144-192-192s86.144-192 192-192 192 86.144 192 192-86.144 192-192 192zM490.667 64c-11.776 0-21.333 9.557-21.333 21.333v256c0 11.776 9.557 21.333 21.333 21.333s21.333-9.557 21.333-21.333v-256c0-11.776-9.557-21.333-21.333-21.333zM490.667 64c-5.461 0-10.923 2.091-15.104 6.229l-85.333 85.333c-8.32 8.32-8.32 21.845 0 30.165s21.845 8.32 30.165 0l70.229-70.229 70.229 70.229c8.32 8.32 21.845 8.32 30.165 0s8.32-21.845 0-30.165l-85.333-85.333c-4.096-4.139-9.557-6.229-15.019-6.229z" />
<glyph unicode="&#xe917;" glyph-name="cloud-off" d="M99.115 134.443c-4.011 0-8.021 1.109-11.605 3.456-54.784 35.627-87.509 95.787-87.509 160.768 0 98.987 75.307 180.693 171.605 190.933-0.64 7.765-0.939 15.147-0.939 22.4 0 176.469 143.531 320 320 320 75.477 0 148.736-26.965 206.336-75.861 9.003-7.637 10.069-21.077 2.475-30.037-7.595-9.045-21.077-10.155-30.080-2.475-49.877 42.368-113.408 65.707-178.731 65.707-152.917 0-277.333-124.416-277.333-277.333 0-11.989 1.024-24.704 3.243-39.979 0.896-6.144-0.939-12.331-4.992-16.981-4.693-5.461-13.611-8.021-20.992-6.997-80.939-0.043-147.925-67.029-147.925-149.376 0-50.56 25.472-97.237 68.096-125.013 9.856-6.4 12.672-19.627 6.229-29.483-4.096-6.315-10.923-9.728-17.877-9.728zM789.333 106.667h-597.333c-8.619 0-16.427 5.205-19.712 13.184s-1.451 17.152 4.608 23.253l547.925 547.883c4.48 4.523 10.795 6.869 17.237 6.144 6.357-0.64 12.117-4.139 15.659-9.515 22.656-34.517 38.229-72.107 46.251-112.085 122.624-7.552 220.032-109.739 220.032-234.197 0-129.365-105.301-234.667-234.667-234.667zM243.499 149.333h545.835c105.856 0 192 86.144 192 192 0 105.6-85.675 191.531-191.147 192-1.323-0.171-3.371-0.341-4.181-0.341-10.624 0-19.627 7.808-21.12 18.347-4.48 31.744-14.336 61.909-29.312 90.069l-492.075-492.075zM21.333-64c-5.461 0-10.923 2.091-15.104 6.229-8.32 8.32-8.32 21.845 0 30.165l981.333 981.333c8.32 8.32 21.845 8.32 30.165 0s8.32-21.845 0-30.165l-981.333-981.333c-4.139-4.139-9.6-6.229-15.061-6.229z" />
<glyph unicode="&#xe918;" glyph-name="cloud" d="M789.333 106.667h-597.333c-105.856 0-192 86.144-192 192 0 98.987 75.307 180.693 171.605 190.933-0.64 7.808-0.939 15.189-0.939 22.4 0 176.469 143.531 320 320 320 152.064 0 283.776-109.269 313.429-256.939 124.075-8.789 219.904-110.251 219.904-233.728 0-129.365-105.259-234.667-234.667-234.667zM190.635 448.043c-80.981-0.043-147.968-67.029-147.968-149.376s66.987-149.333 149.333-149.333h597.333c105.856 0 192 86.144 192 192s-86.144 192-192 192c-10.624 0-22.955 7.467-24.448 18.005-19.328 135.68-137.216 237.995-274.219 237.995-152.917 0-277.333-124.416-277.333-277.333 0-11.947 1.024-24.661 3.243-39.979 0.896-6.144-0.939-12.331-4.992-16.981-4.736-5.504-13.824-7.893-20.949-6.997z" />
<glyph unicode="&#xe919;" glyph-name="collaboration" d="M832 21.333c-82.347 0-149.333 66.987-149.333 149.333s66.987 149.333 149.333 149.333 149.333-66.987 149.333-149.333-66.987-149.333-149.333-149.333zM832 277.333c-58.795 0-106.667-47.829-106.667-106.667s47.872-106.667 106.667-106.667 106.667 47.829 106.667 106.667-47.872 106.667-106.667 106.667zM490.667 618.667c-82.347 0-149.333 66.987-149.333 149.333s66.987 149.333 149.333 149.333 149.333-66.987 149.333-149.333-66.987-149.333-149.333-149.333zM490.667 874.667c-58.795 0-106.667-47.829-106.667-106.667s47.872-106.667 106.667-106.667 106.667 47.829 106.667 106.667-47.872 106.667-106.667 106.667zM149.333 21.333c-82.347 0-149.333 66.987-149.333 149.333s66.987 149.333 149.333 149.333 149.333-66.987 149.333-149.333-66.987-149.333-149.333-149.333zM149.333 277.333c-58.795 0-106.667-47.829-106.667-106.667s47.872-106.667 106.667-106.667 106.667 47.829 106.667 106.667-47.872 106.667-106.667 106.667zM490.667-21.333c-93.824 0-185.301 32.811-257.621 92.373-9.088 7.509-10.411 20.907-2.901 30.037 7.467 9.045 20.907 10.453 30.037 2.859 64.683-53.291 146.56-82.603 230.485-82.603 84.011 0 165.931 29.355 230.613 82.731 9.131 7.552 22.528 6.229 30.037-2.859s6.229-22.528-2.859-30.037c-72.363-59.648-163.883-92.501-257.792-92.501zM864.171 273.109c-1.664 0-3.328 0.171-4.992 0.597-11.477 2.731-18.56 14.251-15.787 25.728 6.613 27.435 9.941 55.893 9.941 84.565 0 153.429-97.109 290.816-241.621 341.973-11.093 3.968-16.896 16.128-12.971 27.264 3.925 11.093 16.043 16.896 27.221 13.013 161.536-57.216 270.037-210.773 270.037-382.251 0-32-3.712-63.787-11.093-94.507-2.347-9.771-11.093-16.384-20.736-16.384zM117.12 273.237c-9.643 0-18.389 6.571-20.736 16.384-7.339 30.805-11.051 62.549-11.051 94.379 0 172.416 109.355 326.315 272.128 382.976 11.051 3.797 23.296-2.005 27.136-13.184 3.883-11.136-1.963-23.296-13.099-27.179-145.664-50.603-243.499-188.331-243.499-342.613 0-28.501 3.328-56.96 9.856-84.437 2.731-11.52-4.352-22.997-15.829-25.728-1.621-0.427-3.285-0.597-4.907-0.597z" />
<glyph unicode="&#xe91a;" glyph-name="compass-nav" d="M512-64c-247.040 0-448 200.96-448 448s200.96 448 448 448 448-200.96 448-448-200.96-448-448-448zM512 789.333c-223.488 0-405.333-181.845-405.333-405.333s181.845-405.333 405.333-405.333 405.333 181.845 405.333 405.333-181.845 405.333-405.333 405.333zM554.667 320c-5.632 0-11.051 2.219-15.104 6.229l-85.333 85.333c-4.523 4.523-6.784 10.837-6.144 17.195s4.096 12.117 9.387 15.659l256 170.667c8.405 5.675 19.669 4.565 26.923-2.688 7.168-7.168 8.32-18.475 2.688-26.923l-170.667-256c-3.541-5.333-9.301-8.789-15.659-9.387-0.683-0.043-1.408-0.085-2.091-0.085zM502.827 423.339l48.555-48.555 97.067 145.621-145.621-97.067zM298.667 149.333c-5.504 0-10.965 2.133-15.104 6.229-7.168 7.168-8.32 18.475-2.688 26.923l170.667 256c6.528 9.771 19.712 12.459 29.568 5.931 9.813-6.528 12.459-19.755 5.931-29.568l-111.488-167.253 167.253 111.488c9.813 6.571 23.083 3.883 29.568-5.931 6.528-9.813 3.883-23.040-5.931-29.568l-256-170.667c-3.541-2.432-7.68-3.584-11.776-3.584zM597.333 789.333c-11.776 0-21.333 9.557-21.333 21.333v42.667c0 35.285-28.715 64-64 64s-64-28.715-64-64v-42.667c0-11.776-9.557-21.333-21.333-21.333s-21.333 9.557-21.333 21.333v42.667c0 58.795 47.872 106.667 106.667 106.667s106.667-47.872 106.667-106.667v-42.667c0-11.776-9.557-21.333-21.333-21.333zM512 704c-11.776 0-21.333 9.557-21.333 21.333v85.333c0 11.776 9.557 21.333 21.333 21.333s21.333-9.557 21.333-21.333v-85.333c0-11.776-9.557-21.333-21.333-21.333zM512-64c-11.776 0-21.333 9.557-21.333 21.333v85.333c0 11.776 9.557 21.333 21.333 21.333s21.333-9.557 21.333-21.333v-85.333c0-11.776-9.557-21.333-21.333-21.333zM170.667 362.667h-85.333c-11.776 0-21.333 9.557-21.333 21.333s9.557 21.333 21.333 21.333h85.333c11.776 0 21.333-9.557 21.333-21.333s-9.557-21.333-21.333-21.333zM938.667 362.667h-85.333c-11.776 0-21.333 9.557-21.333 21.333s9.557 21.333 21.333 21.333h85.333c11.776 0 21.333-9.557 21.333-21.333s-9.557-21.333-21.333-21.333z" />
<glyph unicode="&#xe91b;" glyph-name="credit-card" d="M917.333 106.667h-810.667c-58.795 0-106.667 47.872-106.667 106.667v469.333c0 58.795 47.872 106.667 106.667 106.667h810.667c58.795 0 106.667-47.872 106.667-106.667v-469.333c0-58.795-47.872-106.667-106.667-106.667zM106.667 746.667c-35.285 0-64-28.715-64-64v-469.333c0-35.285 28.715-64 64-64h810.667c35.285 0 64 28.715 64 64v469.333c0 35.285-28.715 64-64 64h-810.667zM1002.667 490.667h-981.333c-11.776 0-21.333 9.557-21.333 21.333v128c0 11.776 9.557 21.333 21.333 21.333h981.333c11.776 0 21.333-9.557 21.333-21.333v-128c0-11.776-9.557-21.333-21.333-21.333zM42.667 533.333h938.667v85.333h-938.667v-85.333zM405.333 320h-256c-11.776 0-21.333 9.557-21.333 21.333s9.557 21.333 21.333 21.333h256c11.776 0 21.333-9.557 21.333-21.333s-9.557-21.333-21.333-21.333zM405.333 234.667h-256c-11.776 0-21.333 9.557-21.333 21.333s9.557 21.333 21.333 21.333h256c11.776 0 21.333-9.557 21.333-21.333s-9.557-21.333-21.333-21.333zM832 234.667h-42.667c-35.285 0-64 28.715-64 64v42.667c0 35.285 28.715 64 64 64h42.667c35.285 0 64-28.715 64-64v-42.667c0-35.285-28.715-64-64-64zM789.333 362.667c-11.776 0-21.333-9.557-21.333-21.333v-42.667c0-11.776 9.557-21.333 21.333-21.333h42.667c11.776 0 21.333 9.557 21.333 21.333v42.667c0 11.776-9.557 21.333-21.333 21.333h-42.667z" />
<glyph unicode="&#xe91c;" glyph-name="crop" d="M1002.667 149.333h-768c-11.776 0-21.333 9.557-21.333 21.333v768c0 11.776 9.557 21.333 21.333 21.333s21.333-9.557 21.333-21.333v-746.667h746.667c11.776 0 21.333-9.557 21.333-21.333s-9.557-21.333-21.333-21.333zM789.333-64c-11.776 0-21.333 9.557-21.333 21.333v746.667h-746.667c-11.776 0-21.333 9.557-21.333 21.333s9.557 21.333 21.333 21.333h768c11.776 0 21.333-9.557 21.333-21.333v-768c0-11.776-9.557-21.333-21.333-21.333zM234.667 149.333c-5.461 0-10.923 2.091-15.104 6.229-8.32 8.32-8.32 21.845 0 30.165l768 768c8.32 8.32 21.845 8.32 30.165 0s8.32-21.845 0-30.165l-768-768c-4.139-4.139-9.6-6.229-15.061-6.229z" />
<glyph unicode="&#xe91d;" glyph-name="design" d="M298.667 426.667c-5.461 0-10.923 2.091-15.104 6.229l-277.333 277.333c-8.32 8.32-8.32 21.845 0 30.165l213.333 213.333c8.32 8.32 21.845 8.32 30.165 0l277.333-277.333c8.32-8.32 8.32-21.845 0-30.165s-21.845-8.32-30.165 0l-262.229 262.272-183.168-183.168 262.229-262.229c8.32-8.32 8.32-21.845 0-30.165-4.139-4.181-9.6-6.272-15.061-6.272zM789.333-64c-5.461 0-10.923 2.091-15.104 6.229l-277.333 277.333c-8.32 8.32-8.32 21.845 0 30.165s21.845 8.32 30.165 0l262.229-262.229 183.168 183.168-262.229 262.229c-8.32 8.32-8.32 21.845 0 30.165s21.845 8.32 30.165 0l277.333-277.333c8.32-8.32 8.32-21.845 0-30.165l-213.333-213.333c-4.139-4.139-9.6-6.229-15.061-6.229zM234.667 789.333c-5.461 0-10.923 2.091-15.104 6.229-8.32 8.32-8.32 21.845 0 30.165l64 64c8.32 8.32 21.845 8.32 30.165 0s8.32-21.845 0-30.165l-64-64c-4.139-4.139-9.6-6.229-15.061-6.229zM320 746.667c-5.461 0-10.923 2.091-15.104 6.229-8.32 8.32-8.32 21.845 0 30.165l42.667 42.667c8.32 8.32 21.845 8.32 30.165 0s8.32-21.845 0-30.165l-42.667-42.667c-4.139-4.139-9.6-6.229-15.061-6.229zM362.667 661.333c-5.461 0-10.923 2.091-15.104 6.229-8.32 8.32-8.32 21.845 0 30.165l64 64c8.32 8.32 21.845 8.32 30.165 0s8.32-21.845 0-30.165l-64-64c-4.139-4.139-9.6-6.229-15.061-6.229zM746.667 277.333c-5.461 0-10.923 2.091-15.104 6.229-8.32 8.32-8.32 21.845 0 30.165l64 64c8.32 8.32 21.845 8.32 30.165 0s8.32-21.845 0-30.165l-64-64c-4.139-4.139-9.6-6.229-15.061-6.229zM832 234.667c-5.461 0-10.923 2.091-15.104 6.229-8.32 8.32-8.32 21.845 0 30.165l42.667 42.667c8.32 8.32 21.845 8.32 30.165 0s8.32-21.845 0-30.165l-42.667-42.667c-4.139-4.139-9.6-6.229-15.061-6.229zM874.667 149.333c-5.461 0-10.923 2.091-15.104 6.229-8.32 8.32-8.32 21.845 0 30.165l64 64c8.32 8.32 21.845 8.32 30.165 0s8.32-21.845 0-30.165l-64-64c-4.139-4.139-9.6-6.229-15.061-6.229zM21.333-64c-5.589 0-11.008 2.176-15.104 6.229-5.461 5.461-7.552 13.483-5.419 20.949l85.333 298.667c0.981 3.499 2.859 6.656 5.419 9.216l657.707 657.707c41.6 41.6 109.269 41.6 150.827 0l92.672-92.672c41.6-41.6 41.6-109.269 0-150.827l-657.664-657.707c-2.56-2.56-5.717-4.437-9.216-5.419l-298.667-85.333c-1.963-0.555-3.925-0.811-5.888-0.811zM125.653 244.821l-73.259-256.427 256.427 73.259 653.781 653.781c24.96 24.96 24.96 65.536 0 90.496l-92.672 92.672c-24.96 24.96-65.536 24.96-90.496 0l-653.781-653.781zM320 42.667v0zM320 21.333c-5.461 0-10.923 2.091-15.104 6.229-8.32 8.32-8.32 21.845 0 30.165l657.707 657.707c24.96 24.96 24.96 65.536 0 90.496l-92.672 92.672c-24.96 24.96-65.536 24.96-90.496 0l-657.664-657.707c-8.32-8.32-21.845-8.32-30.165 0s-8.32 21.845 0 30.165l657.664 657.707c41.6 41.6 109.269 41.6 150.827 0l92.672-92.672c41.6-41.6 41.6-109.269 0-150.827l-657.664-657.707c-4.181-4.139-9.643-6.229-15.104-6.229zM320 21.333c-5.461 0-10.923 2.091-15.104 6.229l-213.333 213.333c-8.32 8.32-8.32 21.845 0 30.165s21.845 8.32 30.165 0l213.333-213.333c8.32-8.32 8.32-21.845 0-30.165-4.139-4.139-9.6-6.229-15.061-6.229zM277.333 192c-5.461 0-10.923 2.091-15.104 6.229-8.32 8.32-8.32 21.845 0 30.165l597.333 597.333c8.32 8.32 21.845 8.32 30.165 0s8.32-21.845 0-30.165l-597.333-597.333c-4.139-4.139-9.6-6.229-15.061-6.229z" />
<glyph unicode="&#xe91e;" glyph-name="diamond" d="M512-21.333c-7.040 0-13.568 3.456-17.579 9.259l-469.333 682.667c-6.272 9.088-4.565 21.419 3.925 28.459l256 213.333c3.84 3.2 8.661 4.949 13.653 4.949h426.667c4.992 0 9.813-1.749 13.653-4.949l256-213.333c8.448-7.040 10.155-19.371 3.925-28.459l-469.333-682.667c-4.011-5.803-10.539-9.259-17.579-9.259zM71.253 678.699l440.747-641.024 440.747 641.024-235.136 195.968h-411.221l-235.136-195.968zM981.333 661.333h-938.667c-11.776 0-21.333 9.557-21.333 21.333s9.557 21.333 21.333 21.333h938.667c11.776 0 21.333-9.557 21.333-21.333s-9.557-21.333-21.333-21.333zM512-21.333c-9.344 0-17.877 6.187-20.523 15.531l-192 682.667c-1.621 5.675-0.811 11.776 2.219 16.768l128 213.333c6.101 10.112 19.285 13.397 29.269 7.339 10.112-6.059 13.397-19.157 7.339-29.269l-123.264-205.44 189.483-673.792c3.157-11.392-3.413-23.125-14.763-26.325-1.92-0.555-3.84-0.811-5.76-0.811zM512-21.333c-1.92 0-3.84 0.256-5.803 0.811-11.349 3.2-17.92 14.976-14.763 26.325l189.525 673.792-123.264 205.44c-6.101 10.069-2.773 23.211 7.339 29.269 10.027 6.101 23.168 2.773 29.269-7.339l128-213.333c3.029-4.992 3.84-11.093 2.261-16.768l-192-682.667c-2.688-9.344-11.221-15.531-20.565-15.531z" />
<glyph unicode="&#xe91f;" glyph-name="dot-chart" d="M320 234.667c58.795 0 106.667 47.872 106.667 106.667 0 21.717-6.613 41.856-17.792 58.709l108.373 108.373c16.896-11.136 37.035-17.749 58.752-17.749 58.795 0 106.667 47.872 106.667 106.667 0 9.899-1.792 19.285-4.352 28.416l113.621 75.733c19.584-24.277 49.195-40.149 82.731-40.149 58.795 0 106.667 47.872 106.667 106.667s-47.872 106.667-106.667 106.667-106.667-47.872-106.667-106.667c0-9.899 1.792-19.285 4.309-28.373l-113.621-75.733c-19.584 24.235-49.195 40.107-82.688 40.107-58.795 0-106.667-47.872-106.667-106.667 0-21.717 6.613-41.856 17.792-58.709l-108.373-108.373c-16.896 11.136-37.035 17.749-58.752 17.749-58.795 0-106.667-47.872-106.667-106.667s47.872-106.667 106.667-106.667zM874.667 832c35.285 0 64-28.715 64-64s-28.715-64-64-64-64 28.715-64 64 28.715 64 64 64zM576 661.333c35.285 0 64-28.715 64-64s-28.715-64-64-64-64 28.715-64 64 28.715 64 64 64zM320 405.333c35.285 0 64-28.715 64-64s-28.715-64-64-64-64 28.715-64 64 28.715 64 64 64zM1002.667 64h-874.667v874.667c0 11.776-9.557 21.333-21.333 21.333s-21.333-9.557-21.333-21.333v-874.667h-64c-11.776 0-21.333-9.557-21.333-21.333s9.557-21.333 21.333-21.333h64v-64c0-11.776 9.557-21.333 21.333-21.333s21.333 9.557 21.333 21.333v64h874.667c11.776 0 21.333 9.557 21.333 21.333s-9.557 21.333-21.333 21.333zM853.333 597.333v-469.333c0-11.776 9.557-21.333 21.333-21.333s21.333 9.557 21.333 21.333v469.333c0 11.776-9.557 21.333-21.333 21.333s-21.333-9.557-21.333-21.333zM298.667 170.667v-42.667c0-11.776 9.557-21.333 21.333-21.333s21.333 9.557 21.333 21.333v42.667c0 11.776-9.557 21.333-21.333 21.333s-21.333-9.557-21.333-21.333zM554.667 426.667v-298.667c0-11.776 9.557-21.333 21.333-21.333s21.333 9.557 21.333 21.333v298.667c0 11.776-9.557 21.333-21.333 21.333s-21.333-9.557-21.333-21.333z" />
<glyph unicode="&#xe920;" glyph-name="drive" d="M938.667 64h-853.333c-47.061 0-85.333 38.272-85.333 85.333v170.667c0 47.061 38.272 85.333 85.333 85.333h853.333c47.061 0 85.333-38.272 85.333-85.333v-170.667c0-47.061-38.272-85.333-85.333-85.333zM85.333 362.667c-23.509 0-42.667-19.115-42.667-42.667v-170.667c0-23.552 19.157-42.667 42.667-42.667h853.333c23.509 0 42.667 19.115 42.667 42.667v170.667c0 23.552-19.157 42.667-42.667 42.667h-853.333zM996.907 325.12c-7.851 0-15.36 4.352-19.115 11.776l-212.523 425.301c-0.597 0.853-1.067 1.749-1.536 2.645-7.168 15.104-21.888 24.491-38.4 24.491h-426.667c-16.512 0-31.232-9.387-38.4-24.491-0.469-0.981-0.981-1.92-1.579-2.816l-212.437-425.131c-5.248-10.539-18.048-14.891-28.629-9.557-10.539 5.248-14.805 18.091-9.557 28.629l213.547 427.349c0.427 0.853 0.896 1.621 1.408 2.432 14.592 28.16 43.947 46.251 75.648 46.251h426.667c31.744 0 61.184-18.133 75.733-46.421 0.512-0.768 0.939-1.493 1.323-2.261l213.547-427.349c5.291-10.539 0.981-23.381-9.557-28.629-3.029-1.493-6.272-2.219-9.472-2.219zM128 234.667c-23.509 0-42.667 19.115-42.667 42.667s19.157 42.667 42.667 42.667 42.667-19.115 42.667-42.667-19.157-42.667-42.667-42.667zM128 277.376c0 0 0-0.043 0 0v0zM256 234.667c-23.509 0-42.667 19.115-42.667 42.667s19.157 42.667 42.667 42.667 42.667-19.115 42.667-42.667-19.157-42.667-42.667-42.667zM256 277.376c0 0 0-0.043 0 0v0zM917.333 149.333h-810.667c-11.776 0-21.333 9.557-21.333 21.333s9.557 21.333 21.333 21.333h810.667c11.776 0 21.333-9.557 21.333-21.333s-9.557-21.333-21.333-21.333z" />
<glyph unicode="&#xe921;" glyph-name="earth" d="M512-64c-282.325 0-512 229.675-512 512s229.675 512 512 512 512-229.675 512-512-229.675-512-512-512zM512 917.333c-258.773 0-469.333-210.56-469.333-469.333s210.56-469.333 469.333-469.333 469.333 210.56 469.333 469.333-210.56 469.333-469.333 469.333zM151.509 93.824c-0.853 0-1.664 0.043-2.517 0.171-11.691 1.365-20.053 11.947-18.688 23.68 4.053 34.517 11.691 133.12-1.323 174.592-4.565 14.635-15.701 25.771-28.587 38.613-12.075 12.075-25.771 25.771-34.389 44.032-19.456 41.515-41.984 196.139-44.459 213.632-1.664 11.605 6.443 22.443 18.091 24.107 11.52 1.621 22.485-6.4 24.149-18.133 9.472-66.176 28.16-174.421 40.875-201.472 5.376-11.563 15.36-21.504 25.899-32.043 14.72-14.72 31.403-31.403 39.125-55.979 18.432-58.667 3.627-186.965 2.987-192.427-1.237-10.752-10.496-18.773-21.163-18.773zM551.040 63.829c-40.32 0-89.387 37.675-102.571 102.571-3.285 16.043 4.779 32.512 12.544 48.384 2.987 6.187 8.064 16.512 8.32 20.053 0 65.877-13.184 118.656-32.811 131.157-8.277 5.205-36.864 1.28-55.851-1.365-25.131-3.413-48.811-6.741-67.2-0.939-22.443 7.168-48.427 37.589-55.765 54.528-10.624 24.619-15.36 79.189 1.707 105.472 38.059 58.368 60.032 84.395 97.792 94.293 30.379 8.021 82.603 2.773 133.035-2.261 29.909-2.987 73.856-7.467 89.301-4.608 0.981 4.907-0.043 9.728-3.2 14.592-11.648 17.92-51.456 37.248-128.043 35.627-14.805-0.213-32.512-10.539-49.621-20.565-19.456-11.349-37.803-22.101-57.344-22.101-18.603 0-32.981 8.619-39.509 23.68-10.752 24.661 3.925 56.491 23.168 77.099 19.627 21.035 43.648 31.957 67.84 29.995 5.077 10.965 11.733 24.405 16.555 31.061 31.872 44.203 65.323 85.547 97.451 93.525 19.456 4.736 54.272-5.589 79.104-14.72 11.477 23.893 33.664 61.781 64.085 76.16 10.709 4.949 23.381 0.469 28.416-10.155 5.035-10.667 0.469-23.381-10.155-28.416-23.552-11.136-45.269-57.173-50.987-72.405-2.005-5.419-6.187-9.771-11.477-12.075-5.333-2.304-11.349-2.304-16.683-0.128-29.824 12.416-63.531 21.931-72.107 20.309-21.291-5.291-59.861-58.752-72.533-76.331-4.011-5.547-13.141-24.576-19.584-39.424-4.523-10.283-16.213-15.36-26.709-11.648-16.64 5.931-31.488-4.736-38.869-11.648-14.635-13.739-19.499-30.336-18.347-34.432 8.32 2.219 23.125 10.837 36.139 18.475 20.864 12.203 44.544 26.027 70.571 26.411 81.195 2.091 140.629-18.389 164.437-55.125 12.075-18.645 13.739-40.704 4.523-60.544-12.032-25.771-48.768-23.296-130.645-15.104-44.501 4.48-94.933 9.557-117.931 3.456-20.608-5.419-34.731-17.749-72.875-76.373-6.4-9.771-5.376-48.811 1.707-65.195 4.395-10.155 22.869-28.629 29.568-30.805 9.045-2.859 30.891 0.128 48.341 2.603 31.061 4.352 63.189 8.747 84.651-4.907 45.696-29.141 52.523-117.333 52.523-167.339 0-12.715-6.187-25.301-12.672-38.613-3.328-6.741-8.875-18.133-8.96-22.101 9.728-47.317 45.312-68.48 62.421-67.371 44.501 3.968 122.411 70.229 130.304 110.805 2.005 10.496 0.64 33.536-0.597 53.845-1.664 27.221-3.328 55.296 0.64 74.453 4.011 19.328 23.979 55.637 36.395 77.013-11.349 10.624-26.453 25.429-32.811 34.219-14.848 20.565-41.856 82.304-44.928 89.301-3.243 7.467-1.963 16.085 3.285 22.272s13.653 8.832 21.461 6.912c8.832-2.261 53.675-13.781 70.059-23.936 24.96-15.403 69.419-63.275 94.251-91.136 0.597 3.968 1.109 8.064 1.493 11.349 2.688 21.333 6.699 53.589 37.291 61.056 47.744 11.648 77.525-36.352 104.149-78.549 12.8-20.352 26.069-41.344 37.803-49.92 9.515-6.955 11.563-20.352 4.565-29.824-6.997-9.515-20.309-11.563-29.824-4.565-18.261 13.397-32.981 36.779-48.64 61.525-18.048 28.587-40.405 63.488-57.941 59.904-2.261-2.688-4.096-17.109-5.035-24.917-2.688-21.675-6.784-54.4-38.571-60.629-7.296-1.621-15.232 1.152-20.309 6.997-20.139 23.467-77.696 87.637-101.675 102.4-2.475 1.536-7.467 3.584-13.867 5.845 8.107-16.853 16.171-32.427 21.077-39.211 5.163-7.168 26.283-27.264 39.595-39.253 7.637-6.869 9.301-18.219 3.968-27.008-14.891-24.405-37.163-64.939-39.979-78.549s-1.237-39.979 0.171-63.189c1.493-25.045 2.944-48.725-0.128-64.512-12.416-64-109.44-139.947-168.363-145.195-1.92-0.171-3.755-0.256-5.589-0.256z" />
<glyph unicode="&#xe922;" glyph-name="error-mark" d="M512 21.333c-23.552 0-42.667 19.157-42.667 42.667s19.115 42.667 42.667 42.667 42.667-19.157 42.667-42.667-19.115-42.667-42.667-42.667zM512 64.043c0-0.043 0-0.043 0 0v0zM512 149.333c-11.776 0-21.333 9.557-21.333 21.333v426.667c0 11.776 9.557 21.333 21.333 21.333s21.333-9.557 21.333-21.333v-426.667c0-11.776-9.557-21.333-21.333-21.333zM981.333-64h-938.667c-7.381 0-14.251 3.84-18.176 10.112-3.883 6.272-4.224 14.165-0.896 20.736l469.333 938.667c7.253 14.464 30.933 14.464 38.187 0l469.333-938.667c3.285-6.613 2.944-14.464-0.896-20.736-3.968-6.272-10.837-10.112-18.219-10.112zM77.184-21.333h869.675l-434.859 869.632-434.816-869.632z" />
<glyph unicode="&#xe923;" glyph-name="error" d="M490.667-64c-270.549 0-490.667 220.117-490.667 490.667s220.117 490.667 490.667 490.667 490.667-220.117 490.667-490.667-220.117-490.667-490.667-490.667zM490.667 874.667c-247.040 0-448-200.96-448-448s200.96-448 448-448 448 200.96 448 448-200.96 448-448 448zM682.667 213.333c-5.461 0-10.923 2.091-15.104 6.229l-384 384c-8.32 8.32-8.32 21.845 0 30.165s21.845 8.32 30.165 0l384-384c8.32-8.32 8.32-21.845 0-30.165-4.139-4.139-9.6-6.229-15.061-6.229zM298.667 213.333c-5.461 0-10.923 2.091-15.104 6.229-8.32 8.32-8.32 21.845 0 30.165l384 384c8.32 8.32 21.845 8.32 30.165 0s8.32-21.845 0-30.165l-384-384c-4.139-4.139-9.6-6.229-15.061-6.229z" />
<glyph unicode="&#xe924;" glyph-name="exit" d="M1001.003 456.149c-0.981 2.347-2.432 4.437-4.181 6.272-0.171 0.171-0.213 0.427-0.427 0.597l-170.667 170.667c-8.32 8.32-21.845 8.32-30.165 0s-8.32-21.845 0-30.165l134.229-134.229h-503.125c-11.776 0-21.333-9.557-21.333-21.333s9.557-21.333 21.333-21.333h503.168l-134.272-134.272c-8.32-8.32-8.32-21.845 0-30.165 4.181-4.096 9.643-6.187 15.104-6.187s10.923 2.091 15.104 6.229l170.667 170.667c0.939 0.939 1.365 2.133 2.091 3.157 0.853 1.237 1.877 2.304 2.475 3.712 2.176 5.248 2.176 11.136 0 16.384zM682.667 298.667c-11.776 0-21.333-9.557-21.333-21.333v-213.333c0-35.285-28.715-64-64-64h-469.333c-35.285 0-64 28.715-64 64v768c0 35.285 28.715 64 64 64h469.333c35.285 0 64-28.715 64-64v-213.333c0-11.776 9.557-21.333 21.333-21.333s21.333 9.557 21.333 21.333v213.333c0 58.795-47.872 106.667-106.667 106.667h-469.333c-58.795 0-106.667-47.872-106.667-106.667v-768c0-58.795 47.872-106.667 106.667-106.667h469.333c58.795 0 106.667 47.872 106.667 106.667v213.333c0 11.776-9.557 21.333-21.333 21.333z" />
<glyph unicode="&#xe925;" glyph-name="eye" d="M512 149.333c-262.869 0-497.109 273.237-506.965 284.885-6.699 7.979-6.699 19.627 0 27.563 9.856 11.648 244.096 284.885 506.965 284.885 306.347 0 500.139-274.816 508.203-286.549 5.504-7.936 4.949-18.56-1.237-25.899-9.856-11.648-244.096-284.885-506.965-284.885zM50.005 448c50.901-55.040 251.264-256 461.995-256 212.523 0 414.037 203.861 463.104 257.152-42.496 54.187-216.533 254.848-463.104 254.848-211.029 0-411.179-200.917-461.995-256zM512 277.333c-94.123 0-170.667 76.544-170.667 170.667s76.544 170.667 170.667 170.667 170.667-76.544 170.667-170.667-76.544-170.667-170.667-170.667zM512 576c-70.571 0-128-57.429-128-128s57.429-128 128-128 128 57.429 128 128-57.429 128-128 128z" />
<glyph unicode="&#xe926;" glyph-name="feather-pen" d="M64-64c-2.901 0-5.888 0.597-8.747 1.877-10.752 4.821-15.531 17.451-10.709 28.203 84.523 188.459 206.379 332.715 388.224 518.187 8.32 8.405 21.803 8.491 30.165 0.341 8.405-8.235 8.576-21.803 0.341-30.165-178.517-182.059-297.856-323.157-379.776-505.813-3.584-7.936-11.392-12.629-19.499-12.629zM149.333 106.667c-11.776 0-21.333 9.557-21.333 21.333 0 458.752 373.248 832 832 832 11.776 0 21.333-9.557 21.333-21.333 0-90.923-15.36-181.803-45.696-270.080-1.664-4.907-5.077-9.045-9.6-11.605l-141.696-80.981h79.019c7.509 0 14.464-3.968 18.347-10.411 3.84-6.4 4.011-14.421 0.469-21.035-145.621-270.080-426.411-437.888-732.843-437.888zM938.368 917.035c-418.133-11.307-756.139-349.312-767.403-767.403 270.208 7.339 516.949 152.064 655.701 383.701h-122.667c-9.685 0-18.133 6.485-20.608 15.872-2.475 9.344 1.621 19.157 10.027 24.021l204.416 116.779c24.747 74.411 38.357 150.656 40.533 227.029z" />
<glyph unicode="&#xe927;" glyph-name="file-2" d="M832-64h-640c-35.285 0-64 28.715-64 64v896c0 35.285 28.715 64 64 64h426.667c11.776 0 21.333-9.557 21.333-21.333v-213.333c0-11.733 9.557-21.333 21.333-21.333h213.333c11.776 0 21.333-9.557 21.333-21.333v-682.667c0-35.285-28.715-64-64-64zM192 917.333c-11.776 0-21.333-9.6-21.333-21.333v-896c0-11.733 9.557-21.333 21.333-21.333h640c11.776 0 21.333 9.6 21.333 21.333v661.333h-192c-35.285 0-64 28.715-64 64v192h-405.333zM874.667 661.333c-5.461 0-10.923 2.091-15.104 6.229l-256 256c-8.32 8.32-8.32 21.845 0 30.165s21.845 8.32 30.165 0l256-256c8.32-8.32 8.32-21.845 0-30.165-4.139-4.139-9.6-6.229-15.061-6.229zM704 533.333h-384c-11.776 0-21.333 9.557-21.333 21.333s9.557 21.333 21.333 21.333h384c11.776 0 21.333-9.557 21.333-21.333s-9.557-21.333-21.333-21.333zM704 362.667h-384c-11.776 0-21.333 9.557-21.333 21.333s9.557 21.333 21.333 21.333h384c11.776 0 21.333-9.557 21.333-21.333s-9.557-21.333-21.333-21.333zM704 192h-384c-11.776 0-21.333 9.557-21.333 21.333s9.557 21.333 21.333 21.333h384c11.776 0 21.333-9.557 21.333-21.333s-9.557-21.333-21.333-21.333z" />
<glyph unicode="&#xe928;" glyph-name="files" d="M768 64h-640c-11.776 0-21.333 9.557-21.333 21.333v597.333c0 5.675 2.261 11.093 6.229 15.104l256 256c4.011 3.968 9.429 6.229 15.104 6.229h384c11.776 0 21.333-9.557 21.333-21.333v-853.333c0-11.776-9.557-21.333-21.333-21.333zM149.333 106.667h597.333v810.667h-353.835l-243.499-243.499v-567.168zM384 661.333h-256c-11.776 0-21.333 9.557-21.333 21.333s9.557 21.333 21.333 21.333h234.667v234.667c0 11.776 9.557 21.333 21.333 21.333s21.333-9.557 21.333-21.333v-256c0-11.776-9.557-21.333-21.333-21.333zM896-64h-640c-11.776 0-21.333 9.557-21.333 21.333v128c0 11.776 9.557 21.333 21.333 21.333s21.333-9.557 21.333-21.333v-106.667h597.333v810.667h-106.667c-11.776 0-21.333 9.557-21.333 21.333s9.557 21.333 21.333 21.333h128c11.776 0 21.333-9.557 21.333-21.333v-853.333c0-11.776-9.557-21.333-21.333-21.333z" />
<glyph unicode="&#xe929;" glyph-name="flag" d="M149.333-64c-11.776 0-21.333 9.557-21.333 21.333v981.333c0 11.776 9.557 21.333 21.333 21.333s21.333-9.557 21.333-21.333v-981.333c0-11.776-9.557-21.333-21.333-21.333zM832 362.667h-256c-35.285 0-64 28.715-64 64 0 11.776-9.557 21.333-21.333 21.333h-341.333c-11.776 0-21.333 9.557-21.333 21.333s9.557 21.333 21.333 21.333h341.333c35.285 0 64-28.715 64-64 0-11.776 9.557-21.333 21.333-21.333h234.667v426.667h-277.333c-11.776 0-21.333 9.557-21.333 21.333v42.667c0 11.776-9.557 21.333-21.333 21.333h-341.333c-11.776 0-21.333 9.557-21.333 21.333s9.557 21.333 21.333 21.333h341.333c35.285 0 64-28.715 64-64v-21.333h277.333c11.776 0 21.333-9.557 21.333-21.333v-469.333c0-11.776-9.557-21.333-21.333-21.333zM533.333 661.333c-11.776 0-21.333 9.557-21.333 21.333v213.333c0 11.776 9.557 21.333 21.333 21.333s21.333-9.557 21.333-21.333v-213.333c0-11.776-9.557-21.333-21.333-21.333z" />
<glyph unicode="&#xe92a;" glyph-name="flash" d="M405.333-64c-1.621 0-3.243 0.171-4.907 0.555-9.643 2.261-16.427 10.88-16.427 20.779v405.333h-106.667c-6.229 0-12.117 2.688-16.213 7.424-4.053 4.736-5.845 10.965-4.864 17.152l85.333 554.667c1.579 10.411 10.539 18.091 21.077 18.091h341.333c6.869 0 13.312-3.285 17.28-8.875 4.053-5.547 5.12-12.715 2.944-19.243l-118.656-355.883h98.432c7.381 0 14.251-3.84 18.176-10.112 3.883-6.272 4.224-14.165 0.896-20.736l-298.667-597.333c-3.669-7.381-11.093-11.819-19.072-11.819zM302.208 405.333h103.125c11.776 0 21.333-9.557 21.333-21.333v-336.299l242.816 485.632h-93.483c-6.869 0-13.312 3.285-17.28 8.875-4.053 5.547-5.12 12.715-2.944 19.243l118.656 355.883h-293.461l-78.763-512z" />
<glyph unicode="&#xe92b;" glyph-name="floppy" d="M960-64h-896c-35.285 0-64 28.715-64 64v896c0 35.285 28.715 64 64 64h768c5.675 0 11.093-2.261 15.104-6.229l170.667-170.667c3.968-4.011 6.229-9.429 6.229-15.104v-768c0-35.285-28.715-64-64-64zM64 917.333c-11.733 0-21.333-9.557-21.333-21.333v-896c0-11.776 9.6-21.333 21.333-21.333h896c11.733 0 21.333 9.557 21.333 21.333v759.168l-158.165 158.165h-759.168zM704 618.667h-384c-35.285 0-64 28.715-64 64v256c0 11.776 9.557 21.333 21.333 21.333h469.333c11.776 0 21.333-9.557 21.333-21.333v-256c0-35.285-28.715-64-64-64zM298.667 917.333v-234.667c0-11.776 9.6-21.333 21.333-21.333h384c11.733 0 21.333 9.557 21.333 21.333v234.667h-426.667zM874.667-64h-725.333c-11.776 0-21.333 9.557-21.333 21.333v512c0 58.795 47.829 106.667 106.667 106.667h554.667c58.837 0 106.667-47.872 106.667-106.667v-512c0-11.776-9.557-21.333-21.333-21.333zM170.667-21.333h682.667v490.667c0 35.285-28.715 64-64 64h-554.667c-35.285 0-64-28.715-64-64v-490.667zM661.333 704h-85.333c-11.776 0-21.333 9.557-21.333 21.333v128c0 11.776 9.557 21.333 21.333 21.333h85.333c11.776 0 21.333-9.557 21.333-21.333v-128c0-11.776-9.557-21.333-21.333-21.333zM597.333 746.667h42.667v85.333h-42.667v-85.333zM746.667 362.667h-469.333c-11.776 0-21.333 9.557-21.333 21.333s9.557 21.333 21.333 21.333h469.333c11.776 0 21.333-9.557 21.333-21.333s-9.557-21.333-21.333-21.333zM746.667 234.667h-469.333c-11.776 0-21.333 9.557-21.333 21.333s9.557 21.333 21.333 21.333h469.333c11.776 0 21.333-9.557 21.333-21.333s-9.557-21.333-21.333-21.333zM746.667 106.667h-469.333c-11.776 0-21.333 9.557-21.333 21.333s9.557 21.333 21.333 21.333h469.333c11.776 0 21.333-9.557 21.333-21.333s-9.557-21.333-21.333-21.333z" />
<glyph unicode="&#xe92c;" glyph-name="flowchart" d="M576 533.333h-170.667c-58.837 0-106.667 47.872-106.667 106.667v170.667c0 58.795 47.829 106.667 106.667 106.667h170.667c58.837 0 106.667-47.872 106.667-106.667v-170.667c0-58.795-47.829-106.667-106.667-106.667zM405.333 874.667c-35.285 0-64-28.715-64-64v-170.667c0-35.285 28.715-64 64-64h170.667c35.285 0 64 28.715 64 64v170.667c0 35.285-28.715 64-64 64h-170.667zM541.867-64h-102.4c-30.592 0-55.467 24.875-55.467 55.467v102.4c0 30.592 24.875 55.467 55.467 55.467h102.4c30.592 0 55.467-24.875 55.467-55.467v-102.4c0-30.592-24.875-55.467-55.467-55.467zM439.467 106.667c-7.040 0-12.8-5.717-12.8-12.8v-102.4c0-7.083 5.76-12.8 12.8-12.8h102.4c7.040 0 12.8 5.717 12.8 12.8v102.4c0 7.083-5.76 12.8-12.8 12.8h-102.4zM925.867-64h-102.4c-30.592 0-55.467 24.875-55.467 55.467v102.4c0 30.592 24.875 55.467 55.467 55.467h102.4c30.592 0 55.467-24.875 55.467-55.467v-102.4c0-30.592-24.875-55.467-55.467-55.467zM823.467 106.667c-7.040 0-12.8-5.717-12.8-12.8v-102.4c0-7.083 5.76-12.8 12.8-12.8h102.4c7.040 0 12.8 5.717 12.8 12.8v102.4c0 7.083-5.76 12.8-12.8 12.8h-102.4zM157.867-64h-102.4c-30.592 0-55.467 24.875-55.467 55.467v102.4c0 30.592 24.875 55.467 55.467 55.467h102.4c30.592 0 55.467-24.875 55.467-55.467v-102.4c0-30.592-24.875-55.467-55.467-55.467zM55.467 106.667c-7.040 0-12.8-5.717-12.8-12.8v-102.4c0-7.083 5.76-12.8 12.8-12.8h102.4c7.040 0 12.8 5.717 12.8 12.8v102.4c0 7.083-5.76 12.8-12.8 12.8h-102.4zM490.667 192c-11.776 0-21.333 9.557-21.333 21.333v256c0 11.776 9.557 21.333 21.333 21.333s21.333-9.557 21.333-21.333v-256c0-11.776-9.557-21.333-21.333-21.333zM874.667 192c-11.776 0-21.333 9.557-21.333 21.333 0 58.795-47.829 106.667-106.667 106.667h-512c-58.837 0-106.667-47.872-106.667-106.667 0-11.776-9.557-21.333-21.333-21.333s-21.333 9.557-21.333 21.333c0 82.347 66.987 149.333 149.333 149.333h512c82.347 0 149.333-66.987 149.333-149.333 0-11.776-9.557-21.333-21.333-21.333z" />
<glyph unicode="&#xe92d;" glyph-name="gear" d="M610.176-64h-196.267c-22.997 0-42.453 16.896-45.227 39.296l-16.896 117.76c-23.083 10.411-45.44 23.381-66.688 38.699l-111.061-44.587c-22.016-7.979-45.995 0.896-56.619 20.352l-97.877 169.344c-11.136 20.437-6.357 44.971 11.093 58.795l94.208 73.685c-1.408 14.421-2.133 26.923-2.133 38.656s0.725 24.235 2.219 38.656l-94.123 73.557c-17.92 14.165-22.656 39.509-11.093 59.051l98.005 169.6c10.667 19.541 34.901 28.331 56.192 20.011l111.36-44.715c22.229 15.872 44.203 28.629 66.56 38.741l16.939 118.229c2.731 21.973 22.187 38.869 45.184 38.869h196.267c22.997 0 42.453-16.896 45.227-39.296l16.896-117.803c23.083-10.368 45.397-23.339 66.645-38.699l111.061 44.587c21.888 8.064 45.909-0.853 56.619-20.352l97.877-169.344c11.179-20.437 6.357-44.971-11.136-58.795l-94.208-73.643c1.195-11.349 2.219-24.619 2.219-38.656s-0.981-27.307-2.219-38.656l94.123-73.6c17.579-13.952 22.357-38.485 11.477-58.453l-98.389-170.197c-10.667-19.541-34.987-28.245-56.192-20.011l-111.36 44.715c-22.229-15.872-44.203-28.629-66.56-38.741l-16.939-118.187c-2.731-21.973-22.187-38.869-45.184-38.869zM288.299 177.365c4.608 0 9.216-1.493 13.013-4.437 24.533-18.859 50.773-34.091 78.037-45.269 6.997-2.859 11.947-9.216 13.056-16.725l18.645-130.005 199.125-2.261 21.547 132.309c1.067 7.509 6.059 13.867 13.056 16.725 26.197 10.709 51.755 25.6 78.208 45.397 5.973 4.437 13.824 5.504 20.736 2.731l122.155-49.067 101.632 171.435c0.683 1.195 0.469 3.115-0.64 4.011l-103.424 80.896c-5.888 4.608-8.96 12.032-8.021 19.456 1.621 12.971 3.285 28.501 3.285 45.44 0 16.896-1.664 32.469-3.285 45.44-0.939 7.467 2.133 14.848 8.021 19.456l103.552 80.939c1.024 0.811 1.195 2.688 0.299 4.352l-97.877 169.344-125.653-47.403c-7.040-2.859-14.933-1.749-20.949 2.859-24.576 18.901-50.816 34.133-78.037 45.269-6.997 2.859-11.947 9.216-13.056 16.725l-18.603 130.048-199.168 2.304-21.589-132.352c-1.067-7.467-6.016-13.824-13.013-16.725-26.197-10.709-51.797-25.557-78.208-45.397-6.016-4.48-13.824-5.547-20.779-2.731l-122.155 49.067-101.632-171.435 104.064-84.864c5.888-4.608 8.96-11.989 8.021-19.456-2.219-17.92-3.285-32.341-3.285-45.44s1.024-27.563 3.285-45.44c0.939-7.424-2.133-14.848-8.021-19.456l-103.552-80.939c-1.024-0.811-1.195-2.731-0.299-4.395l97.877-169.344 125.653 47.403c2.603 1.067 5.291 1.536 7.979 1.536zM512.043 234.667c-117.632 0-213.333 95.701-213.333 213.333s95.701 213.333 213.333 213.333 213.333-95.701 213.333-213.333-95.701-213.333-213.333-213.333zM512.043 618.667c-94.123 0-170.667-76.544-170.667-170.667s76.544-170.667 170.667-170.667 170.667 76.544 170.667 170.667-76.544 170.667-170.667 170.667z" />
<glyph unicode="&#xe92e;" glyph-name="hamburger" d="M1002.667 704h-981.333c-11.776 0-21.333 9.557-21.333 21.333s9.557 21.333 21.333 21.333h981.333c11.776 0 21.333-9.557 21.333-21.333s-9.557-21.333-21.333-21.333zM1002.667 405.333h-981.333c-11.776 0-21.333 9.557-21.333 21.333s9.557 21.333 21.333 21.333h981.333c11.776 0 21.333-9.557 21.333-21.333s-9.557-21.333-21.333-21.333zM1002.667 106.667h-981.333c-11.776 0-21.333 9.557-21.333 21.333s9.557 21.333 21.333 21.333h981.333c11.776 0 21.333-9.557 21.333-21.333s-9.557-21.333-21.333-21.333z" />
<glyph unicode="&#xe92f;" glyph-name="home" d="M832-64h-213.333c-11.776 0-21.333 9.557-21.333 21.333v320h-213.333v-320c0-11.776-9.557-21.333-21.333-21.333h-213.333c-11.776 0-21.333 9.557-21.333 21.333v448h-106.667c-8.448 0-16.128 4.992-19.541 12.757s-1.92 16.768 3.797 22.997l469.333 512c8.064 8.832 23.381 8.832 31.445 0l469.333-512c5.717-6.229 7.211-15.232 3.797-22.997-3.371-7.765-11.051-12.757-19.499-12.757h-106.667v-448c0-11.776-9.557-21.333-21.333-21.333zM640-21.333h170.667v448c0 11.776 9.557 21.333 21.333 21.333h79.488l-420.821 459.093-420.821-459.093h79.488c11.776 0 21.333-9.557 21.333-21.333v-448h170.667v320c0 11.776 9.557 21.333 21.333 21.333h256c11.776 0 21.333-9.557 21.333-21.333v-320z" />
<glyph unicode="&#xe930;" glyph-name="info" d="M512-64c-282.325 0-512 229.675-512 512s229.675 512 512 512 512-229.675 512-512-229.675-512-512-512zM512 917.333c-258.773 0-469.333-210.56-469.333-469.333s210.56-469.333 469.333-469.333 469.333 210.56 469.333 469.333-210.56 469.333-469.333 469.333zM661.333 106.667h-256c-35.285 0-64 28.715-64 64s28.715 64 64 64h21.333v128h-21.333c-35.285 0-64 28.715-64 64s28.715 64 64 64h170.667c35.285 0 64-28.715 64-64v-192h21.333c35.285 0 64-28.715 64-64s-28.715-64-64-64zM405.333 192c-11.776 0-21.333-9.6-21.333-21.333s9.557-21.333 21.333-21.333h256c11.776 0 21.333 9.6 21.333 21.333s-9.557 21.333-21.333 21.333h-42.667c-11.776 0-21.333 9.557-21.333 21.333v213.333c0 11.733-9.557 21.333-21.333 21.333h-170.667c-11.776 0-21.333-9.6-21.333-21.333s9.557-21.333 21.333-21.333h42.667c11.776 0 21.333-9.557 21.333-21.333v-170.667c0-11.776-9.557-21.333-21.333-21.333h-42.667zM512 533.333c-70.571 0-128 57.429-128 128s57.429 128 128 128 128-57.429 128-128-57.429-128-128-128zM512 746.667c-47.061 0-85.333-38.272-85.333-85.333s38.272-85.333 85.333-85.333 85.333 38.272 85.333 85.333-38.272 85.333-85.333 85.333z" />
<glyph unicode="&#xe931;" glyph-name="insert-image" d="M1002.667 42.667h-981.333c-11.776 0-21.333 9.557-21.333 21.333v768c0 11.776 9.557 21.333 21.333 21.333h981.333c11.776 0 21.333-9.515 21.333-21.333v-768c0-11.776-9.557-21.333-21.333-21.333zM42.667 85.333h938.667v725.333h-938.667v-725.333zM1002.667 42.667c-7.211 0-14.208 3.627-18.261 10.283l-343.893 566.357-152.661-267.221c-3.328-5.76-9.131-9.685-15.701-10.581-6.528-0.896-13.184 1.365-17.92 6.059l-110.635 110.592-305.195-406.955c-7.083-9.472-20.437-11.349-29.867-4.267s-11.349 20.437-4.309 29.867l320 426.667c3.712 4.949 9.429 8.021 15.573 8.491 6.229 0.384 12.203-1.792 16.597-6.187l108.245-108.245 156.8 274.432c3.755 6.571 10.709 10.667 18.261 10.752 6.571-1.195 14.635-3.797 18.56-10.283l362.667-597.333c6.101-10.069 2.859-23.168-7.168-29.312-3.456-2.091-7.296-3.115-11.093-3.115zM362.667 554.667c-58.837 0-106.667 47.872-106.667 106.667s47.829 106.667 106.667 106.667 106.667-47.829 106.667-106.667-47.829-106.667-106.667-106.667zM362.667 725.333c-35.285 0-64-28.715-64-64s28.715-64 64-64 64 28.715 64 64-28.715 64-64 64z" />
<glyph unicode="&#xe932;" glyph-name="layers" d="M512 341.333c-3.371 0-6.784 0.811-9.856 2.432l-490.667 256c-7.040 3.669-11.477 10.923-11.477 18.901s4.437 15.232 11.477 18.901l490.667 256c6.187 3.243 13.568 3.243 19.755 0l490.667-256c6.997-3.669 11.435-10.923 11.435-18.901s-4.437-15.232-11.477-18.901l-490.667-256c-3.072-1.621-6.485-2.432-9.856-2.432zM67.456 618.667l444.544-231.979 444.544 231.979-444.544 231.979-444.544-231.979zM512 170.667c-3.371 0-6.784 0.811-9.856 2.432l-490.667 256c-7.040 3.669-11.477 10.923-11.477 18.901s4.437 15.232 11.477 18.901l71.339 37.205c10.411 5.333 23.339 1.451 28.8-9.045 5.461-10.453 1.408-23.339-9.045-28.8l-35.115-18.261 444.544-231.979 444.544 231.979-35.072 18.304c-10.453 5.461-14.507 18.347-9.045 28.8s18.389 14.379 28.8 9.045l71.339-37.205c6.997-3.712 11.435-10.965 11.435-18.944s-4.437-15.232-11.477-18.901l-490.667-256c-3.072-1.621-6.485-2.432-9.856-2.432zM512 0c-3.371 0-6.784 0.811-9.856 2.432l-490.667 256c-7.040 3.669-11.477 10.923-11.477 18.901s4.437 15.232 11.477 18.901l71.339 37.205c10.411 5.376 23.339 1.408 28.8-9.045s1.408-23.339-9.045-28.8l-35.115-18.261 444.544-231.979 444.544 231.979-35.072 18.304c-10.453 5.461-14.507 18.347-9.045 28.8s18.389 14.379 28.8 9.045l71.339-37.205c6.997-3.712 11.435-10.965 11.435-18.944s-4.437-15.232-11.477-18.901l-490.667-256c-3.072-1.621-6.485-2.432-9.856-2.432z" />
<glyph unicode="&#xe933;" glyph-name="lifebelt" d="M512-64c-282.325 0-512 229.675-512 512s229.675 512 512 512 512-229.675 512-512-229.675-512-512-512zM512 917.333c-258.773 0-469.333-210.56-469.333-469.333s210.56-469.333 469.333-469.333 469.333 210.56 469.333 469.333-210.56 469.333-469.333 469.333zM512 192c-141.184 0-256 114.816-256 256s114.816 256 256 256 256-114.816 256-256-114.816-256-256-256zM512 661.333c-117.632 0-213.333-95.701-213.333-213.333s95.701-213.333 213.333-213.333 213.333 95.701 213.333 213.333-95.701 213.333-213.333 213.333zM288.768 499.072c-5.461 0-10.923 2.091-15.104 6.229l-190.933 190.891c-8.32 8.32-8.32 21.845 0 30.165s21.845 8.32 30.165 0l190.933-190.891c8.32-8.32 8.32-21.845 0-30.165-4.181-4.139-9.6-6.229-15.061-6.229zM439.595 649.899c-5.461 0-10.923 2.091-15.104 6.229l-190.848 190.976c-8.32 8.32-8.32 21.845 0 30.165s21.845 8.32 30.165 0l190.891-190.933c8.32-8.32 8.32-21.845 0-30.165-4.181-4.181-9.643-6.272-15.104-6.272zM775.296 12.501c-5.461 0-10.923 2.091-15.104 6.229l-190.933 190.933c-8.32 8.32-8.32 21.845 0 30.165s21.845 8.32 30.165 0l190.933-190.933c8.32-8.32 8.32-21.845 0-30.165-4.139-4.139-9.6-6.229-15.061-6.229zM926.165 163.371c-5.461 0-10.923 2.091-15.104 6.229l-190.933 190.891c-8.32 8.32-8.32 21.845 0 30.165s21.845 8.32 30.165 0l190.933-190.891c8.32-8.32 8.32-21.845 0-30.165-4.139-4.139-9.6-6.229-15.061-6.229zM97.835 163.371c-5.461 0-10.923 2.091-15.104 6.229-8.32 8.32-8.32 21.845 0 30.165l190.933 190.891c8.32 8.32 21.845 8.32 30.165 0s8.32-21.845 0-30.165l-190.933-190.891c-4.139-4.139-9.6-6.229-15.061-6.229zM248.704 12.501c-5.461 0-10.923 2.091-15.104 6.229-8.32 8.32-8.32 21.845 0 30.165l190.891 190.933c8.32 8.32 21.845 8.32 30.165 0s8.32-21.845 0-30.165l-190.891-190.933c-4.139-4.139-9.6-6.229-15.061-6.229zM584.405 649.899c-5.461 0-10.923 2.091-15.104 6.229-8.32 8.32-8.32 21.845 0 30.165l190.891 190.933c8.32 8.32 21.845 8.32 30.165 0s8.32-21.845 0-30.165l-190.891-190.933c-4.139-4.139-9.6-6.229-15.061-6.229zM735.232 499.072c-5.461 0-10.923 2.091-15.104 6.229-8.32 8.32-8.32 21.845 0 30.165l190.933 190.891c8.32 8.32 21.845 8.32 30.165 0s8.32-21.845 0-30.165l-190.933-190.891c-4.139-4.139-9.6-6.229-15.061-6.229z" />
<glyph unicode="&#xe934;" glyph-name="link" d="M719.061 448.384c-51.285 0-99.499 19.968-135.808 56.235l-14.635 14.635c-74.837 74.837-74.837 196.651 0 271.531l112.896 112.896c36.267 36.267 84.437 56.235 135.765 56.235s99.499-19.968 135.808-56.235v0l14.635-14.635c74.837-74.837 74.837-196.651 0-271.531l-112.896-112.896c-36.267-36.267-84.48-56.235-135.765-56.235zM817.28 917.291c-39.893 0-77.355-15.531-105.6-43.733l-112.896-112.896c-58.197-58.24-58.197-152.96 0-211.2l14.635-14.635c56.405-56.405 154.795-56.448 211.2 0l112.896 112.896c58.197 58.24 58.197 152.96 0 211.2l-14.635 14.635c-28.16 28.203-65.664 43.733-105.6 43.733zM206.72-63.957c-51.285 0-99.499 19.968-135.808 56.235l-14.635 14.635c-74.837 74.837-74.837 196.651 0 271.531l112.896 112.896c36.267 36.267 84.437 56.235 135.765 56.235s99.499-19.968 135.808-56.235v0l14.635-14.635c74.837-74.837 74.837-196.651 0-271.531l-112.896-112.896c-36.267-36.267-84.48-56.235-135.765-56.235zM304.939 404.949c-39.893 0-77.355-15.531-105.6-43.733l-112.896-112.896c-58.197-58.24-58.197-152.96 0-211.2l14.635-14.635c56.405-56.405 154.795-56.448 211.2 0l112.896 112.896c58.197 58.24 58.197 152.96 0 211.2l-14.635 14.635c-28.16 28.203-65.664 43.733-105.6 43.733zM320.469 235.136c-5.419 0-10.88 2.048-15.019 6.187-8.363 8.277-8.448 21.803-0.171 30.165l380.459 384c8.235 8.363 21.888 8.448 30.165 0.128 8.363-8.277 8.448-21.803 0.171-30.165l-380.459-384c-4.139-4.181-9.643-6.315-15.147-6.315z" />
<glyph unicode="&#xe935;" glyph-name="list" d="M1002.667 704h-682.667c-11.776 0-21.333 9.557-21.333 21.333s9.557 21.333 21.333 21.333h682.667c11.776 0 21.333-9.557 21.333-21.333s-9.557-21.333-21.333-21.333zM1002.667 405.333h-682.667c-11.776 0-21.333 9.557-21.333 21.333s9.557 21.333 21.333 21.333h682.667c11.776 0 21.333-9.557 21.333-21.333s-9.557-21.333-21.333-21.333zM1002.667 106.667h-682.667c-11.776 0-21.333 9.557-21.333 21.333s9.557 21.333 21.333 21.333h682.667c11.776 0 21.333-9.557 21.333-21.333s-9.557-21.333-21.333-21.333zM106.667 21.333c-58.795 0-106.667 47.829-106.667 106.667s47.872 106.667 106.667 106.667 106.667-47.829 106.667-106.667-47.872-106.667-106.667-106.667zM106.667 192c-35.285 0-64-28.715-64-64s28.715-64 64-64 64 28.715 64 64-28.715 64-64 64zM106.667 320c-58.795 0-106.667 47.829-106.667 106.667s47.872 106.667 106.667 106.667 106.667-47.829 106.667-106.667-47.872-106.667-106.667-106.667zM106.667 490.667c-35.285 0-64-28.715-64-64s28.715-64 64-64 64 28.715 64 64-28.715 64-64 64zM106.667 618.667c-58.795 0-106.667 47.829-106.667 106.667s47.872 106.667 106.667 106.667 106.667-47.829 106.667-106.667-47.872-106.667-106.667-106.667zM106.667 789.333c-35.285 0-64-28.715-64-64s28.715-64 64-64 64 28.715 64 64-28.715 64-64 64z" />
<glyph unicode="&#xe936;" glyph-name="location-2" d="M490.667 490.667c-82.347 0-149.333 66.987-149.333 149.333s66.987 149.333 149.333 149.333 149.333-66.987 149.333-149.333-66.987-149.333-149.333-149.333zM490.667 746.667c-58.837 0-106.667-47.829-106.667-106.667s47.829-106.667 106.667-106.667 106.667 47.829 106.667 106.667-47.829 106.667-106.667 106.667zM960-64h-938.667c-7.893 0-15.104 4.352-18.773 11.264-3.755 6.955-3.328 15.36 1.024 21.931l170.667 256c3.968 5.888 10.624 9.472 17.749 9.472h206.933c11.776 0 21.333-9.557 21.333-21.333s-9.557-21.333-21.333-21.333h-195.499l-142.208-213.333h858.923l-142.208 213.333h-195.541c-11.776 0-21.333 9.557-21.333 21.333s9.557 21.333 21.333 21.333h206.933c7.125 0 13.781-3.584 17.749-9.515l170.667-256c4.395-6.528 4.779-14.976 1.024-21.931-3.669-6.869-10.88-11.221-18.773-11.221zM490.667 64c-6.613 0-12.885 3.072-16.896 8.363-12.416 16.128-303.104 397.397-303.104 567.637 0 176.469 143.531 320 320 320s320-143.531 320-320c0-170.24-290.688-551.509-303.104-567.637-4.011-5.291-10.283-8.363-16.896-8.363zM490.667 917.333c-152.917 0-277.333-124.416-277.333-277.333 0-133.803 214.699-434.261 277.333-519.040 62.635 84.779 277.333 385.237 277.333 519.040 0 152.917-124.416 277.333-277.333 277.333z" />
<glyph unicode="&#xe937;" glyph-name="lock" d="M746.667-64h-512c-58.837 0-106.667 47.872-106.667 106.667v384c0 58.795 47.829 106.667 106.667 106.667h512c58.837 0 106.667-47.872 106.667-106.667v-384c0-58.795-47.829-106.667-106.667-106.667zM234.667 490.667c-35.285 0-64-28.715-64-64v-384c0-35.285 28.715-64 64-64h512c35.285 0 64 28.715 64 64v384c0 35.285-28.715 64-64 64h-512zM746.667 490.667h-512c-11.776 0-21.333 9.557-21.333 21.333v170.667c0 152.917 124.416 277.333 277.333 277.333s277.333-124.416 277.333-277.333v-170.667c0-11.776-9.557-21.333-21.333-21.333zM256 533.333h469.333v149.333c0 129.408-105.301 234.667-234.667 234.667s-234.667-105.259-234.667-234.667v-149.333zM490.667 64c-11.776 0-21.333 9.557-21.333 21.333v128c0 11.776 9.557 21.333 21.333 21.333s21.333-9.557 21.333-21.333v-128c0-11.776-9.557-21.333-21.333-21.333zM490.667 192c-58.837 0-106.667 47.872-106.667 106.667s47.829 106.667 106.667 106.667 106.667-47.872 106.667-106.667-47.829-106.667-106.667-106.667zM490.667 362.667c-35.285 0-64-28.715-64-64s28.715-64 64-64 64 28.715 64 64-28.715 64-64 64z" />
<glyph unicode="&#xe938;" glyph-name="mail" d="M960 106.667h-896c-35.285 0-64 28.715-64 64v554.667c0 35.285 28.715 64 64 64h896c35.285 0 64-28.715 64-64v-554.667c0-35.285-28.715-64-64-64zM64 746.667c-11.776 0-21.333-9.557-21.333-21.333v-554.667c0-11.776 9.557-21.333 21.333-21.333h896c11.776 0 21.333 9.557 21.333 21.333v554.667c0 11.776-9.557 21.333-21.333 21.333h-896zM512 405.248c-22.016 0-43.989 6.827-62.763 20.48l-429.568 310.613c-9.515 6.912-11.648 20.267-4.779 29.824s20.224 11.691 29.781 4.779l429.611-310.656c22.571-16.427 52.821-16.384 75.349-0.043l429.781 310.699c9.472 6.912 22.869 4.779 29.781-4.779s4.736-22.912-4.779-29.781l-429.739-310.656c-18.731-13.653-40.704-20.48-62.677-20.48zM32.811 120.277c-6.613 0-13.099 3.029-17.28 8.789-6.912 9.557-4.779 22.869 4.736 29.824l422.101 306.389c9.6 6.955 22.869 4.779 29.824-4.736 6.912-9.557 4.779-22.869-4.736-29.824l-422.101-306.389c-3.84-2.731-8.235-4.053-12.544-4.053zM991.147 120.277c-4.352 0-8.747 1.323-12.501 4.053l-422.059 306.389c-9.515 6.955-11.648 20.267-4.736 29.824s20.181 11.691 29.824 4.736l422.059-306.389c9.515-6.955 11.648-20.267 4.736-29.824-4.181-5.76-10.709-8.789-17.323-8.789z" />
<glyph unicode="&#xe939;" glyph-name="maximize" d="M533.333 448c-5.461 0-10.923 2.091-15.104 6.229-8.32 8.32-8.32 21.845 0 30.165l298.667 298.667c8.32 8.32 21.845 8.32 30.165 0s8.32-21.845 0-30.165l-298.667-298.667c-4.139-4.139-9.6-6.229-15.061-6.229zM832 490.667c-11.776 0-21.333 9.557-21.333 21.333v256c0 11.776 9.557 21.333 21.333 21.333s21.333-9.557 21.333-21.333v-256c0-11.776-9.557-21.333-21.333-21.333zM832 746.667h-256c-11.776 0-21.333 9.557-21.333 21.333s9.557 21.333 21.333 21.333h256c11.776 0 21.333-9.557 21.333-21.333s-9.557-21.333-21.333-21.333zM149.333 64c-5.461 0-10.923 2.091-15.104 6.229-8.32 8.32-8.32 21.845 0 30.165l298.667 298.667c8.32 8.32 21.845 8.32 30.165 0s8.32-21.845 0-30.165l-298.667-298.667c-4.139-4.139-9.6-6.229-15.061-6.229zM149.333 64c-11.776 0-21.333 9.557-21.333 21.333v256c0 11.776 9.557 21.333 21.333 21.333s21.333-9.557 21.333-21.333v-256c0-11.776-9.557-21.333-21.333-21.333zM405.333 64h-256c-11.776 0-21.333 9.557-21.333 21.333s9.557 21.333 21.333 21.333h256c11.776 0 21.333-9.557 21.333-21.333s-9.557-21.333-21.333-21.333zM917.333-64h-853.333c-35.285 0-64 28.715-64 64v853.333c0 35.285 28.715 64 64 64h853.333c35.285 0 64-28.715 64-64v-853.333c0-35.285-28.715-64-64-64zM64 874.667c-11.733 0-21.333-9.6-21.333-21.333v-853.333c0-11.733 9.6-21.333 21.333-21.333h853.333c11.733 0 21.333 9.6 21.333 21.333v853.333c0 11.733-9.6 21.333-21.333 21.333h-853.333z" />
<glyph unicode="&#xe93a;" glyph-name="military-badge" d="M948.224 424.405l-426.667 213.333c-5.973 2.987-13.056 2.987-19.072 0l-426.667-213.333c-7.253-3.627-11.819-11.008-11.819-19.072v-128c0-7.381 3.883-14.251 10.155-18.133s14.123-4.181 20.736-0.939l417.109 208.555 417.109-208.555c3.029-1.493 6.315-2.261 9.557-2.261 3.883 0 7.808 1.067 11.179 3.2 6.272 3.883 10.155 10.752 10.155 18.133v128c0 8.064-4.565 15.445-11.776 19.072zM917.333 311.851l-395.776 197.888c-2.987 1.493-6.229 2.261-9.557 2.261-3.285 0-6.528-0.768-9.557-2.261l-395.776-197.888v80.299l405.333 202.667 405.333-202.667v-80.299zM948.224 125.739l-426.667 213.333c-5.973 2.987-13.056 2.987-19.072 0l-426.667-213.333c-7.253-3.627-11.819-11.008-11.819-19.072v-128c0-7.381 3.883-14.251 10.155-18.133s14.123-4.224 20.736-0.939l417.109 208.555 417.109-208.555c3.029-1.493 6.315-2.261 9.557-2.261 3.883 0 7.808 1.067 11.179 3.2 6.272 3.883 10.155 10.752 10.155 18.133v128c0 8.064-4.565 15.445-11.776 19.072zM917.333 13.184l-395.776 197.888c-2.987 1.493-6.229 2.261-9.557 2.261-3.285 0-6.528-0.768-9.557-2.261l-395.776-197.888v80.299l405.333 202.667 405.333-202.667v-80.299zM948.224 723.072l-426.667 213.333c-5.973 2.987-13.056 2.987-19.072 0l-426.667-213.333c-7.253-3.627-11.819-11.008-11.819-19.072v-128c0-7.381 3.883-14.251 10.155-18.133s14.165-4.181 20.736-0.939l417.109 208.555 417.109-208.555c3.029-1.493 6.315-2.261 9.557-2.261 3.883 0 7.808 1.067 11.179 3.2 6.272 3.883 10.155 10.752 10.155 18.133v128c0 8.064-4.565 15.445-11.776 19.072zM917.333 610.517l-395.776 197.888c-2.987 1.493-6.229 2.261-9.557 2.261-3.285 0-6.528-0.768-9.557-2.261l-395.776-197.888v80.299l405.333 202.667 405.333-202.667v-80.299z" />
<glyph unicode="&#xe93b;" glyph-name="minus" d="M903.529 478.118v-60.235h-783.059v60.235h783.059z" />
<glyph unicode="&#xe93c;" glyph-name="news" d="M917.333 21.333h-810.667c-11.776 0-21.333 9.557-21.333 21.333s9.557 21.333 21.333 21.333h810.667c35.285 0 64 28.715 64 64v597.333c0 35.285-28.715 64-64 64h-725.333c-35.285 0-64-28.715-64-64v-597.333c0-11.776-9.557-21.333-21.333-21.333s-21.333 9.557-21.333 21.333v597.333c0 58.837 47.829 106.667 106.667 106.667h725.333c58.837 0 106.667-47.829 106.667-106.667v-597.333c0-58.837-47.829-106.667-106.667-106.667zM192 21.333h-85.333c-58.837 0-106.667 47.829-106.667 106.667v469.333c0 58.837 47.829 106.667 106.667 106.667 11.776 0 21.333-9.557 21.333-21.333s-9.557-21.333-21.333-21.333c-35.285 0-64-28.715-64-64v-469.333c0-35.285 28.715-64 64-64h85.333c11.776 0 21.333-9.557 21.333-21.333s-9.557-21.333-21.333-21.333zM533.333 149.333h-341.333c-11.776 0-21.333 9.557-21.333 21.333v256c0 11.776 9.557 21.333 21.333 21.333h341.333c11.776 0 21.333-9.557 21.333-21.333v-256c0-11.776-9.557-21.333-21.333-21.333zM213.333 192h298.667v213.333h-298.667v-213.333zM917.333 405.333h-298.667c-11.776 0-21.333 9.557-21.333 21.333s9.557 21.333 21.333 21.333h298.667c11.776 0 21.333-9.557 21.333-21.333s-9.557-21.333-21.333-21.333zM917.333 277.333h-298.667c-11.776 0-21.333 9.557-21.333 21.333s9.557 21.333 21.333 21.333h298.667c11.776 0 21.333-9.557 21.333-21.333s-9.557-21.333-21.333-21.333zM917.333 149.333h-298.667c-11.776 0-21.333 9.557-21.333 21.333s9.557 21.333 21.333 21.333h298.667c11.776 0 21.333-9.557 21.333-21.333s-9.557-21.333-21.333-21.333zM917.333 533.333h-725.333c-11.776 0-21.333 9.557-21.333 21.333s9.557 21.333 21.333 21.333h725.333c11.776 0 21.333-9.557 21.333-21.333s-9.557-21.333-21.333-21.333zM917.333 661.333h-725.333c-11.776 0-21.333 9.557-21.333 21.333s9.557 21.333 21.333 21.333h725.333c11.776 0 21.333-9.557 21.333-21.333s-9.557-21.333-21.333-21.333z" />
<glyph unicode="&#xe93d;" glyph-name="open-folder" d="M894.72 64h-769.237c-30.976 0-57.429 22.144-62.976 52.523l-60.672 333.696c-5.675 31.189 2.731 63.104 23.040 87.424 20.352 24.405 50.176 38.357 81.92 38.357h225.707c16.469 0 32.981 3.883 47.701 11.264l116.608 58.325c20.651 10.283 43.733 15.744 66.773 15.744h353.621c31.147 0 60.672-13.568 80.939-37.205 20.309-23.68 29.227-54.869 24.448-85.675l-64.64-420.224c-4.821-31.403-31.403-54.229-63.232-54.229zM106.795 533.333c-19.029 0-36.949-8.363-49.152-22.997-12.203-14.592-17.237-33.707-13.824-52.437l60.672-333.696c1.877-10.155 10.709-17.536 20.992-17.536h769.237c10.624 0 19.499 7.637 21.12 18.091l64.64 420.224c2.816 18.475-2.517 37.163-14.677 51.371-12.203 14.208-29.909 22.315-48.597 22.315h-353.621c-16.469 0-32.939-3.883-47.701-11.264l-116.608-58.325c-20.608-10.283-43.733-15.744-66.773-15.744h-225.707zM106.709 533.333c-11.776 0-21.333 9.557-21.333 21.333v170.667c0 58.837 47.872 106.667 106.667 106.667h170.667c28.459 0 55.253-11.093 75.435-31.232l35.371-35.328c11.904-11.947 28.416-18.773 45.227-18.773h355.968c35.285 0 64-28.715 64-64v-42.667c0-11.776-9.557-21.333-21.333-21.333s-21.333 9.557-21.333 21.333v42.667c0 11.733-9.557 21.333-21.333 21.333h-355.968c-28.459 0-55.253 11.093-75.435 31.232l-35.328 35.371c-11.904 11.904-28.416 18.731-45.269 18.731h-170.667c-35.285 0-64-28.715-64-64v-170.667c0-11.776-9.515-21.333-21.333-21.333z" />
<glyph unicode="&#xe93e;" glyph-name="other" d="M128 320c-70.571 0-128 57.429-128 128s57.429 128 128 128 128-57.429 128-128-57.429-128-128-128zM128 533.333c-47.061 0-85.333-38.272-85.333-85.333s38.272-85.333 85.333-85.333 85.333 38.272 85.333 85.333-38.272 85.333-85.333 85.333zM512 320c-70.571 0-128 57.429-128 128s57.429 128 128 128 128-57.429 128-128-57.429-128-128-128zM512 533.333c-47.061 0-85.333-38.272-85.333-85.333s38.272-85.333 85.333-85.333 85.333 38.272 85.333 85.333-38.272 85.333-85.333 85.333zM896 320c-70.571 0-128 57.429-128 128s57.429 128 128 128 128-57.429 128-128-57.429-128-128-128zM896 533.333c-47.061 0-85.333-38.272-85.333-85.333s38.272-85.333 85.333-85.333 85.333 38.272 85.333 85.333-38.272 85.333-85.333 85.333z" />
<glyph unicode="&#xe93f;" glyph-name="picture" d="M1002.667-64h-981.333c-11.776 0-21.333 9.557-21.333 21.333v981.333c0 11.776 9.557 21.333 21.333 21.333h981.333c11.776 0 21.333-9.557 21.333-21.333v-981.333c0-11.776-9.557-21.333-21.333-21.333zM42.667-21.333h938.667v938.667h-938.667v-938.667zM1002.667 168.277c-6.187 0-12.288 2.688-16.512 7.851l-282.325 345.045-85.248-102.272c-7.509-9.088-20.949-10.24-30.037-2.731-9.045 7.552-10.24 20.992-2.688 30.080l101.803 122.112c4.011 4.821 10.027 7.637 16.341 7.637 0.043 0 0.085 0 0.085 0 6.357 0 12.416-2.901 16.427-7.851l298.667-365.056c7.467-9.088 6.144-22.528-2.987-30.037-3.968-3.2-8.789-4.779-13.525-4.779zM746.667 234.667c-6.187 0-12.288 2.688-16.512 7.851l-367.488 449.109-324.821-397.013c-7.467-9.131-20.907-10.453-29.995-3.029-9.131 7.467-10.453 20.907-2.987 30.037l341.333 417.195c8.064 9.899 24.917 9.899 32.981 0l384-469.333c7.467-9.088 6.144-22.528-2.987-30.037-3.968-3.2-8.789-4.779-13.525-4.779z" />
<glyph unicode="&#xe940;" glyph-name="play" d="M64-64.043c-11.648 0-23.296 3.2-33.664 9.643-18.987 11.733-30.336 32.085-30.336 54.4v896c0 22.315 11.349 42.667 30.336 54.4 19.029 11.733 42.325 12.8 62.251 2.816l896-448c21.845-10.88 35.413-32.811 35.413-57.216s-13.568-46.336-35.371-57.259l-896-448c-9.088-4.523-18.901-6.784-28.629-6.784zM64.043 917.376c-5.248 0-9.301-2.048-11.307-3.243-2.987-1.877-10.069-7.424-10.069-18.133v-896c0-10.709 7.083-16.256 10.112-18.133 3.072-1.835 11.179-5.803 20.779-0.939l896 448c7.339 3.669 11.776 10.837 11.776 19.072s-4.437 15.403-11.776 19.072l-896 448c-3.413 1.707-6.613 2.304-9.515 2.304z" />
<glyph unicode="&#xe941;" glyph-name="plus" d="M963.765 417.882h-421.647v-421.647h-60.235v421.647h-421.647v60.235h421.647v421.647h60.235v-421.647h421.647v-60.235z" />
<glyph unicode="&#xe942;" glyph-name="question-mark" d="M490.667-64c-270.549 0-490.667 220.117-490.667 490.667s220.117 490.667 490.667 490.667 490.667-220.117 490.667-490.667-220.117-490.667-490.667-490.667zM490.667 874.667c-247.040 0-448-200.96-448-448s200.96-448 448-448 448 200.96 448 448-200.96 448-448 448zM490.667 234.667c-11.776 0-21.333 9.557-21.333 21.333v32.299c0 39.893 15.531 77.355 43.733 105.6l52.992 52.992c20.181 20.181 31.275 46.976 31.275 75.477v32.299c0 58.795-47.829 106.667-106.667 106.667s-106.667-47.872-106.667-106.667v-42.667c0-11.776-9.557-21.333-21.333-21.333s-21.333 9.557-21.333 21.333v42.667c0 82.347 66.987 149.333 149.333 149.333s149.333-66.987 149.333-149.333v-32.299c0-39.893-15.531-77.355-43.733-105.6l-52.992-52.992c-20.181-20.181-31.275-46.976-31.275-75.477v-32.299c0-11.776-9.557-21.333-21.333-21.333zM490.667 106.667c-23.552 0-42.667 19.157-42.667 42.667s19.115 42.667 42.667 42.667 42.667-19.157 42.667-42.667-19.115-42.667-42.667-42.667zM490.667 149.376c0-0.043 0-0.043 0 0v0z" />
<glyph unicode="&#xe943;" glyph-name="rectangle-star" d="M853.333 938.667h-682.667c-82.347 0-149.333-66.987-149.333-149.333v-682.667c0-82.347 66.987-149.333 149.333-149.333h682.667c82.347 0 149.333 66.987 149.333 149.333v682.667c0 82.347-66.987 149.333-149.333 149.333zM960 106.667c0-58.795-47.829-106.667-106.667-106.667h-682.667c-58.837 0-106.667 47.872-106.667 106.667v682.667c0 58.795 47.829 106.667 106.667 106.667h682.667c58.837 0 106.667-47.872 106.667-106.667v-682.667zM813.013 554.539l-181.077 20.096-101.291 182.357c-7.595 13.525-29.739 13.525-37.333 0l-101.291-182.357-181.077-20.096c-8.107-0.939-15.019-6.443-17.749-14.165s-0.768-16.341 5.035-22.144l141.269-141.269-40.405-202.112c-1.621-8.149 1.621-16.512 8.32-21.419 6.784-4.907 15.659-5.461 22.955-1.408l181.632 100.907 181.632-100.907c3.243-1.792 6.827-2.688 10.368-2.688 4.437 0 8.832 1.365 12.544 4.096 6.699 4.907 9.941 13.269 8.32 21.419l-40.405 202.112 141.269 141.269c5.803 5.803 7.723 14.379 5.035 22.144s-9.643 13.269-17.749 14.165zM646.272 399.061c-5.035-5.077-7.253-12.288-5.845-19.285l33.621-168.064-151.68 84.267c-3.243 1.792-6.784 2.688-10.368 2.688s-7.125-0.896-10.368-2.688l-151.68-84.267 33.621 168.064c1.408 6.997-0.811 14.251-5.845 19.285l-117.973 117.973 147.925 16.427c6.827 0.768 12.928 4.779 16.299 10.837l88.021 158.421 88.021-158.421c3.371-6.016 9.472-10.069 16.299-10.837l147.925-16.427-117.973-117.973z" />
<glyph unicode="&#xe944;" glyph-name="refresh" d="M405.333 704c-5.461 0-10.923 2.091-15.104 6.229-8.32 8.32-8.32 21.845 0 30.165l70.272 70.272-70.272 70.229c-8.32 8.32-8.32 21.845 0 30.165s21.845 8.32 30.165 0l85.333-85.333c8.32-8.32 8.32-21.845 0-30.165l-85.333-85.333c-4.139-4.139-9.6-6.229-15.061-6.229zM576-64c-5.461 0-10.923 2.091-15.104 6.229l-85.333 85.333c-8.32 8.32-8.32 21.845 0 30.165l85.333 85.333c8.32 8.32 21.845 8.32 30.165 0s8.32-21.845 0-30.165l-70.229-70.229 70.229-70.229c8.32-8.32 8.32-21.845 0-30.165-4.139-4.181-9.6-6.272-15.061-6.272zM406.272 30.933c-1.536 0-3.115 0.171-4.693 0.512-186.197 41.813-316.245 204.331-316.245 395.221 0 223.488 181.845 405.333 405.333 405.333 11.776 0 21.333-9.557 21.333-21.333s-9.557-21.333-21.333-21.333c-199.979 0-362.667-162.688-362.667-362.667 0-170.752 116.352-316.16 282.923-353.579 11.52-2.603 18.731-13.995 16.128-25.472-2.219-9.941-11.051-16.683-20.779-16.683zM490.667 21.333c-11.776 0-21.333 9.557-21.333 21.333s9.557 21.333 21.333 21.333c199.979 0 362.667 162.688 362.667 362.667 0 170.752-116.352 316.16-282.923 353.579-11.52 2.603-18.731 13.995-16.128 25.472 2.603 11.52 14.037 18.773 25.472 16.128 186.197-41.771 316.245-204.288 316.245-395.179 0-223.488-181.845-405.333-405.333-405.333z" />
<glyph unicode="&#xe945;" glyph-name="reload" d="M512-64c-282.325 0-512 229.675-512 512s229.675 512 512 512c203.733 0 371.84-121.6 486.144-351.531 5.248-10.539 0.939-23.381-9.6-28.629-10.624-5.163-23.339-0.896-28.587 9.643-74.368 149.547-212.395 327.851-447.957 327.851-258.773 0-469.333-210.56-469.333-469.333s210.56-469.333 469.333-469.333 469.333 210.56 469.333 469.333c0 11.776 9.557 21.333 21.333 21.333s21.333-9.557 21.333-21.333c0-282.325-229.675-512-512-512zM1002.667 576h-170.667c-11.776 0-21.333 9.557-21.333 21.333s9.557 21.333 21.333 21.333h149.333v147.541c0 11.776 9.557 21.333 21.333 21.333s21.333-9.557 21.333-21.333v-168.875c0-11.776-9.557-21.333-21.333-21.333z" />
<glyph unicode="&#xe946;" glyph-name="remove" d="M490.667-64c-270.549 0-490.667 220.117-490.667 490.667s220.117 490.667 490.667 490.667 490.667-220.117 490.667-490.667-220.117-490.667-490.667-490.667zM490.667 874.667c-247.040 0-448-200.96-448-448s200.96-448 448-448 448 200.96 448 448-200.96 448-448 448zM746.667 405.333h-512c-11.776 0-21.333 9.557-21.333 21.333s9.557 21.333 21.333 21.333h512c11.776 0 21.333-9.557 21.333-21.333s-9.557-21.333-21.333-21.333z" />
<glyph unicode="&#xe947;" glyph-name="reply" d="M1002.624 64c-7.253 0-14.165 3.712-18.133 10.112-1.237 1.92-129.195 196.779-557.867 203.093v-191.872c0-8.619-5.205-16.427-13.184-19.712-7.893-3.371-17.109-1.493-23.253 4.608l-384 384c-8.32 8.32-8.32 21.845 0 30.165l384 384c6.144 6.144 15.36 8.021 23.253 4.651 7.979-3.285 13.184-11.093 13.184-19.712v-192.213c189.269-3.925 337.792-60.459 441.728-168.192 162.347-168.32 155.947-398.635 155.605-408.363-0.341-9.387-6.784-17.451-15.872-19.84-1.792-0.512-3.627-0.725-5.461-0.725zM51.456 469.333l332.501-332.501v161.835c0 11.776 9.557 21.333 21.333 21.333 335.445 0 502.187-108.373 572.544-174.251-8.661 76.672-38.571 212.395-140.544 317.867-99.413 102.869-244.779 155.051-432 155.051-11.776 0-21.333 9.557-21.333 21.333v161.835l-332.501-332.501z" />
<glyph unicode="&#xe948;" glyph-name="rocket" d="M384 106.667c-5.504 0-10.965 2.133-15.104 6.229l-192 192c-6.997 6.997-8.235 17.92-3.029 26.368 15.957 25.685 395.904 628.736 828.8 628.736 11.776 0 21.333-9.557 21.333-21.333 0-432.896-603.093-812.8-628.736-828.8-3.456-2.133-7.381-3.2-11.264-3.2zM219.307 322.901l167.595-167.595c89.771 59.221 574.933 396.032 593.877 761.472-365.696-18.987-702.336-504.192-761.472-593.877zM21.333 234.667c-4.48 0-9.003 1.451-12.715 4.224-5.845 4.309-9.045 11.264-8.576 18.517 0.213 3.157 24.747 318.592 362.624 318.592 11.776 0 21.333-9.557 21.333-21.333s-9.557-21.333-21.333-21.333c-237.952 0-299.477-170.027-314.965-244.651l136.789 51.328c10.923 4.053 23.339-1.451 27.477-12.459 4.181-11.051-1.408-23.339-12.459-27.477l-170.667-64c-2.475-0.981-4.949-1.408-7.509-1.408zM320-64c-6.699 0-13.099 3.157-17.109 8.619-4.352 5.803-5.376 13.397-2.816 20.224l64 170.667c4.139 11.051 16.469 16.555 27.477 12.459 11.051-4.139 16.64-16.427 12.459-27.477l-51.243-136.704c74.667 15.829 244.565 77.824 244.565 314.88 0 11.776 9.557 21.333 21.333 21.333s21.333-9.557 21.333-21.333c0-337.835-315.435-362.411-318.635-362.624-0.469-0.043-0.896-0.043-1.365-0.043zM24.704-63.829c-6.144 0-13.611 2.56-17.707 7.125-4.053 4.608-7.595 10.624-6.827 16.683 2.987 24.064 32.299 236.16 129.451 269.483 36.736 12.629 76.373-1.067 117.333-40.96 1.28-0.811 2.475-1.707 3.499-2.731 41.941-41.941 56.661-82.347 43.691-120.107-33.28-97.195-245.333-126.464-269.44-129.493zM156.331 191.189c-4.437 0-8.747-0.683-12.885-2.091-48.597-16.683-82.773-125.909-96.811-206.635 79.488 13.696 190.421 48.085 207.147 96.981 6.955 20.395-3.371 45.013-30.763 73.301-1.237 0.811-2.432 1.749-3.499 2.816-23.637 23.723-44.843 35.627-63.189 35.627zM682.667 490.667c-70.571 0-128 57.429-128 128s57.429 128 128 128 128-57.429 128-128-57.429-128-128-128zM682.667 704c-47.061 0-85.333-38.272-85.333-85.333s38.272-85.333 85.333-85.333 85.333 38.272 85.333 85.333-38.272 85.333-85.333 85.333z" />
<glyph unicode="&#xe949;" glyph-name="search" d="M362.667 234.667c-199.979 0-362.667 162.688-362.667 362.667s162.688 362.667 362.667 362.667 362.667-162.688 362.667-362.667-162.688-362.667-362.667-362.667zM362.667 917.333c-176.469 0-320-143.531-320-320s143.531-320 320-320 320 143.531 320 320-143.531 320-320 320zM1002.667-64c-5.461 0-10.923 2.091-15.104 6.229l-398.635 398.635c-8.32 8.32-8.32 21.845 0 30.165s21.845 8.32 30.165 0l398.635-398.635c8.32-8.32 8.32-21.845 0-30.165-4.139-4.139-9.6-6.229-15.061-6.229z" />
<glyph unicode="&#xe94a;" glyph-name="share" d="M853.333 618.667c-94.123 0-170.667 76.544-170.667 170.667s76.544 170.667 170.667 170.667 170.667-76.544 170.667-170.667-76.544-170.667-170.667-170.667zM853.333 917.333c-70.571 0-128-57.429-128-128s57.429-128 128-128 128 57.429 128 128-57.429 128-128 128zM853.333-64c-94.123 0-170.667 76.544-170.667 170.667s76.544 170.667 170.667 170.667 170.667-76.544 170.667-170.667-76.544-170.667-170.667-170.667zM853.333 234.667c-70.571 0-128-57.429-128-128s57.429-128 128-128 128 57.429 128 128-57.429 128-128 128zM170.667 277.333c-94.123 0-170.667 76.544-170.667 170.667s76.544 170.667 170.667 170.667 170.667-76.544 170.667-170.667-76.544-170.667-170.667-170.667zM170.667 576c-70.571 0-128-57.429-128-128s57.429-128 128-128 128 57.429 128 128-57.429 128-128 128zM304.256 493.44c-7.808 0-15.317 4.309-19.072 11.776-5.248 10.539-0.981 23.339 9.557 28.629l415.488 207.744c10.581 5.205 23.296 1.024 28.629-9.557 5.248-10.539 0.981-23.339-9.557-28.629l-415.488-207.744c-3.115-1.451-6.357-2.219-9.557-2.219zM719.744 152.107c-3.2 0-6.443 0.725-9.557 2.261l-415.488 207.744c-10.539 5.291-14.805 18.091-9.557 28.629 5.291 10.581 18.133 14.677 28.629 9.557l415.488-207.744c10.539-5.291 14.805-18.091 9.557-28.629-3.712-7.467-11.264-11.819-19.072-11.819z" />
<glyph unicode="&#xe94b;" glyph-name="shopping-cart" d="M789.333-21.333c-58.795 0-106.667 47.872-106.667 106.667s47.872 106.667 106.667 106.667 106.667-47.872 106.667-106.667-47.872-106.667-106.667-106.667zM789.333 149.333c-35.285 0-64-28.715-64-64s28.715-64 64-64 64 28.715 64 64-28.715 64-64 64zM362.667-21.333c-58.795 0-106.667 47.872-106.667 106.667s47.872 106.667 106.667 106.667 106.667-47.872 106.667-106.667-47.872-106.667-106.667-106.667zM362.667 149.333c-35.285 0-64-28.715-64-64s28.715-64 64-64 64 28.715 64 64-28.715 64-64 64zM917.333 234.667h-535.083c-70.912 0-132.523 50.475-146.432 120.021l-103.979 519.979h-110.507c-11.776 0-21.333 9.557-21.333 21.333s9.557 21.333 21.333 21.333h128c10.155 0 18.901-7.168 20.907-17.152l107.435-537.088c9.941-49.707 53.931-85.76 104.576-85.76h535.083c11.776 0 21.333-9.557 21.333-21.333s-9.557-21.333-21.333-21.333zM256 362.667c-10.667 0-19.84 7.936-21.163 18.773-1.408 11.691 6.912 22.315 18.645 23.765l671.531 81.408c9.557 1.152 17.195 8.619 18.56 18.176l34.475 241.877h-786.048c-11.776 0-21.333 9.557-21.333 21.333s9.557 21.333 21.333 21.333h810.667c6.187 0 12.075-2.688 16.128-7.339s5.888-10.88 4.992-16.981l-38.059-266.283c-4.096-28.587-26.965-50.987-55.637-54.485l-671.531-81.451c-0.853-0.085-1.707-0.128-2.56-0.128z" />
<glyph unicode="&#xe94c;" glyph-name="social-facebook" d="M640 789.333h128c11.776 0 21.333 9.557 21.333 21.333v128c0 11.776-9.557 21.333-21.333 21.333h-128c-129.365 0-234.667-105.259-234.667-234.667v-149.333h-149.333c-11.776 0-21.333-9.557-21.333-21.333v-128c0-11.776 9.557-21.333 21.333-21.333h149.333v-448c0-11.776 9.557-21.333 21.333-21.333h128c11.776 0 21.333 9.557 21.333 21.333v448h149.333c9.173 0 17.323 5.888 20.267 14.592l42.667 128c2.176 6.485 1.067 13.653-2.944 19.243-4.053 5.547-10.453 8.832-17.323 8.832h-192v149.333c0 35.285 28.715 64 64 64z" />
<glyph unicode="&#xe94d;" glyph-name="social-google-plus" d="M541.611 424.107c-20.139 14.677-50.56 36.821-50.944 45.355 0 12.075 27.563 39.424 49.707 61.355 51.029 50.645 120.96 119.936 120.96 215.979 0 80.256-41.472 136.192-101.419 170.667h101.419c11.776 0 21.333 9.557 21.333 21.333s-9.557 21.333-21.333 21.333h-277.333c-15.915 0-32.811-1.493-50.304-4.395-0.896-0.128-1.792-0.299-2.688-0.469-1.323-0.213-2.603-0.597-3.84-1.067-1.237 0-2.603-0.171-3.883-0.427-104.704-20.992-216.619-97.621-216.619-249.643 0-146.816 137.344-199.637 236.203-210.901-26.539-47.616-16.213-96.597 2.048-131.883-129.92-9.301-323.584-65.493-323.584-233.216 0-49.024 16.043-89.728 47.701-121.003 66.432-65.621 183.040-71.211 243.925-71.211 7.296 0 13.739 0.085 19.2 0.128l9.173 0.085c3.627 0 362.667 6.357 362.667 234.667 0 134.997-97.707 206.208-162.389 253.312zM576 149.461c0-73.259-101.376-128-192-128-88.576 0-192 33.536-192 128 0 95.957 119.595 168.107 228.821 170.624 47.616-29.355 155.179-108.544 155.179-170.624zM332.885 912.213c0.768 0.213 1.536 0.469 2.261 0.725 1.067 0 2.219 0.128 3.328 0.299 0.683 0.128 1.365 0.256 2.048 0.384 61.227 9.472 126.933-52.864 147.115-140.459 21.163-91.691-12.928-178.133-75.904-192.683-63.061-14.72-131.584 48.256-152.747 139.904-20.693 89.771 12.416 175.829 73.899 191.829zM981.333 533.461h-106.667v106.667c0 11.776-9.557 21.333-21.333 21.333s-21.333-9.557-21.333-21.333v-106.667h-106.667c-11.776 0-21.333-9.557-21.333-21.333s9.557-21.333 21.333-21.333h106.667v-106.667c0-11.776 9.557-21.333 21.333-21.333s21.333 9.557 21.333 21.333v106.667h106.667c11.776 0 21.333 9.557 21.333 21.333s-9.557 21.333-21.333 21.333z" />
<glyph unicode="&#xe94e;" glyph-name="social-reddit" d="M900.011 574.976c-9.131 0.683-17.707-4.437-21.333-12.928-3.584-8.448-1.365-18.261 5.504-24.32 39.381-34.859 67.243-74.581 82.816-117.973 2.645-7.296 9.003-12.587 16.64-13.867 1.152-0.171 2.347-0.256 3.456-0.256 6.443 0 12.672 2.944 16.725 8.107 13.184 16.683 20.181 35.925 20.181 55.595 0 54.485-53.291 99.925-123.989 105.643zM139.819 537.728c6.869 6.101 9.088 15.915 5.504 24.32-3.627 8.491-12.203 13.525-21.333 12.928-70.699-5.717-123.989-51.157-123.989-105.643 0-19.669 6.997-38.912 20.224-55.595 4.096-5.163 10.24-8.107 16.725-8.107 1.109 0 2.304 0.085 3.456 0.256 7.637 1.28 13.995 6.571 16.64 13.867 15.531 43.392 43.392 83.115 82.773 117.973zM533.632 617.941c1.451 45.483 8.875 88.021 38.613 109.952 29.909 22.016 82.005 22.101 153.557 2.048-0.085-1.536-0.469-3.029-0.469-4.608 0-58.795 47.829-106.667 106.667-106.667s106.667 47.872 106.667 106.667-47.829 106.667-106.667 106.667c-42.155 0-78.336-24.789-95.616-60.331-85.717 24.021-148.053 21.12-189.397-9.429-44.16-32.555-54.272-87.296-55.936-144.256-225.536-7.211-405.717-128.341-405.717-276.651 0-152.917 191.403-277.333 426.667-277.333s426.667 124.416 426.667 277.333c0 148.181-179.84 269.227-405.035 276.608zM661.333 448c35.285 0 64-28.715 64-64s-28.715-64-64-64-64 28.715-64 64 28.715 64 64 64zM362.667 448c35.285 0 64-28.715 64-64s-28.715-64-64-64-64 28.715-64 64 28.715 64 64 64zM712.277 193.664c-70.869-29.824-136.363-44.331-200.277-44.331s-129.408 14.507-200.277 44.331c-10.837 4.565-15.957 17.067-11.392 27.947s17.024 15.957 27.947 11.392c130.987-55.168 236.416-55.168 367.403 0 10.923 4.48 23.381-0.555 27.947-11.392s-0.512-23.381-11.349-27.947z" />
<glyph unicode="&#xe94f;" glyph-name="social-twitter" d="M997.077 752.853c-6.485 7.125-16.939 8.917-25.515 4.523-5.333-2.731-15.36-6.315-27.264-9.856 15.019 19.968 27.093 42.325 32.427 62.421 2.304 8.661-1.067 17.792-8.405 22.955-7.339 5.12-17.109 5.12-24.448 0-11.563-8.064-67.371-32.299-102.656-40.149-79.744 69.845-172.544 77.099-269.013 20.779-78.421-45.781-95.488-138.88-92.16-195.627-179.499 17.28-291.072 112.085-353.877 190.549-4.395 5.504-11.477 8.405-18.133 7.979-6.997-0.512-13.312-4.395-16.896-10.411-29.696-50.133-37.931-105.557-23.723-160.299 7.765-29.867 21.333-56.192 37.077-77.525-7.552 3.712-14.848 8.363-21.717 13.909-6.315 5.205-15.147 6.187-22.613 2.731-7.424-3.541-12.16-11.051-12.16-19.285 0-93.995 58.795-156.715 113.707-189.483-8.875 1.067-18.133 3.029-27.477 5.888-8.021 2.432-16.725 0-22.272-6.315-5.547-6.272-6.869-15.232-3.413-22.869 30.848-68.224 89.301-115.157 161.621-132.181-63.147-37.077-147.669-55.253-225.067-46.336-10.027 1.408-19.584-4.949-22.741-14.592s0.981-20.224 9.813-25.173c117.419-65.92 223.573-89.472 315.307-89.472 133.504 0 236.544 49.835 299.264 91.52 169.088 112.213 274.475 313.685 259.797 493.952 27.093 20.011 67.627 56.96 92.757 96.683 5.205 8.021 4.267 18.603-2.219 25.685z" />
<glyph unicode="&#xe950;" glyph-name="star" d="M810.667-21.333c-4.352 0-8.704 1.323-12.416 3.968l-286.251 204.501-286.251-204.459c-7.637-5.461-17.963-5.248-25.387 0.427-7.467 5.717-10.283 15.616-6.997 24.405l122.24 326.016-285.355 203.776c-7.552 5.376-10.752 15.061-7.936 23.893 2.859 8.789 11.093 14.805 20.352 14.805h346.965l102.016 326.357c5.547 17.835 35.157 17.835 40.704 0l102.016-326.357h346.965c9.259 0 17.493-6.016 20.309-14.805 2.816-8.832-0.384-18.517-7.936-23.893l-285.355-203.819 122.24-326.016c3.285-8.789 0.469-18.688-6.997-24.405-3.755-2.901-8.363-4.395-12.928-4.395zM512 234.667c4.352 0 8.704-1.323 12.416-3.968l241.749-172.629-103.424 275.797c-3.413 9.045-0.256 19.243 7.595 24.875l244.437 174.592h-296.107c-9.344 0-17.579 6.059-20.352 14.976l-86.315 276.181-86.315-276.181c-2.773-8.917-11.008-14.976-20.352-14.976h-296.107l244.48-174.635c7.851-5.589 10.965-15.787 7.595-24.875l-103.424-275.797 241.749 172.629c3.669 2.688 8.021 4.011 12.373 4.011z" />
<glyph unicode="&#xe951;" glyph-name="tag" d="M405.419-64c-33.323 0-64.512 12.928-87.979 36.395l-281.045 281.045c-23.467 23.467-36.395 54.656-36.395 87.808 0 33.323 12.928 64.512 36.395 87.979l474.539 474.539c36.267 36.267 84.48 56.235 135.765 56.235h270.635c58.795 0 106.667-47.872 106.667-106.667v-270.635c0-51.285-19.968-99.499-56.235-135.765l-474.539-474.539c-23.467-23.467-54.656-36.395-87.808-36.395zM646.699 917.333c-39.893 0-77.355-15.531-105.6-43.733l-474.539-474.539c-15.403-15.403-23.893-35.883-23.893-57.643 0-21.931 8.491-42.411 23.893-57.771l281.088-281.088c30.933-30.891 84.736-30.677 115.413 0l474.581 474.581c28.16 28.16 43.691 65.664 43.691 105.557v270.635c0 35.285-28.715 64-64 64h-270.635zM789.333 618.667c-58.795 0-106.667 47.872-106.667 106.667s47.872 106.667 106.667 106.667 106.667-47.872 106.667-106.667-47.872-106.667-106.667-106.667zM789.333 789.333c-35.285 0-64-28.715-64-64s28.715-64 64-64 64 28.715 64 64-28.715 64-64 64z" />
</font>
</defs>
</svg>
