<?xml version="1.0" encoding="UTF-8"?>
<svg width="24px" height="20px" viewBox="0 0 24 20" version="1.1" xmlns="http://www.w3.org/2000/svg" xmlns:xlink="http://www.w3.org/1999/xlink">
    <!-- Generator: Sketch 40.3 (33839) - http://www.bohemiancoding.com/sketch -->
    <title>article</title>
    <desc>Created with Sketch.</desc>
    <defs></defs>
    <g id="Page-1" stroke="none" stroke-width="1" fill="none" fill-rule="evenodd">
        <g id="Screenshot" transform="translate(-352.000000, -185.000000)" fill="#FFFFFF">
            <g id="article-hp" transform="translate(322.000000, 153.000000)">
                <g id="article" transform="translate(30.000000, 32.000000)">
                    <g id="Group">
                        <path d="M0.818181818,13.4181818 L10.5272727,13.4181818 C10.8545455,13.4181818 11.1272727,13.1454545 11.1272727,12.8181818 C11.1272727,12.4909091 10.8545455,12.2181818 10.5272727,12.2181818 L0.818181818,12.2181818 C0.490909091,12.2181818 0.218181818,12.4909091 0.218181818,12.8181818 C0.218181818,13.1454545 0.490909091,13.4181818 0.818181818,13.4181818 L0.818181818,13.4181818 Z" id="Shape"></path>
                        <path d="M0.818181818,1.47272727 L20.4545455,1.47272727 C20.7818182,1.47272727 21.0545455,1.2 21.0545455,0.872727273 C21.0545455,0.545454545 20.7818182,0.272727273 20.4545455,0.272727273 L0.818181818,0.272727273 C0.490909091,0.272727273 0.218181818,0.545454545 0.218181818,0.872727273 C0.218181818,1.2 0.490909091,1.47272727 0.818181818,1.47272727 L0.818181818,1.47272727 Z" id="Shape"></path>
                        <path d="M0.818181818,19.3636364 L16.6363636,19.3636364 C16.9636364,19.3636364 17.2363636,19.0909091 17.2363636,18.7636364 C17.2363636,18.4363636 16.9636364,18.1636364 16.6363636,18.1636364 L0.818181818,18.1636364 C0.490909091,18.1636364 0.218181818,18.4363636 0.218181818,18.7636364 C0.218181818,19.0909091 0.490909091,19.3636364 0.818181818,19.3636364 L0.818181818,19.3636364 Z" id="Shape"></path>
                        <path d="M0.818181818,7.41818182 L23.1818182,7.41818182 C23.5090909,7.41818182 23.7818182,7.14545455 23.7818182,6.81818182 C23.7818182,6.49090909 23.5090909,6.21818182 23.1818182,6.21818182 L0.818181818,6.21818182 C0.490909091,6.21818182 0.218181818,6.49090909 0.218181818,6.81818182 C0.218181818,7.14545455 0.490909091,7.41818182 0.818181818,7.41818182 L0.818181818,7.41818182 Z" id="Shape"></path>
                    </g>
                </g>
            </g>
        </g>
    </g>
</svg>