<?xml version="1.0" encoding="UTF-8"?>
<svg width="24px" height="24px" viewBox="0 0 24 24" version="1.1" xmlns="http://www.w3.org/2000/svg" xmlns:xlink="http://www.w3.org/1999/xlink">
    <!-- Generator: Sketch 40.3 (33839) - http://www.bohemiancoding.com/sketch -->
    <title>image</title>
    <desc>Created with Sketch.</desc>
    <defs></defs>
    <g id="Page-1" stroke="none" stroke-width="1" fill="none" fill-rule="evenodd">
        <g id="Screenshot" transform="translate(-167.000000, -43.000000)" fill="#FFFFFF">
            <g id="image-hp" transform="translate(137.000000, 13.000000)">
                <g id="image" transform="translate(30.000000, 30.000000)">
                    <path d="M17.346,23.29425 L5.94825,23.29425 C2.6685,23.29425 0,20.625 0,17.34525 L0,5.9475 C0,2.66775 2.6685,0 5.94825,0 L17.346,0 C20.62575,0 23.29425,2.66775 23.29425,5.9475 L23.29425,17.34525 C23.29425,20.625 20.62575,23.29425 17.346,23.29425 L17.346,23.29425 Z M5.94825,1.3305 C3.402,1.3305 1.33125,3.40125 1.33125,5.94675 L1.33125,17.3445 C1.33125,19.89075 3.40275,21.9615 5.94825,21.9615 L17.346,21.9615 C19.89225,21.9615 21.96225,19.89 21.96225,17.3445 L21.96225,5.9475 C21.96225,3.40125 19.8915,1.33125 17.346,1.33125 L5.94825,1.33125 L5.94825,1.3305 Z" id="Shape"></path>
                    <path d="M22.62825,8.7405 L14.424,8.7405 C14.0565,8.7405 13.758,8.442 13.758,8.0745 C13.758,7.707 14.05575,7.4085 14.424,7.4085 L22.6275,7.4085 C22.995,7.4085 23.2935,7.70625 23.2935,8.0745 C23.29425,8.442 22.99575,8.7405 22.62825,8.7405 L22.62825,8.7405 Z" id="Shape"></path>
                    <path d="M8.69775,8.7405 L0.66525,8.7405 C0.29775,8.7405 0,8.442 0,8.07525 C0,7.70775 0.29775,7.40925 0.66525,7.40925 L8.69775,7.40925 C9.06525,7.40925 9.36375,7.707 9.36375,8.07525 C9.363,8.442 9.06525,8.7405 8.69775,8.7405 L8.69775,8.7405 Z" id="Shape"></path>
                    <path d="M11.64675,16.8375 C8.78475,16.8375 6.45525,14.5095 6.45525,11.64675 C6.45525,8.784 8.784,6.45525 11.64675,6.45525 C14.50875,6.45525 16.8375,8.78325 16.8375,11.64675 C16.8375,14.5095 14.5095,16.8375 11.64675,16.8375 L11.64675,16.8375 Z M11.64675,7.7865 C9.51825,7.7865 7.78575,9.519 7.78575,11.6475 C7.78575,13.776 9.51825,15.507 11.64675,15.507 C13.77525,15.507 15.50625,13.776 15.50625,11.6475 C15.50625,9.519 13.77525,7.7865 11.64675,7.7865 L11.64675,7.7865 Z" id="Shape"></path>
                    <path d="M19.16775,7.02075 L16.173,7.02075 C15.8055,7.02075 15.507,6.723 15.507,6.3555 L15.507,3.36 C15.507,2.9925 15.8055,2.69475 16.173,2.69475 L19.16775,2.69475 C19.53525,2.69475 19.833,2.9925 19.833,3.36 L19.833,6.3555 C19.83225,6.72375 19.53525,7.02075 19.16775,7.02075 L19.16775,7.02075 Z M16.8375,5.6895 L18.50175,5.6895 L18.50175,4.026 L16.8375,4.026 L16.8375,5.6895 L16.8375,5.6895 Z" id="Shape"></path>
                </g>
            </g>
        </g>
    </g>
</svg>