<?xml version="1.0" encoding="UTF-8"?>
<svg width="19px" height="30px" viewBox="0 0 19 30" version="1.1" xmlns="http://www.w3.org/2000/svg" xmlns:xlink="http://www.w3.org/1999/xlink">
    <!-- Generator: Sketch 40.3 (33839) - http://www.bohemiancoding.com/sketch -->
    <title>point</title>
    <desc>Created with Sketch.</desc>
    <defs></defs>
    <g id="Page-1" stroke="none" stroke-width="1" fill="none" fill-rule="evenodd">
        <g id="Screenshot" transform="translate(-54.000000, -40.000000)" fill="#FFFFFF">
            <g id="point-hp" transform="translate(22.000000, 13.000000)">
                <g id="point" transform="translate(32.000000, 27.000000)">
                    <g id="Group">
                        <path d="M1.97375,0.0941666667 C0.940833333,0.0941666667 0.3075,0.833333333 0.225416667,1.85458333 L0.225416667,2.86416667 L0.225416667,27.9458333 C0.225416667,29.0608333 0.8825,29.9058333 1.97375,29.9058333 L16.3475,29.9058333 C17.31,29.9058333 18.1079167,29.1075 18.1079167,28.145 L18.1079167,1.85458333 C18.1079167,0.892083333 17.31,0.0941666667 16.3475,0.0941666667 L1.97375,0.0941666667 L1.97375,0.0941666667 Z M1.97375,0.75125 L16.3475,0.75125 C16.9579167,0.75125 17.4504167,1.24416667 17.4504167,1.85416667 L17.4504167,28.145 C17.4504167,28.7554167 16.9575,29.2479167 16.3475,29.2479167 L1.97375,29.2479167 C1.89166667,29.2479167 1.80916667,29.2366667 1.72708333,29.2129167 L11.1375,27.065 C12.07625,26.85375 12.7804167,25.97375 12.7804167,25.0108333 L12.7804167,22.3466667 L12.7804167,7.6525 L12.7804167,4.98833333 C12.7804167,4.02583333 12.07625,3.14541667 11.1375,2.93416667 L1.72708333,0.78625 C1.80958333,0.762916667 1.89166667,0.75125 1.97375,0.75125 L1.97375,0.75125 L1.97375,0.75125 Z M1.07,1.31458333 L10.9966667,3.58 C11.5954167,3.72083333 12.1116667,4.37833333 12.1116667,4.98833333 L12.1116667,7.6525 L12.1116667,22.3475 L12.1116667,25.0116667 C12.1116667,25.6220833 11.5954167,26.2795833 10.9966667,26.4204167 L1.07,28.6858333 C0.999583333,28.5683333 0.940833333,28.45125 0.905416667,28.3220833 C0.894166667,28.275 0.882083333,28.21625 0.882083333,28.1575 L0.882083333,28.1458333 L0.882083333,27.6291667 L0.882083333,3.1925 L0.882083333,1.85458333 C0.8825,1.655 0.97625,1.47875 1.07,1.31458333 L1.07,1.31458333 L1.07,1.31458333 Z M9.41291667,13.7791667 C8.74458333,13.7791667 8.19291667,14.3308333 8.19291667,15 C8.19291667,15.66875 8.74416667,16.2208333 9.41291667,16.2208333 C10.0816667,16.2208333 10.6216667,15.6691667 10.6216667,15 C10.6216667,14.3308333 10.0816667,13.7791667 9.41291667,13.7791667 L9.41291667,13.7791667 L9.41291667,13.7791667 Z M9.41291667,14.4366667 C9.73,14.4366667 9.96458333,14.6829167 9.96458333,15 C9.96458333,15.3170833 9.73,15.5516667 9.41291667,15.5516667 C9.10833333,15.5516667 8.86166667,15.3170833 8.86166667,15 C8.86166667,14.6829167 9.10791667,14.4366667 9.41291667,14.4366667 L9.41291667,14.4366667 L9.41291667,14.4366667 Z" id="Shape"></path>
                    </g>
                </g>
            </g>
        </g>
    </g>
</svg>