<?xml version="1.0" encoding="UTF-8"?>
<svg width="30px" height="21px" viewBox="0 0 30 21" version="1.1" xmlns="http://www.w3.org/2000/svg" xmlns:xlink="http://www.w3.org/1999/xlink">
    <!-- Generator: Sketch 40.3 (33839) - http://www.bohemiancoding.com/sketch -->
    <title>sound</title>
    <desc>Created with Sketch.</desc>
    <defs></defs>
    <g id="Page-1" stroke="none" stroke-width="1" fill="none" fill-rule="evenodd">
        <g id="Screenshot" transform="translate(-285.000000, -44.000000)" fill="#FFFFFF">
            <g id="sound-hp" transform="translate(258.000000, 13.000000)">
                <g id="sound" transform="translate(27.000000, 31.000000)">
                    <g id="Group">
                        <path d="M0.705882353,13.5882353 C1.09411765,13.5882353 1.41176471,13.2705882 1.41176471,12.8823529 L1.41176471,7.58823529 C1.41176471,7.2 1.09411765,6.88235294 0.705882353,6.88235294 C0.317647059,6.88235294 0,7.2 0,7.58823529 L0,12.8823529 C0,13.2705882 0.317647059,13.5882353 0.705882353,13.5882353 L0.705882353,13.5882353 Z" id="Shape"></path>
                        <path d="M3.52941176,4.94117647 L3.52941176,15.5294118 C3.52941176,15.9176471 3.84705882,16.2352941 4.23529412,16.2352941 C4.62352941,16.2352941 4.94117647,15.9176471 4.94117647,15.5294118 L4.94117647,4.94117647 C4.94117647,4.55294118 4.62352941,4.23529412 4.23529412,4.23529412 C3.84705882,4.23529412 3.52941176,4.55294118 3.52941176,4.94117647 L3.52941176,4.94117647 Z" id="Shape"></path>
                        <path d="M6.88235294,0.988235294 L6.88235294,19.5176471 C6.88235294,19.9058824 7.2,20.2235294 7.58823529,20.2235294 C7.97647059,20.2235294 8.29411765,19.9058824 8.29411765,19.5176471 L8.29411765,0.988235294 C8.29411765,0.6 7.97647059,0.282352941 7.58823529,0.282352941 C7.2,0.282352941 6.88235294,0.564705882 6.88235294,0.988235294 L6.88235294,0.988235294 Z" id="Shape"></path>
                        <path d="M10.9411765,4.94117647 L10.9411765,15.5294118 C10.9411765,15.9176471 11.2588235,16.2352941 11.6470588,16.2352941 C12.0352941,16.2352941 12.3529412,15.9176471 12.3529412,15.5294118 L12.3529412,4.94117647 C12.3529412,4.55294118 12.0352941,4.23529412 11.6470588,4.23529412 C11.2588235,4.23529412 10.9411765,4.55294118 10.9411765,4.94117647 L10.9411765,4.94117647 Z" id="Shape"></path>
                        <path d="M14.1176471,7.58823529 L14.1176471,12.8823529 C14.1176471,13.2705882 14.4352941,13.5882353 14.8235294,13.5882353 C15.2117647,13.5882353 15.5294118,13.2705882 15.5294118,12.8823529 L15.5294118,7.58823529 C15.5294118,7.2 15.2117647,6.88235294 14.8235294,6.88235294 C14.4352941,6.88235294 14.1176471,7.2 14.1176471,7.58823529 L14.1176471,7.58823529 Z" id="Shape"></path>
                        <path d="M17.8235294,4.94117647 L17.8235294,15.5294118 C17.8235294,15.9176471 18.1411765,16.2352941 18.5294118,16.2352941 C18.9176471,16.2352941 19.2352941,15.9176471 19.2352941,15.5294118 L19.2352941,4.94117647 C19.2352941,4.55294118 18.9176471,4.23529412 18.5294118,4.23529412 C18.1411765,4.23529412 17.8235294,4.55294118 17.8235294,4.94117647 L17.8235294,4.94117647 Z" id="Shape"></path>
                        <path d="M21.2117647,1.41176471 L21.2117647,19.0588235 C21.2117647,19.4470588 21.5294118,19.7647059 21.9176471,19.7647059 C22.3058824,19.7647059 22.6235294,19.4470588 22.6235294,19.0588235 L22.6235294,1.41176471 C22.6235294,1.02352941 22.3058824,0.705882353 21.9176471,0.705882353 C21.5294118,0.705882353 21.2117647,1.02352941 21.2117647,1.41176471 L21.2117647,1.41176471 Z" id="Shape"></path>
                        <path d="M25.2352941,4.23529412 C24.8470588,4.23529412 24.5294118,4.55294118 24.5294118,4.94117647 L24.5294118,15.5294118 C24.5294118,15.9176471 24.8470588,16.2352941 25.2352941,16.2352941 C25.6235294,16.2352941 25.9411765,15.9176471 25.9411765,15.5294118 L25.9411765,4.94117647 C25.9411765,4.55294118 25.6235294,4.23529412 25.2352941,4.23529412 L25.2352941,4.23529412 Z" id="Shape"></path>
                        <path d="M29.1176471,6.88235294 C28.7294118,6.88235294 28.4117647,7.2 28.4117647,7.58823529 L28.4117647,12.8823529 C28.4117647,13.2705882 28.7294118,13.5882353 29.1176471,13.5882353 C29.5058824,13.5882353 29.8235294,13.2705882 29.8235294,12.8823529 L29.8235294,7.58823529 C29.8235294,7.2 29.5058824,6.88235294 29.1176471,6.88235294 L29.1176471,6.88235294 Z" id="Shape"></path>
                    </g>
                </g>
            </g>
        </g>
    </g>
</svg>