<?xml version="1.0" encoding="UTF-8"?>
<svg width="24px" height="22px" viewBox="0 0 24 22" version="1.1" xmlns="http://www.w3.org/2000/svg" xmlns:xlink="http://www.w3.org/1999/xlink">
    <!-- Generator: Sketch 40.3 (33839) - http://www.bohemiancoding.com/sketch -->
    <title>textf</title>
    <desc>Created with Sketch.</desc>
    <defs></defs>
    <g id="Page-1" stroke="none" stroke-width="1" fill="none" fill-rule="evenodd">
        <g id="Screenshot" transform="translate(-234.000000, -184.000000)" fill="#FFFFFF">
            <g id="textf-hp" transform="translate(204.000000, 153.000000)">
                <g id="textf" transform="translate(30.000000, 31.000000)">
                    <g id="Group">
                        <path d="M2.04,21.541125 C1.84275,21.541125 1.64925,21.463125 1.506,21.317625 C1.30575,21.11475 1.237875,20.815875 1.330875,20.54625 L2.60925,16.84275 C0.927375,15.033375 0.007125,12.785625 0.007125,10.464 C0.007125,4.809375 5.38725,0.2085 11.999625,0.2085 C18.612,0.2085 23.992125,4.809375 23.992125,10.464 C23.992125,16.118625 18.61275,20.7195 12,20.7195 C10.3395,20.7195 8.73375,20.4345 7.2225,19.872375 L2.275125,21.50325 C2.197875,21.52875 2.11875,21.541125 2.04,21.541125 L2.04,21.541125 Z M12,1.708875 C6.214125,1.708875 1.5075,5.636625 1.5075,10.464375 C1.5075,12.529875 2.391,14.53725 3.995625,16.117125 C4.2015,16.319625 4.272375,16.623 4.17825,16.896 L3.243375,19.605 L7.006875,18.364125 C7.173375,18.309 7.354125,18.31425 7.517625,18.379125 C8.926875,18.93675 10.43475,19.2195 12,19.2195 C17.785875,19.2195 22.4925,15.29175 22.4925,10.464 C22.4925,5.63625 17.785875,1.708875 12,1.708875 L12,1.708875 Z" id="Shape"></path>
                    </g>
                </g>
            </g>
        </g>
    </g>
</svg>