<?xml version="1.0" encoding="UTF-8"?>
<svg width="30px" height="16px" viewBox="0 0 30 16" version="1.1" xmlns="http://www.w3.org/2000/svg" xmlns:xlink="http://www.w3.org/1999/xlink">
    <!-- Generator: Sketch 40.3 (33839) - http://www.bohemiancoding.com/sketch -->
    <title>url</title>
    <desc>Created with Sketch.</desc>
    <defs></defs>
    <g id="Page-1" stroke="none" stroke-width="1" fill="none" fill-rule="evenodd">
        <g id="Screenshot" transform="translate(-113.000000, -187.000000)" fill="#FFFFFF">
            <g id="url-hp" transform="translate(86.000000, 153.000000)">
                <g id="url" transform="translate(27.000000, 34.000000)">
                    <g id="Group">
                        <path d="M16.2014063,10.9064063 C16.5464063,10.8360938 16.8871875,10.7301563 17.214375,10.591875 C17.5345313,10.4564063 17.8425,10.2890625 18.1298438,10.095 C18.4134375,9.90421875 18.6820313,9.6825 18.9276563,9.43734375 C19.1714063,9.19359375 19.3926563,8.92546875 19.5857813,8.63953125 C19.7803125,8.35171875 19.9471875,8.04375 20.083125,7.7240625 C20.2204688,7.39921875 20.3264063,7.0584375 20.3976563,6.71109375 C20.4703125,6.35578125 20.506875,5.990625 20.506875,5.62546875 C20.506875,5.2603125 20.4698438,4.8946875 20.3971875,4.53984375 C20.3259375,4.1925 20.2204688,3.85171875 20.0826563,3.52640625 C19.9471875,3.2071875 19.7798438,2.89921875 19.5857813,2.61140625 C19.3921875,2.32546875 19.1709375,2.056875 18.9276563,1.81359375 C18.6820313,1.5684375 18.4134375,1.34671875 18.1307813,1.15640625 C17.8429688,0.961875 17.535,0.795 17.214375,0.6590625 C16.8871875,0.52078125 16.5464063,0.41484375 16.2014063,0.34453125 C15.845625,0.271875 15.4804688,0.2353125 15.11625,0.2353125 L5.74125,0.2353125 C5.37703125,0.2353125 5.011875,0.271875 4.65609375,0.34453125 C4.31109375,0.41484375 3.9703125,0.52078125 3.643125,0.6590625 C3.32296875,0.79453125 3.015,0.961875 2.72765625,1.1559375 C2.4440625,1.34671875 2.17546875,1.5684375 1.92984375,1.81359375 C1.68609375,2.05734375 1.46484375,2.32546875 1.27171875,2.61140625 C1.0771875,2.89921875 0.9103125,3.2071875 0.774375,3.526875 C0.63703125,3.85171875 0.53109375,4.1925 0.45984375,4.53984375 C0.3871875,4.89515625 0.350625,5.2603125 0.350625,5.62546875 C0.350625,5.990625 0.38765625,6.35625 0.4603125,6.71109375 C0.5315625,7.0584375 0.63703125,7.39921875 0.77484375,7.72453125 C0.9103125,8.04375 1.07765625,8.35171875 1.27171875,8.63953125 C1.4653125,8.92546875 1.6865625,9.1940625 1.92984375,9.43734375 C2.17546875,9.6825 2.4440625,9.90421875 2.72671875,10.0945313 C3.01453125,10.2890625 3.3225,10.4559375 3.643125,10.591875 C3.9703125,10.7301563 4.31109375,10.8360938 4.65609375,10.9064063 C5.011875,10.9790625 5.37703125,11.015625 5.74125,11.015625 L15.11625,11.015625 C15.4804688,11.015625 15.845625,10.9790625 16.2014063,10.9064063 L16.2014063,10.9064063 Z M4.936875,9.52828125 C4.6828125,9.47671875 4.4315625,9.3984375 4.19015625,9.29625 C3.95390625,9.19640625 3.7265625,9.07265625 3.5128125,8.92875 C3.30375,8.788125 3.10546875,8.62453125 2.923125,8.4421875 C2.743125,8.26265625 2.57953125,8.06390625 2.4365625,7.85203125 C2.29265625,7.63921875 2.16890625,7.41140625 2.0690625,7.175625 C1.9678125,6.9365625 1.89,6.6853125 1.8375,6.42890625 C1.78359375,6.16640625 1.75640625,5.8959375 1.75640625,5.625 C1.75640625,5.3540625 1.78359375,5.08359375 1.83703125,4.82109375 C1.88953125,4.5646875 1.9678125,4.3134375 2.06859375,4.07484375 C2.16890625,3.83859375 2.29265625,3.61078125 2.4365625,3.39796875 C2.57953125,3.18609375 2.743125,2.98734375 2.923125,2.8078125 C3.10546875,2.62546875 3.30375,2.461875 3.51375,2.32078125 C3.7265625,2.176875 3.95390625,2.05359375 4.19015625,1.95375 C4.4315625,1.8515625 4.6828125,1.77328125 4.936875,1.72171875 C5.2003125,1.66828125 5.47078125,1.640625 5.74078125,1.640625 L15.1157813,1.640625 C15.3857813,1.640625 15.65625,1.66828125 15.9196875,1.72171875 C16.17375,1.77328125 16.425,1.8515625 16.6664063,1.95375 C16.9026563,2.05359375 17.13,2.17734375 17.34375,2.32125 C17.5528125,2.461875 17.7510938,2.62546875 17.9334375,2.8078125 C18.1134375,2.98734375 18.2770313,3.18609375 18.42,3.39796875 C18.5639063,3.61078125 18.6876563,3.83859375 18.7875,4.074375 C18.88875,4.3134375 18.9665625,4.5646875 19.0190625,4.82109375 C19.0729688,5.08359375 19.1001563,5.3540625 19.1001563,5.625 C19.1001563,5.8959375 19.0729688,6.16640625 19.0195313,6.42890625 C18.9670313,6.6853125 18.88875,6.9365625 18.7879688,7.17515625 C18.6876563,7.41140625 18.5639063,7.63921875 18.42,7.85203125 C18.2770313,8.06390625 18.1134375,8.26265625 17.9334375,8.4421875 C17.7510938,8.62453125 17.5528125,8.788125 17.3428125,8.92921875 C17.13,9.073125 16.9026563,9.19640625 16.6664063,9.29625 C16.425,9.3984375 16.17375,9.47671875 15.9196875,9.52828125 C15.65625,9.58171875 15.3857813,9.609375 15.1157813,9.609375 L5.74078125,9.609375 C5.47078125,9.609375 5.2003125,9.58171875 4.936875,9.52828125 L4.936875,9.52828125 Z" id="Shape"></path>
                        <path d="M29.5401562,9.226875 C29.4689062,8.87953125 29.3634375,8.53875 29.225625,8.2134375 C29.0901562,7.89421875 28.9228125,7.58625 28.72875,7.2984375 C28.5351562,7.0125 28.3139062,6.74390625 28.070625,6.500625 C27.825,6.25546875 27.5564062,6.03375 27.27375,5.8434375 C26.9859375,5.64890625 26.6779687,5.48203125 26.3573437,5.34609375 C26.0301562,5.2078125 25.689375,5.101875 25.344375,5.0315625 C24.9885937,4.95890625 24.6234375,4.92234375 24.2592187,4.92234375 L21.9154687,4.92234375 C21.526875,4.92234375 21.2123437,5.23734375 21.2123437,5.62546875 C21.2123437,6.01359375 21.526875,6.32859375 21.9154687,6.32859375 L24.2592187,6.32859375 C24.5292187,6.32859375 24.7996875,6.35625 25.063125,6.4096875 C25.3171875,6.46125 25.5684375,6.53953125 25.8098437,6.64171875 C26.0460937,6.7415625 26.2734375,6.8653125 26.4871875,7.00921875 C26.69625,7.14984375 26.8945312,7.3134375 27.076875,7.49578125 C27.256875,7.6753125 27.4204687,7.8740625 27.5634375,8.0859375 C27.7073437,8.29875 27.8310937,8.5265625 27.9309375,8.76234375 C28.0321875,9.00140625 28.11,9.25265625 28.1625,9.5090625 C28.2164062,9.7715625 28.2435937,10.0420313 28.2435937,10.3129688 C28.2435937,10.5839063 28.2164062,10.854375 28.1629687,11.116875 C28.1104687,11.3732813 28.0321875,11.6245313 27.9314062,11.863125 C27.8310937,12.099375 27.7073437,12.3271875 27.5634375,12.54 C27.4204687,12.751875 27.256875,12.950625 27.076875,13.1301563 C26.8945312,13.3125 26.69625,13.4760938 26.48625,13.6171875 C26.2734375,13.7610938 26.0460937,13.884375 25.8098437,13.9842188 C25.5684375,14.0864063 25.3171875,14.1646875 25.063125,14.21625 C24.7996875,14.2696875 24.5292187,14.2973438 24.2592187,14.2973438 L15.11625,14.2973438 C14.84625,14.2973438 14.5757812,14.2696875 14.3123437,14.21625 C14.0582812,14.1646875 13.8070312,14.0864063 13.565625,13.9842188 C13.329375,13.884375 13.1020312,13.760625 12.8882812,13.6167188 C12.6792187,13.4760938 12.4809375,13.3125 12.2985937,13.1301563 C12.1185937,12.950625 11.955,12.751875 11.8120312,12.54 C11.668125,12.3271875 11.544375,12.099375 11.4440625,11.863125 C11.2926562,11.5054688 10.8796875,11.3385938 10.5225,11.4904688 C10.1648437,11.641875 9.99796875,12.0548438 10.1498437,12.4125 C10.2853125,12.7317188 10.4526562,13.0396875 10.6467187,13.3275 C10.8403125,13.6134375 11.0615625,13.8820313 11.3048437,14.1253125 C11.5504687,14.3704688 11.8190625,14.5921875 12.1017187,14.7825 C12.3895312,14.9770313 12.6979687,15.1439063 13.018125,15.2798438 C13.3453125,15.418125 13.6860937,15.5240625 14.0310937,15.594375 C14.386875,15.6670313 14.7520312,15.7035938 15.11625,15.7035938 L24.2592187,15.7035938 C24.6234375,15.7035938 24.9885937,15.6670313 25.344375,15.594375 C25.689375,15.5240625 26.0301562,15.418125 26.3573437,15.2798438 C26.6775,15.144375 26.9854687,14.9770313 27.2728125,14.7829688 C27.5564062,14.5921875 27.825,14.3704688 28.070625,14.1253125 C28.314375,13.8815625 28.535625,13.6134375 28.72875,13.3275 C28.9232812,13.0396875 29.0901562,12.7317188 29.2260937,12.4120313 C29.3634375,12.0871875 29.469375,11.7464063 29.540625,11.3990625 C29.6132812,11.04375 29.6498437,10.6785938 29.6498437,10.3134375 C29.6498437,9.94828125 29.6128125,9.58171875 29.5401562,9.226875 L29.5401562,9.226875 Z" id="Shape"></path>
                        <path d="M17.46,6.328125 C17.8485937,6.328125 18.163125,6.013125 18.163125,5.625 C18.163125,5.236875 17.8485937,4.921875 17.46,4.921875 L15.11625,4.921875 C14.7520312,4.921875 14.386875,4.9584375 14.0310937,5.03109375 C13.6860937,5.10140625 13.3453125,5.20734375 13.018125,5.345625 C12.6979687,5.48109375 12.39,5.6484375 12.1026562,5.8425 C11.8190625,6.03328125 11.5504687,6.255 11.3048437,6.50015625 C11.0610937,6.74390625 10.8398437,7.01203125 10.6467187,7.29796875 C10.4521875,7.58578125 10.2853125,7.89375 10.1498437,8.21296875 C9.99796875,8.570625 10.1653125,8.98359375 10.5225,9.135 C10.6120312,9.17296875 10.7053125,9.19078125 10.7967187,9.19078125 C11.0704687,9.19078125 11.330625,9.03 11.4440625,8.76234375 C11.544375,8.52609375 11.668125,8.29828125 11.8120312,8.08546875 C11.955,7.87359375 12.1185937,7.67484375 12.2985937,7.4953125 C12.4809375,7.31296875 12.6792187,7.149375 12.8892187,7.00828125 C13.1020312,6.864375 13.329375,6.74109375 13.565625,6.64125 C13.8070312,6.5390625 14.0582812,6.46078125 14.3123437,6.40921875 C14.5757812,6.35578125 14.84625,6.328125 15.11625,6.328125 L17.46,6.328125 L17.46,6.328125 Z" id="Shape"></path>
                    </g>
                </g>
            </g>
        </g>
    </g>
</svg>