<?xml version="1.0" encoding="UTF-8"?>
<svg width="24px" height="24px" viewBox="0 0 24 24" version="1.1" xmlns="http://www.w3.org/2000/svg" xmlns:xlink="http://www.w3.org/1999/xlink">
    <!-- Generator: Sketch 40.3 (33839) - http://www.bohemiancoding.com/sketch -->
    <title>video</title>
    <desc>Created with Sketch.</desc>
    <defs></defs>
    <g id="Page-1" stroke="none" stroke-width="1" fill="none" fill-rule="evenodd">
        <g id="Screenshot" transform="translate(-403.000000, -43.000000)" fill="#FFFFFF">
            <g id="video-hp" transform="translate(373.000000, 13.000000)">
                <g id="video" transform="translate(30.000000, 30.000000)">
                    <g id="Shape">
                        <path d="M11.7285068,23.1554542 C5.26140814,23.1554542 0,17.9614542 0,11.5777271 C0,5.19376837 5.26140814,0 11.7285068,0 C18.1956054,0 23.4570136,5.19376837 23.4570136,11.5777271 C23.4570136,17.9614542 18.1956054,23.1554542 11.7285068,23.1554542 L11.7285068,23.1554542 Z M11.7285068,0.792842751 C5.70427656,0.792842751 0.803168145,5.63071179 0.803168145,11.5777271 C0.803168145,17.5245108 5.70427656,22.3626114 11.7285068,22.3626114 C17.752737,22.3626114 22.6538454,17.5242793 22.6538454,11.5777271 C22.6538454,5.63071179 17.752737,0.792842751 11.7285068,0.792842751 L11.7285068,0.792842751 Z"></path>
                        <path d="M11.7285068,8.98755798 C9.98658896,8.98755798 8.56955077,7.588737 8.56955077,5.86921297 C8.56955077,4.14968894 9.98658896,2.75109951 11.7285068,2.75109951 C13.4704246,2.75109951 14.8874628,4.1499205 14.8874628,5.86944452 C14.8874628,7.58896855 13.4704246,8.98755798 11.7285068,8.98755798 L11.7285068,8.98755798 Z M11.7285068,3.54394226 C10.4294574,3.54394226 9.37271891,4.58709547 9.37271891,5.86944452 C9.37271891,7.15179358 10.4294574,8.19494679 11.7285068,8.19494679 C13.0275562,8.19494679 14.0842947,7.15179358 14.0842947,5.86944452 C14.0842947,4.58709547 13.0275562,3.54394226 11.7285068,3.54394226 L11.7285068,3.54394226 Z"></path>
                        <path d="M11.7285068,20.2723686 C9.98658896,20.2723686 8.56955077,18.873316 8.56955077,17.1540236 C8.56955077,15.4344995 9.98682353,14.0356785 11.7285068,14.0356785 C13.47019,14.0356785 14.8874628,15.4344995 14.8874628,17.1540236 C14.8874628,18.873316 13.4704246,20.2723686 11.7285068,20.2723686 L11.7285068,20.2723686 Z M11.7285068,14.8285213 C10.4294574,14.8285213 9.37271891,15.8716745 9.37271891,17.1540236 C9.37271891,18.4361411 10.4296919,19.4795258 11.7285068,19.4795258 C13.0275562,19.4795258 14.0842947,18.4361411 14.0842947,17.1540236 C14.0842947,15.8716745 13.0275562,14.8285213 11.7285068,14.8285213 L11.7285068,14.8285213 Z"></path>
                        <path d="M17.5646118,14.6960721 C15.8226939,14.6960721 14.4054212,13.2972511 14.4054212,11.5777271 C14.4054212,9.85820306 15.8226939,8.45938207 17.5646118,8.45938207 C19.3067642,8.45938207 20.7238024,9.85820306 20.7238024,11.5777271 C20.7238024,13.2972511 19.3067642,14.6960721 17.5646118,14.6960721 L17.5646118,14.6960721 Z M17.5646118,9.25222482 C16.2657969,9.25222482 15.2088239,10.295378 15.2088239,11.5777271 C15.2088239,12.8600761 16.2657969,13.9032293 17.5646118,13.9032293 C18.8636612,13.9032293 19.9206342,12.8600761 19.9206342,11.5777271 C19.9206342,10.295378 18.8636612,9.25222482 17.5646118,9.25222482 L17.5646118,9.25222482 Z"></path>
                        <path d="M6.21188633,14.6960721 C4.46996851,14.6960721 3.05293032,13.2972511 3.05293032,11.5777271 C3.05293032,9.85820306 4.47020308,8.45938207 6.21188633,8.45938207 C7.95380416,8.45938207 9.37084235,9.85820306 9.37084235,11.5777271 C9.37084235,13.2972511 7.95380416,14.6960721 6.21188633,14.6960721 L6.21188633,14.6960721 Z M6.21188633,9.25222482 C4.91283692,9.25222482 3.85609846,10.295378 3.85609846,11.5777271 C3.85609846,12.8600761 4.91283692,13.9032293 6.21188633,13.9032293 C7.51093575,13.9032293 8.56767421,12.8600761 8.56767421,11.5777271 C8.56767421,10.295378 7.51093575,9.25222482 6.21188633,9.25222482 L6.21188633,9.25222482 Z"></path>
                        <path d="M11.7285068,13.0047977 C10.9314375,13.0047977 10.282851,12.3645494 10.282851,11.5777271 C10.282851,10.7909048 10.9314375,10.1506564 11.7285068,10.1506564 C12.5255761,10.1506564 13.1741625,10.7909048 13.1741625,11.5777271 C13.1741625,12.3645494 12.5255761,13.0047977 11.7285068,13.0047977 L11.7285068,13.0047977 Z M11.7285068,10.9434992 C11.3743059,10.9434992 11.0860192,11.2280797 11.0860192,11.5777271 C11.0860192,11.9273744 11.3743059,12.211955 11.7285068,12.211955 C12.0827077,12.211955 12.3709944,11.9273744 12.3709944,11.5777271 C12.3709944,11.2280797 12.0827077,10.9434992 11.7285068,10.9434992 L11.7285068,10.9434992 Z"></path>
                        <path d="M12.2105484,23.1505915 L1.93027765,23.1505915 C1.7083743,23.1505915 1.52869357,22.9729892 1.52869357,22.7541702 C1.52869357,22.5353511 1.7083743,22.3577488 1.93027765,22.3577488 L12.2105484,22.3577488 C12.4322172,22.3577488 12.6121325,22.5353511 12.6121325,22.7541702 C12.6121325,22.9729892 12.4322172,23.1505915 12.2105484,23.1505915 L12.2105484,23.1505915 Z"></path>
                    </g>
                </g>
            </g>
        </g>
    </g>
</svg>