<?xml version="1.0" encoding="UTF-8"?>
<svg width="40px" height="55px" viewBox="0 0 40 55" version="1.1" xmlns="http://www.w3.org/2000/svg" xmlns:xlink="http://www.w3.org/1999/xlink">
    <!-- Generator: Sketch 46.2 (44496) - http://www.bohemiancoding.com/sketch -->
    <title>Fill 1 Copy</title>
    <desc>Created with Sketch.</desc>
    <defs></defs>
    <g id="Concept-02" stroke="none" stroke-width="1" fill="none" fill-rule="evenodd">
        <g id="M-Location" transform="translate(-188.000000, -346.000000)" fill="#161616">
            <path d="M207.998512,373.053432 C204.002139,373.053432 200.762638,369.828773 200.762638,365.850709 C200.762638,361.872645 204.002139,358.647986 207.998512,358.647986 C211.994161,358.647986 215.234385,361.872645 215.234385,365.850709 C215.234385,369.828773 211.994161,373.053432 207.998512,373.053432 M207.998512,346.000004 C196.960911,345.992802 188.007241,354.893927 188.000005,365.88096 C187.997835,368.818951 188.649787,371.720928 189.908829,374.378733 C190.305355,375.19048 190.759767,375.972696 191.269173,376.719618 L207.318339,400.639861 C207.468846,400.863145 207.720654,400.998557 207.991276,400.999997 C208.264068,401.000717 208.519494,400.865306 208.671448,400.639861 L224.590369,376.870875 C225.180816,376.028157 225.70614,375.142222 226.160553,374.220273 C230.779935,364.241621 226.399337,352.424833 216.374035,347.826615 C213.748136,346.621599 210.889966,345.998564 207.998512,346.000004" id="Fill-1-Copy"></path>
        </g>
    </g>
</svg>