<?xml version="1.0" encoding="UTF-8"?>
<svg width="33px" height="33px" viewBox="0 0 33 33" version="1.1" xmlns="http://www.w3.org/2000/svg" xmlns:xlink="http://www.w3.org/1999/xlink">
    <!-- Generator: Sketch 43.1 (39012) - http://www.bohemiancoding.com/sketch -->
    <title>down</title>
    <desc>Created with Sketch.</desc>
    <defs></defs>
    <g id="Page-1" stroke="none" stroke-width="1" fill="none" fill-rule="evenodd">
        <g id="down">
            <g id="Group">
                <g id="a-link" fill-rule="nonzero" fill="#FFFFFF" fill-opacity="0">
                    <rect id="a" x="0" y="0" width="33" height="33" rx="4"></rect>
                </g>
                <rect id="Rectangle-path" stroke="#8B8B8B" stroke-width="0.01" x="0.005" y="0.005" width="32.99" height="32.99" rx="4"></rect>
            </g>
            <g id="Group" transform="translate(5.000000, 4.000000)" fill-rule="nonzero">
                <path d="M11.997,6.916 C12.352,6.916 12.636,7.207 12.636,7.572 L12.636,16.657 L14.906,14.325 C15.166,14.058 15.568,14.058 15.805,14.325 C16.065,14.592 16.065,15.005 15.805,15.248 L12.446,18.722 C12.3280489,18.8437474 12.166496,18.9135498 11.997,18.916 C11.8271558,18.9138146 11.6651945,18.8439914 11.547,18.722 L8.189,15.272 C8.06934365,15.148171 8.00170377,14.983187 8,14.811 C8,14.641 8.07,14.471 8.19,14.349 C8.45,14.082 8.851,14.082 9.088,14.349 L11.358,16.681 L11.358,7.571 C11.358,7.207 11.642,6.916 11.998,6.916 L11.997,6.916 Z" id="Shape" fill="#424251"></path>
                <path d="M19.832,23.552 C21.3783286,23.5465146 22.6305146,22.2943286 22.636,20.748 L22.636,5.084 C22.6305146,3.5376714 21.3783286,2.28548543 19.832,2.28 L4.168,2.28 C2.6216714,2.28548543 1.36948543,3.5376714 1.364,5.084 L1.364,20.748 C1.36948543,22.2943286 2.6216714,23.5465146 4.168,23.552 L19.832,23.552 L19.832,23.552 Z M0,20.748 L0,5.084 C0.00275509896,2.78321933 1.86721933,0.918755099 4.168,0.916 L19.832,0.916 C22.1327807,0.918755099 23.9972449,2.78321933 24,5.084 L24,20.748 C23.9977949,23.0490088 22.1330088,24.9137949 19.832,24.916 L4.168,24.916 C1.87,24.916 0,23.046 0,20.748 Z" id="Shape" fill="#28324E"></path>
            </g>
        </g>
    </g>
</svg>