<svg xmlns="http://www.w3.org/2000/svg" xmlns:xlink="http://www.w3.org/1999/xlink" width="33" height="33" viewBox="0 0 33 33">
    <defs>
        <rect id="a" width="33" height="33" rx="4"/>
    </defs>
    <g fill="none" fill-rule="evenodd">
        <g>
            <use fill="#FFF" fill-opacity="0" xlink:href="#a"/>
            <rect width="32.99" height="32.99" x=".005" y=".005" stroke="#8B8B8B" stroke-width=".01" rx="4"/>
        </g>
        <g fill-rule="nonzero">
            <path fill="#28324E" d="M24.832 27.552a2.814 2.814 0 0 0 2.804-2.804V9.084a2.814 2.814 0 0 0-2.804-2.804H9.168a2.814 2.814 0 0 0-2.804 2.804v15.664a2.814 2.814 0 0 0 2.804 2.804h15.664zM5 24.748V9.084a4.173 4.173 0 0 1 4.168-4.168h15.664A4.173 4.173 0 0 1 29 9.084v15.664a4.172 4.172 0 0 1-4.168 4.168H9.168C6.87 28.916 5 27.046 5 24.748z"/>
            <path fill="#424251" stroke="#424251" stroke-width=".5" d="M10.347 24.148h3.257c.22 0 .397.172.396.384a.39.39 0 0 1-.396.384H9.396a.402.402 0 0 1-.28-.113.377.377 0 0 1-.116-.27V20.3c0-.107.045-.202.116-.272a.398.398 0 0 1 .28-.112c.219 0 .396.171.395.384V23.6l3.018-2.926a.4.4 0 0 1 .28-.112c.102 0 .203.037.28.112a.375.375 0 0 1 0 .542l-3.022 2.931zM9.608 10.263v3.257c0 .22-.012.397-.224.396A.39.39 0 0 1 9 13.52V9.312c0-.105.04-.206.113-.28a.377.377 0 0 1 .27-.116h4.233c.107 0 .202.045.272.116.07.072.112.006.112.115a.389.389 0 0 1-.384.396h-3.301l2.926 3.018c.075.078.112.343.112.445a.398.398 0 0 1-.112.28.374.374 0 0 1-.542 0l-2.931-3.023h-.16zM23.653 24.148h-3.257a.389.389 0 0 0-.396.384.39.39 0 0 0 .396.384h4.208c.105 0 .206-.04.28-.113a.377.377 0 0 0 .116-.27V20.3a.377.377 0 0 0-.116-.272.398.398 0 0 0-.28-.112.389.389 0 0 0-.395.384V23.6l-3.018-2.926a.4.4 0 0 0-.28-.112.398.398 0 0 0-.28.112.374.374 0 0 0 0 .542l3.022 2.931zM24.392 10.263v3.257c0 .22.012.397.224.396A.39.39 0 0 0 25 13.52V9.312a.402.402 0 0 0-.113-.28.377.377 0 0 0-.27-.116h-4.233a.376.376 0 0 0-.272.116c-.07.072-.113.006-.112.115 0 .22.171.397.384.396h3.301l-2.926 3.018c-.075.078-.112.343-.112.445 0 .101.037.202.112.28.15.154.393.154.542 0l2.931-3.023h.16z"/>
        </g>
    </g>
</svg>
