<?xml version="1.0" encoding="UTF-8"?>
<svg width="191px" height="190px" viewBox="0 0 191 190" version="1.1" xmlns="http://www.w3.org/2000/svg" xmlns:xlink="http://www.w3.org/1999/xlink">
    <!-- Generator: Sketch 40.3 (33839) - http://www.bohemiancoding.com/sketch -->
    <title>next</title>
    <desc>Created with Sketch.</desc>
    <defs></defs>
    <g id="Page-1" stroke="none" stroke-width="1" fill="none" fill-rule="evenodd">
        <g id="next" fill="#000000">
            <circle id="Oval" cx="52.178453" cy="49.0262752" r="5.02627517"></circle>
            <ellipse id="Oval" cx="67.1051007" cy="64.2572785" rx="5.02627517" ry="5.02627517"></ellipse>
            <ellipse id="Oval" cx="67.1051007" cy="49.0262752" rx="5.02627517" ry="5.02627517"></ellipse>
            <circle id="Oval" cx="82.3367819" cy="64.2572785" r="5.02627517"></circle>
            <ellipse id="Oval" cx="82.3367819" cy="79.1839262" rx="5.02627517" ry="5.02627517"></ellipse>
            <ellipse id="Oval" cx="82.3367819" cy="49.0262752" rx="5.02627517" ry="5.02627517"></ellipse>
            <circle id="Oval" cx="97.2634295" cy="64.2572785" r="5.02627517"></circle>
            <ellipse id="Oval" cx="97.2634295" cy="79.1839262" rx="5.02627517" ry="5.02627517"></ellipse>
            <ellipse id="Oval" cx="97.2634295" cy="49.0262752" rx="5.02627517" ry="5.02627517"></ellipse>
            <circle id="Oval" cx="112.190077" cy="64.2572785" r="5.02627517"></circle>
            <ellipse id="Oval" cx="112.190077" cy="79.1839262" rx="5.02627517" ry="5.02627517"></ellipse>
            <circle id="Oval" cx="97.2634295" cy="94.1109128" r="5.02627517"></circle>
            <circle id="Oval" cx="112.190077" cy="94.1109128" r="5.02627517"></circle>
            <ellipse id="Oval" cx="82.3367819" cy="109.341577" rx="5.02661409" ry="5.02661409"></ellipse>
            <circle id="Oval" cx="97.2634295" cy="109.341577" r="5.02661409"></circle>
            <circle id="Oval" cx="112.190077" cy="109.341577" r="5.02661409"></circle>
            <circle id="Oval" cx="67.1051007" cy="124.287205" r="5.02627517"></circle>
            <ellipse id="Oval" cx="82.3367819" cy="124.287205" rx="5.02627517" ry="5.02627517"></ellipse>
            <ellipse id="Oval" cx="97.2634295" cy="124.287205" rx="5.02627517" ry="5.02627517"></ellipse>
            <ellipse id="Oval" cx="112.190077" cy="124.287205" rx="5.02627517" ry="5.02627517"></ellipse>
            <ellipse id="Oval" cx="127.745094" cy="79.1839262" rx="5.02627517" ry="5.02627517"></ellipse>
            <ellipse id="Oval" cx="127.745094" cy="94.1109128" rx="5.02627517" ry="5.02627517"></ellipse>
            <ellipse id="Oval" cx="127.745094" cy="109.341577" rx="5.02661409" ry="5.02661409"></ellipse>
            <ellipse id="Oval" cx="52.178453" cy="139.842221" rx="5.02661409" ry="5.02661409"></ellipse>
            <ellipse id="Oval" cx="67.1051007" cy="139.842221" rx="5.02661409" ry="5.02661409"></ellipse>
            <ellipse id="Oval" cx="82.3367819" cy="139.842221" rx="5.02661409" ry="5.02661409"></ellipse>
            <ellipse id="Oval" cx="97.2634295" cy="139.842221" rx="5.02661409" ry="5.02661409"></ellipse>
            <ellipse id="Oval" cx="142.690383" cy="94.1109128" rx="5.02627517" ry="5.02627517"></ellipse>
            <path d="M157.411973,179.200083 C169.594203,179.200083 179.579784,169.199222 179.579784,156.999639 L179.579784,33.0003611 C179.579784,20.8007778 169.594203,10.7999167 157.411973,10.7999167 L33.5885541,10.7999167 C21.4052703,10.7999167 11.4202162,20.8007778 11.4202162,33.0003611 L11.4202162,156.999639 C11.4202162,169.199222 21.4052703,179.200083 33.5885541,179.200083 L157.411973,179.200083 L157.411973,179.200083 L157.411973,179.200083 Z M0.635135135,156.999639 L0.635135135,33.0003611 C0.635135135,14.8004722 15.4135,0 33.5885541,0 L157.411973,0 C175.5865,0 190.364865,14.8004722 190.364865,33.0003611 L190.364865,156.999639 C190.364865,175.200056 175.5865,190 157.411973,190 L33.5885541,190 C15.4135,190 0.635135135,175.200056 0.635135135,156.999639 L0.635135135,156.999639 L0.635135135,156.999639 Z" id="Shape"></path>
        </g>
    </g>
</svg>