<svg xmlns="http://www.w3.org/2000/svg" xmlns:xlink="http://www.w3.org/1999/xlink" width="33" height="33" viewBox="0 0 33 33">
    <defs>
        <rect id="a" width="33" height="33" rx="4"/>
    </defs>
    <g fill="none" fill-rule="evenodd">
        <g>
            <use fill="#FFF" fill-opacity="0" xlink:href="#a"/>
            <rect width="32.99" height="32.99" x=".005" y=".005" stroke="#8B8B8B" stroke-width=".01" rx="4"/>
        </g>
        <g fill-rule="nonzero">
            <path fill="#424251" d="M11 16.997c0 .355.316.639.71.639h9.843l-2.527 2.27c-.29.26-.29.662 0 .899.29.26.737.26 1 0l3.763-3.359a.616.616 0 0 0 .211-.449.616.616 0 0 0-.21-.45l-3.737-3.358a.761.761 0 0 0-.5-.189.761.761 0 0 0-.5.19c-.29.26-.29.661 0 .898l2.526 2.27H11.71c-.395 0-.711.284-.711.64z"/>
            <path fill="#28324E" d="M24.832 27.636a2.814 2.814 0 0 0 2.804-2.804V9.168a2.814 2.814 0 0 0-2.804-2.804H9.168a2.814 2.814 0 0 0-2.804 2.804v15.664a2.814 2.814 0 0 0 2.804 2.804h15.664zM5 24.832V9.168A4.173 4.173 0 0 1 9.168 5h15.664A4.173 4.173 0 0 1 29 9.168v15.664A4.172 4.172 0 0 1 24.832 29H9.168C6.87 29 5 27.13 5 24.832z"/>
        </g>
    </g>
</svg>
