<svg xmlns="http://www.w3.org/2000/svg" xmlns:xlink="http://www.w3.org/1999/xlink" width="33" height="33" viewBox="0 0 33 33">
    <defs>
        <rect id="a" width="33" height="33" rx="4"/>
    </defs>
    <g fill="none" fill-rule="evenodd">
        <g>
            <use fill="#FFF" fill-opacity="0" xlink:href="#a"/>
            <rect width="32.99" height="32.99" x=".005" y=".005" stroke="#8B8B8B" stroke-width=".01" rx="4"/>
        </g>
        <g fill-rule="nonzero">
            <path fill="#28324E" d="M24.832 27.552a2.814 2.814 0 0 0 2.804-2.804V9.084a2.814 2.814 0 0 0-2.804-2.804H9.168a2.814 2.814 0 0 0-2.804 2.804v15.664a2.814 2.814 0 0 0 2.804 2.804h15.664zM5 24.748V9.084a4.173 4.173 0 0 1 4.168-4.168h15.664A4.173 4.173 0 0 1 29 9.084v15.664a4.172 4.172 0 0 1-4.168 4.168H9.168C6.87 28.916 5 27.046 5 24.748z"/>
            <path fill="#424251" stroke="#424251" stroke-width=".75" d="M8.692 19.143h2.539l5.077 3.5V11.19l-5.077 3.5H8.692v4.454zM17 23.916l-6-4.136H8v-5.728h3l6-4.136v14z"/>
            <path fill="#424251" d="M22.243 16.595l-1.558-1.558a.399.399 0 0 0-.564.564l1.558 1.558-1.558 1.557a.399.399 0 0 0 .564.564l1.558-1.558L23.8 19.28a.399.399 0 0 0 .564-.564l-1.558-1.557 1.558-1.558a.399.399 0 0 0-.564-.564l-1.557 1.558z"/>
        </g>
    </g>
</svg>
