<svg xmlns="http://www.w3.org/2000/svg" xmlns:xlink="http://www.w3.org/1999/xlink" width="33" height="33" viewBox="0 0 33 33">
    <defs>
        <rect id="a" width="33" height="33" rx="4"/>
    </defs>
    <g fill="none" fill-rule="evenodd">
        <g>
            <use fill="#FFF" fill-opacity="0" xlink:href="#a"/>
            <rect width="32.99" height="32.99" x=".005" y=".005" stroke="#8B8B8B" stroke-width=".01" rx="4"/>
        </g>
        <g fill-rule="nonzero">
            <path fill="#28324E" d="M24.832 27.552a2.814 2.814 0 0 0 2.804-2.804V9.084a2.814 2.814 0 0 0-2.804-2.804H9.168a2.814 2.814 0 0 0-2.804 2.804v15.664a2.814 2.814 0 0 0 2.804 2.804h15.664zM5 24.748V9.084a4.173 4.173 0 0 1 4.168-4.168h15.664A4.173 4.173 0 0 1 29 9.084v15.664a4.172 4.172 0 0 1-4.168 4.168H9.168C6.87 28.916 5 27.046 5 24.748z"/>
            <path fill="#424251" stroke="#424251" stroke-width=".75" d="M8.692 19.143h2.539l5.077 3.5V11.19l-5.077 3.5H8.692v4.454zM17 23.916l-6-4.136H8v-5.728h3l6-4.136v14z"/>
            <path fill="#424251" d="M21.336 11.932a.57.57 0 0 1 .446.071 8.174 8.174 0 0 1 1.828 1.77c1.235 1.639 1.672 3.682 1.21 5.581-.299 1.244-.975 2.422-1.948 3.394a.509.509 0 0 1-.405.167c-.257.012-.484-.192-.47-.404a.355.355 0 0 1 .113-.26c.792-.782 1.373-1.717 1.672-2.713.48-1.538.283-3.214-.535-4.647-.49-.869-1.21-1.644-2.08-2.267a.365.365 0 0 1-.044-.579.475.475 0 0 1 .213-.113z"/>
            <path fill="#424251" d="M20.317 13.931a.505.505 0 0 1 .392.061c.945.677 1.655 1.595 2.01 2.606a4.79 4.79 0 0 1-.198 3.706c-.22.47-.522.91-.885 1.308-.071.076-.138.157-.223.222a.505.505 0 0 1-.592-.029.349.349 0 0 1-.071-.463.856.856 0 0 1 .079-.089c.838-.86 1.307-1.98 1.279-3.101a4.115 4.115 0 0 0-.452-1.824 4.862 4.862 0 0 0-1.493-1.731c-.104-.072-.17-.185-.162-.301-.01-.166.133-.32.316-.365z"/>
            <path fill="#424251" d="M18.483 14.922c.154-.02.317.01.444.073.873.511 1.521 1.211 1.837 1.98.469 1.1.231 2.338-.636 3.311a4.465 4.465 0 0 1-.491.478.694.694 0 0 1-.476.151c-.222.002-.426-.107-.514-.248-.091-.144-.045-.325.108-.44.563-.473.933-1.06 1.046-1.672.099-.57-.006-1.159-.321-1.689-.24-.4-.589-.767-1.03-1.068-.103-.077-.224-.138-.325-.216a.324.324 0 0 1-.103-.375c.063-.145.245-.264.461-.285z"/>
        </g>
    </g>
</svg>
