<svg xmlns="http://www.w3.org/2000/svg" xmlns:xlink="http://www.w3.org/1999/xlink" width="33" height="33" viewBox="0 0 33 33">
    <defs>
        <rect id="a" width="33" height="33" rx="4"/>
    </defs>
    <g fill="none" fill-rule="evenodd">
        <g>
            <use fill="#FFF" fill-opacity="0" xlink:href="#a"/>
            <rect width="32.99" height="32.99" x=".005" y=".005" stroke="#8B8B8B" stroke-width=".01" rx="4"/>
        </g>
        <g fill-rule="nonzero">
            <path fill="#424251" d="M16.997 22.916a.645.645 0 0 0 .639-.656v-9.085l2.27 2.332c.26.267.662.267.899 0 .26-.267.26-.68 0-.923l-3.359-3.474a.638.638 0 0 0-.449-.194.638.638 0 0 0-.45.194l-3.358 3.45a.673.673 0 0 0-.189.461c0 .17.07.34.19.462.26.267.661.267.898 0l2.27-2.332v9.11c0 .364.284.655.64.655z"/>
            <path fill="#28324E" d="M24.832 27.552a2.814 2.814 0 0 0 2.804-2.804V9.084a2.814 2.814 0 0 0-2.804-2.804H9.168a2.814 2.814 0 0 0-2.804 2.804v15.664a2.814 2.814 0 0 0 2.804 2.804h15.664zM5 24.748V9.084a4.173 4.173 0 0 1 4.168-4.168h15.664A4.173 4.173 0 0 1 29 9.084v15.664a4.172 4.172 0 0 1-4.168 4.168H9.168C6.87 28.916 5 27.046 5 24.748z"/>
        </g>
    </g>
</svg>
