<svg xmlns="http://www.w3.org/2000/svg" xmlns:xlink="http://www.w3.org/1999/xlink" width="33" height="33" viewBox="0 0 33 33">
    <defs>
        <rect id="a" width="33" height="33" rx="4"/>
    </defs>
    <g fill="none" fill-rule="evenodd">
        <g>
            <use fill="#FFF" fill-opacity="0" xlink:href="#a"/>
            <rect width="32.99" height="32.99" x=".005" y=".005" stroke="#8B8B8B" stroke-width=".01" rx="4"/>
        </g>
        <g fill-rule="nonzero">
            <path fill="#424251" d="M23 16.75c0 .417-.316.75-.71.75H10.966l-.756-.222A.78.78 0 0 1 10 16.75a.78.78 0 0 1 .21-.528l.73-.222h11.35c.394 0 .71.333.71.75z"/>
            <path fill="#424251" d="M16.75 23c-.417 0-.75-.316-.75-.71V10.966l.222-.756A.78.78 0 0 1 16.75 10a.78.78 0 0 1 .528.21l.222.73v11.35c0 .394-.333.71-.75.71z"/>
            <path fill="#28324E" d="M24.832 27.636a2.814 2.814 0 0 0 2.804-2.804V9.168a2.814 2.814 0 0 0-2.804-2.804H9.168a2.814 2.814 0 0 0-2.804 2.804v15.664a2.814 2.814 0 0 0 2.804 2.804h15.664zM5 24.832V9.168A4.173 4.173 0 0 1 9.168 5h15.664A4.173 4.173 0 0 1 29 9.168v15.664A4.172 4.172 0 0 1 24.832 29H9.168C6.87 29 5 27.13 5 24.832z"/>
        </g>
    </g>
</svg>
