<?xml version="1.0" encoding="UTF-8"?>
<svg width="36px" height="36px" viewBox="0 0 36 36" version="1.1" xmlns="http://www.w3.org/2000/svg" xmlns:xlink="http://www.w3.org/1999/xlink">
    <!-- Generator: Sketch 44.1 (41455) - http://www.bohemiancoding.com/sketch -->
    <title>icon-view-zoom_min</title>
    <desc>Created with Sketch.</desc>
    <defs>
        <linearGradient x1="0%" y1="0%" x2="101.999998%" y2="100.999999%" id="linearGradient-1">
            <stop stop-color="#28324E" offset="0%"></stop>
            <stop stop-color="#534273" offset="100%"></stop>
        </linearGradient>
        <rect id="path-2" x="0" y="0" width="36" height="36" rx="3.15"></rect>
    </defs>
    <g id="General" stroke="none" stroke-width="1" fill="none" fill-rule="evenodd">
        <g id="Editor-View" transform="translate(-1209.000000, -369.000000)">
            <g id="icon-view-zoom_min" transform="translate(1209.000000, 369.000000)">
                <path d="M9.95155809,6.35 L6.35,6.35 L6.35,9.92021972 L9.95155809,6.35 Z" id="Path" stroke="#FFFFFF" stroke-width="0.7" transform="translate(8.400891, 8.380000) scale(-1, -1) translate(-8.400891, -8.380000) "></path>
                <path d="M30.9516487,27.35 L27.35,27.35 L27.35,30.9208451 L30.9516487,27.35 Z" id="Path" stroke="#FFFFFF" stroke-width="0.7"></path>
                <g id="Rectangle-17-Copy-2">
                    <use fill="url(#linearGradient-1)" fill-rule="evenodd" xlink:href="#path-2"></use>
                    <rect stroke-opacity="0.25" stroke="#FFFFFF" stroke-width="1" x="0.5" y="0.5" width="35" height="35" rx="3.15"></rect>
                </g>
                <path d="M9.95155809,6.35 L6.35,6.35 L6.35,9.92021972 L9.95155809,6.35 Z" id="Path" stroke="#FFFFFF" stroke-width="0.7" transform="translate(8.400891, 8.380000) scale(-1, -1) translate(-8.400891, -8.380000) "></path>
                <path d="M30.9516487,27.35 L27.35,27.35 L27.35,30.9208451 L30.9516487,27.35 Z" id="Path" stroke="#FFFFFF" stroke-width="0.7"></path>
                <path d="M21.360156,16.5193878 C21.4707961,16.7607143 21.5150522,17.0239796 21.5150522,17.2872449 C21.5150522,17.3969388 21.4707961,17.4846939 21.4044121,17.572449 C21.338028,17.6382653 21.2273878,17.6821429 21.0946197,17.6821429 C20.9839795,17.6821429 20.8954674,17.6382653 20.8069553,17.572449 C20.7405712,17.4846939 20.6963152,17.3969388 20.6963152,17.2872449 C20.6963152,16.9581633 20.585675,16.6510204 20.3422667,16.4316327 C20.0988584,16.1903061 19.811194,16.0806122 19.4792736,16.0806122 C19.3686335,16.0806122 19.2801213,16.0367347 19.1916092,15.9709184 C19.1252251,15.905102 19.0809691,15.7954082 19.0809691,15.6857143 C19.0809691,15.5760204 19.1252251,15.4663265 19.1916092,15.4005102 C19.2579933,15.3346939 19.3686335,15.2908163 19.4792736,15.2908163 C19.766938,15.2908163 20.0324743,15.3346939 20.2758826,15.4443878 C20.5192909,15.5540816 20.7405712,15.6857143 20.9175954,15.8831633 C21.1167477,16.0586735 21.2495159,16.2780612 21.360156,16.5193878 Z M24.435952,15.2469388 C24.7236163,15.8831633 24.8563845,16.5852041 24.8563845,17.3091837 C24.8563845,18.0331633 24.7236163,18.7352041 24.435952,19.3714286 C24.1482876,20.0076531 23.7721111,20.5780612 23.2852945,21.0607143 C22.7984779,21.5433673 22.2231491,21.9382653 21.5814363,22.2015306 C20.9397235,22.4867347 20.2316266,22.6183673 19.5014016,22.6183673 C18.9703289,22.6183673 18.4613843,22.552551 17.9745677,22.3989796 C17.465623,22.2454082 17.0009344,22.0260204 16.5583738,21.7408163 L13.6596021,24.5928571 C13.57109,24.702551 13.4383218,24.7464286 13.2834256,24.7464286 C13.1949135,24.7464286 13.0842734,24.702551 12.9293772,24.5928571 C12.796609,24.505102 12.6417128,24.3734694 12.5089447,24.2418367 C12.3540485,24.1102041 12.2434083,23.9566327 12.1548962,23.825 C12.0663841,23.6714286 12,23.5617347 12,23.4739796 C12,23.3204082 12.0442561,23.1887755 12.1548962,23.1010204 L15.0315399,20.2270408 C14.7438755,19.7882653 14.5225952,19.327551 14.367699,18.844898 C14.2128028,18.3403061 14.1464188,17.8357143 14.1464188,17.3091837 C14.1464188,16.5852041 14.2791869,15.8831633 14.5668513,15.2469388 C14.8545157,14.6107143 15.2306921,14.0403061 15.7175088,13.5576531 C16.2043254,13.075 16.7796541,12.7020408 17.421367,12.4168367 C18.0630798,12.1316327 18.7490487,12 19.5014016,12 C20.2316266,12 20.9397235,12.1316327 21.5814363,12.4168367 C22.2231491,12.7020408 22.7984779,13.075 23.2852945,13.5576531 C23.7721111,14.0403061 24.1482876,14.5887755 24.435952,15.2469388 Z M23.7721111,17.3091837 C23.7721111,16.7168367 23.661471,16.1903061 23.4180626,15.6637755 C23.1967824,15.1372449 22.88699,14.6984694 22.4886855,14.3035714 C22.112509,13.9086735 21.6478204,13.6234694 21.1167477,13.3821429 C20.585675,13.1627551 20.0324743,13.0530612 19.4571456,13.0530612 C18.8818168,13.0530612 18.3286161,13.1627551 17.7975434,13.3821429 C17.2664708,13.6015306 16.8239102,13.9086735 16.4477337,14.3035714 C16.0494292,14.6984694 15.7617648,15.1372449 15.5183565,15.6637755 C15.2970762,16.1683673 15.1643081,16.7168367 15.1643081,17.3091837 C15.1643081,17.9015306 15.2749482,18.4719388 15.5183565,18.9765306 C15.7396368,19.4811224 16.0494292,19.9418367 16.4477337,20.3147959 C16.8239102,20.6877551 17.2885988,20.994898 17.7975434,21.2142857 C18.3064881,21.4336735 18.8596888,21.5433673 19.4571456,21.5433673 C20.0546023,21.5433673 20.6299311,21.4336735 21.1388757,21.2142857 C21.6699484,20.994898 22.112509,20.6877551 22.5108135,20.3147959 C22.88699,19.9418367 23.1967824,19.4811224 23.4401907,18.9765306 C23.661471,18.45 23.7721111,17.9015306 23.7721111,17.3091837 Z" id="Shape" fill="#FFFFFF" fill-rule="nonzero"></path>
            </g>
        </g>
    </g>
</svg>