<?xml version="1.0" encoding="UTF-8"?>
<svg width="36px" height="36px" viewBox="0 0 36 36" version="1.1" xmlns="http://www.w3.org/2000/svg" xmlns:xlink="http://www.w3.org/1999/xlink">
    <!-- Generator: Sketch 44.1 (41455) - http://www.bohemiancoding.com/sketch -->
    <title>icon-view-default_view</title>
    <desc>Created with Sketch.</desc>
    <defs>
        <linearGradient x1="0%" y1="0%" x2="101.999998%" y2="100.999999%" id="linearGradient-1">
            <stop stop-color="#28324E" offset="0%"></stop>
            <stop stop-color="#534273" offset="100%"></stop>
        </linearGradient>
        <rect id="path-2" x="0" y="0" width="35.9963331" height="36" rx="3.15"></rect>
    </defs>
    <g id="General" stroke="none" stroke-width="1" fill="none" fill-rule="evenodd">
        <g id="Editor-View" transform="translate(-1209.000000, -249.000000)">
            <g id="icon-view-default_view" transform="translate(1209.000000, 249.000000)">
                <g id="Rectangle-17">
                    <use fill="url(#linearGradient-1)" fill-rule="evenodd" xlink:href="#path-2"></use>
                    <rect stroke-opacity="0.25" stroke="#FFFFFF" stroke-width="1" x="0.5" y="0.5" width="34.9963331" height="35" rx="3.15"></rect>
                </g>
                <path d="M15.8275335,11.7 C15.8155497,11.7028 15.7079972,11.8011063 15.8275335,11.7 L14.923103,13.5 L11.7575963,13.5 C10.6651505,13.45 9.94873536,14.1585033 9.94873536,14.85 L9.94873536,22.95 C9.94873536,23.591495 10.6651505,24.3 11.7575963,24.3 L24.4196232,24.3 C25.512069,24.3 26.2284841,23.591495 26.2284841,22.95 L26.2284841,14.85 C26.2284841,14.1585033 25.512069,13.45 24.4196232,13.5 L21.2541164,13.5 L20.349686,11.7 C20.468461,11.777042 20.3417798,11.7001173 20.349686,11.7 L15.8275335,11.7 Z M16.2797488,12.6 L20.349686,12.6 L20.8019012,13.95 C21.0758998,14.2769602 21.2034746,14.3566822 21.2541164,14.4 L24.8718384,14.4 C25.3862429,14.3578125 25.7762689,14.7437209 25.7762689,15.3 L25.7762689,22.95 C25.7762689,23.4640898 25.3862429,23.85 24.8718384,23.85 L11.7575963,23.85 C11.2431918,23.85 10.8531658,23.4640898 10.8531658,22.95 L10.8531658,15.3 C10.8531658,14.7437209 11.2431918,14.3578125 11.7575963,14.4 L15.3753183,14.4 C15.4259598,14.3567578 15.5535346,14.2769602 15.8275335,13.95 L16.2797488,12.6 Z M18.0886097,15.3 C16.0949013,15.3 14.4708878,16.9160418 14.4708878,18.9 C14.4708878,20.88396 16.0949013,22.5 18.0886097,22.5 C20.0823544,22.5 21.7063317,20.88396 21.7063317,18.9 C21.7063317,16.9160454 20.0823544,15.3 18.0886097,15.3 Z M18.540825,16.2 C19.9424647,16.2 21.2541164,17.4048379 21.2541164,18.9 C21.2541164,20.3951588 19.9424647,21.6 18.540825,21.6 C16.6870068,21.6 15.3753183,20.3951588 15.3753183,18.9 C15.3753183,17.4048429 16.6870068,16.2 18.540825,16.2 Z" id="Shape" stroke="#FFFFFF" stroke-width="0.5" fill="#FFFFFF" fill-rule="nonzero"></path>
            </g>
        </g>
    </g>
</svg>