<?xml version="1.0" encoding="UTF-8"?>
<svg width="36px" height="36px" viewBox="0 0 36 36" version="1.1" xmlns="http://www.w3.org/2000/svg" xmlns:xlink="http://www.w3.org/1999/xlink">
    <!-- Generator: Sketch 44.1 (41455) - http://www.bohemiancoding.com/sketch -->
    <title>icon-view-zoom_reset</title>
    <desc>Created with Sketch.</desc>
    <defs>
        <linearGradient x1="0%" y1="0%" x2="101.999998%" y2="100.999999%" id="linearGradient-1">
            <stop stop-color="#28324E" offset="0%"></stop>
            <stop stop-color="#534273" offset="100%"></stop>
        </linearGradient>
        <rect id="path-2" x="0" y="0" width="36" height="36" rx="3.15"></rect>
    </defs>
    <g id="General" stroke="none" stroke-width="1" fill="none" fill-rule="evenodd">
        <g id="Editor-View" transform="translate(-1209.000000, -409.000000)">
            <g id="icon-view-zoom_reset" transform="translate(1209.000000, 409.000000)">
                <g id="Rectangle-17-Copy-2">
                    <use fill="url(#linearGradient-1)" fill-rule="evenodd" xlink:href="#path-2"></use>
                    <rect stroke-opacity="0.25" stroke="#FFFFFF" stroke-width="1" x="0.5" y="0.5" width="35" height="35" rx="3.15"></rect>
                </g>
                <path d="M21.151057,16.3821429 C21.2616971,16.6234694 21.3059532,16.8867347 21.3059532,17.15 C21.3059532,17.2596939 21.2616971,17.347449 21.195313,17.4352041 C21.1289289,17.5010204 21.0182888,17.544898 20.8855206,17.544898 C20.7748805,17.544898 20.6863684,17.5010204 20.5978563,17.4352041 C20.5314722,17.347449 20.4872161,17.2596939 20.4872161,17.15 C20.4872161,16.8209184 20.376576,16.5137755 20.1331677,16.2943878 C19.8897594,16.0530612 19.602095,15.9433673 19.2701746,15.9433673 C19.1595344,15.9433673 19.0710223,15.8994898 18.9825102,15.8336735 C18.9161261,15.7678571 18.87187,15.6581633 18.87187,15.5484694 C18.87187,15.4387755 18.9161261,15.3290816 18.9825102,15.2632653 C19.0488943,15.197449 19.1595344,15.1535714 19.2701746,15.1535714 C19.5578389,15.1535714 19.8233753,15.197449 20.0667836,15.3071429 C20.3101919,15.4168367 20.5314722,15.5484694 20.7084964,15.7459184 C20.9076487,15.9214286 21.0404168,16.1408163 21.151057,16.3821429 Z M24.2268529,15.1096939 C24.5145173,15.7459184 24.6472855,16.4479592 24.6472855,17.1719388 C24.6472855,17.8959184 24.5145173,18.5979592 24.2268529,19.2341837 C23.9391885,19.8704082 23.5630121,20.4408163 23.0761954,20.9234694 C22.5893788,21.4061224 22.0140501,21.8010204 21.3723373,22.0642857 C20.7306244,22.3494898 20.0225275,22.4811224 19.2923026,22.4811224 C18.7612299,22.4811224 18.2522853,22.4153061 17.7654686,22.2617347 C17.256524,22.1081633 16.7918354,21.8887755 16.3492748,21.6035714 L13.4505031,24.4556122 C13.361991,24.5653061 13.2292228,24.6091837 13.0743266,24.6091837 C12.9858145,24.6091837 12.8751744,24.5653061 12.7202782,24.4556122 C12.58751,24.3678571 12.4326138,24.2362245 12.2998456,24.1045918 C12.1449494,23.9729592 12.0343093,23.8193878 11.9457972,23.6877551 C11.8572851,23.5341837 11.790901,23.4244898 11.790901,23.3367347 C11.790901,23.1831633 11.835157,23.0515306 11.9457972,22.9637755 L14.8224409,20.0897959 C14.5347765,19.6510204 14.3134962,19.1903061 14.1586,18.7076531 C14.0037038,18.2030612 13.9373197,17.6984694 13.9373197,17.1719388 C13.9373197,16.4479592 14.0700879,15.7459184 14.3577523,15.1096939 C14.6454166,14.4734694 15.0215931,13.9030612 15.5084097,13.4204082 C15.9952264,12.9377551 16.5705551,12.5647959 17.2122679,12.2795918 C17.8539807,11.9943878 18.5399496,11.8627551 19.2923026,11.8627551 C20.0225275,11.8627551 20.7306244,11.9943878 21.3723373,12.2795918 C22.0140501,12.5647959 22.5893788,12.9377551 23.0761954,13.4204082 C23.5630121,13.9030612 23.9391885,14.4515306 24.2268529,15.1096939 Z M23.5630121,17.1719388 C23.5630121,16.5795918 23.4523719,16.0530612 23.2089636,15.5265306 C22.9876833,15 22.6778909,14.5612245 22.2795864,14.1663265 C21.9034099,13.7714286 21.4387213,13.4862245 20.9076487,13.244898 C20.376576,13.0255102 19.8233753,12.9158163 19.2480465,12.9158163 C18.6727178,12.9158163 18.1195171,13.0255102 17.5884444,13.244898 C17.0573717,13.4642857 16.6148112,13.7714286 16.2386347,14.1663265 C15.8403302,14.5612245 15.5526658,15 15.3092575,15.5265306 C15.0879772,16.0311224 14.955209,16.5795918 14.955209,17.1719388 C14.955209,17.7642857 15.0658492,18.3346939 15.3092575,18.8392857 C15.5305378,19.3438776 15.8403302,19.8045918 16.2386347,20.177551 C16.6148112,20.5505102 17.0794997,20.8576531 17.5884444,21.0770408 C18.0973891,21.2964286 18.6505898,21.4061224 19.2480465,21.4061224 C19.8455033,21.4061224 20.420832,21.2964286 20.9297767,21.0770408 C21.4608494,20.8576531 21.9034099,20.5505102 22.3017144,20.177551 C22.6778909,19.8045918 22.9876833,19.3438776 23.2310916,18.8392857 C23.4523719,18.3127551 23.5630121,17.7642857 23.5630121,17.1719388 Z" id="Shape" fill="#FFFFFF" fill-rule="nonzero"></path>
                <g id="Group-7" transform="translate(18.000000, 18.000000) rotate(45.000000) translate(-18.000000, -18.000000) translate(2.000000, 11.000000)" fill-rule="nonzero" stroke="#FFFFFF" stroke-width="0.5" fill="#FFFFFF">
                    <g id="Group-6">
                        <path d="M3.26063082,3.01737786 C1.28943624,3.01737786 -0.535430879,3.88290368 -1.74838835,5.34247451 L-1.53535004,5.50880548 C-0.373781562,4.11107183 1.37311017,3.28252937 3.26063082,3.28252937 C6.65995186,3.28252937 9.41564602,5.95355785 9.41564602,9.24843847 L9.68920225,9.24843847 C9.68920225,5.80711872 6.81103278,3.01737786 3.26063082,3.01737786 Z" id="Shape" transform="translate(3.970407, 6.132908) rotate(-97.000000) translate(-3.970407, -6.132908) "></path>
                        <path d="M5.11338373,12.0714088 C5.14100375,12.093169 5.15102381,12.0525971 5.11957573,12.0588131 L1.87372878,12.7003837 C1.81477105,12.7120373 1.77854673,12.6816868 1.78047396,12.6195956 L1.87666522,9.52052276 C1.87787414,9.48157419 5.11338373,12.0714088 5.11338373,12.0714088 Z M1.50704144,12.6116221 C1.49986047,12.8429773 1.69485049,13.0063492 1.92838859,12.9601883 L5.17423555,12.3186177 C5.4329066,12.267489 5.4920435,12.0280403 5.28592654,11.8656527 L2.04735734,9.31417149 C1.84067125,9.15133549 1.61121161,9.25548618 1.60323271,9.51254926 L1.50704144,12.6116221 Z" id="Shape" transform="translate(3.458531, 11.102051) rotate(-97.000000) translate(-3.458531, -11.102051) "></path>
                    </g>
                    <g id="Group-6" transform="translate(28.000000, 7.000000) rotate(180.000000) translate(-28.000000, -7.000000) translate(24.000000, 0.000000)">
                        <path d="M3.26063082,3.01737786 C1.28943624,3.01737786 -0.535430879,3.88290368 -1.74838835,5.34247451 L-1.53535004,5.50880548 C-0.373781562,4.11107183 1.37311017,3.28252937 3.26063082,3.28252937 C6.65995186,3.28252937 9.41564602,5.95355785 9.41564602,9.24843847 L9.68920225,9.24843847 C9.68920225,5.80711872 6.81103278,3.01737786 3.26063082,3.01737786 Z" id="Shape" transform="translate(3.970407, 6.132908) rotate(-97.000000) translate(-3.970407, -6.132908) "></path>
                        <path d="M5.11338373,12.0714088 C5.14100375,12.093169 5.15102381,12.0525971 5.11957573,12.0588131 L1.87372878,12.7003837 C1.81477105,12.7120373 1.77854673,12.6816868 1.78047396,12.6195956 L1.87666522,9.52052276 C1.87787414,9.48157419 5.11338373,12.0714088 5.11338373,12.0714088 Z M1.50704144,12.6116221 C1.49986047,12.8429773 1.69485049,13.0063492 1.92838859,12.9601883 L5.17423555,12.3186177 C5.4329066,12.267489 5.4920435,12.0280403 5.28592654,11.8656527 L2.04735734,9.31417149 C1.84067125,9.15133549 1.61121161,9.25548618 1.60323271,9.51254926 L1.50704144,12.6116221 Z" id="Shape" transform="translate(3.458531, 11.102051) rotate(-97.000000) translate(-3.458531, -11.102051) "></path>
                    </g>
                </g>
            </g>
        </g>
    </g>
</svg>