<?xml version="1.0" encoding="UTF-8"?>
<svg width="38px" height="36px" viewBox="0 0 38 36" version="1.1" xmlns="http://www.w3.org/2000/svg" xmlns:xlink="http://www.w3.org/1999/xlink">
    <!-- Generator: Sketch 44.1 (41455) - http://www.bohemiancoding.com/sketch -->
    <title>icon-view-limit_view</title>
    <desc>Created with Sketch.</desc>
    <defs>
        <linearGradient x1="0%" y1="0%" x2="101.999998%" y2="100.999999%" id="linearGradient-1">
            <stop stop-color="#28324E" offset="0%"></stop>
            <stop stop-color="#534273" offset="100%"></stop>
        </linearGradient>
        <rect id="path-2" x="0.844724618" y="0" width="36.3105508" height="36" rx="3.15"></rect>
    </defs>
    <g id="General" stroke="none" stroke-width="1" fill="none" fill-rule="evenodd">
        <g id="Editor-View" transform="translate(-1208.000000, -289.000000)">
            <g id="icon-view-limit_view" transform="translate(1208.000000, 289.000000)">
                <g id="Rectangle-17-Copy">
                    <use fill="url(#linearGradient-1)" fill-rule="evenodd" xlink:href="#path-2"></use>
                    <rect stroke-opacity="0.25" stroke="#FFFFFF" stroke-width="1" x="1.34472462" y="0.5" width="35.3105508" height="35" rx="3.15"></rect>
                </g>
                <path d="M13.3777518,14.0239017 L11.284008,14.0239017 L11.284008,11.3879184 C11.284008,10.8112971 11.7492844,10.35 12.3308799,10.35 L14.9896022,10.35 L14.9896022,12.4258368 L13.3777518,12.4258368 L13.3777518,14.0239017 Z M13.3777518,16.2480126 L11.284008,16.2480126 L11.284008,20.2019874 L13.3777518,20.2019874 L13.3777518,16.2480126 Z M27.1698739,16.2480126 L25.0761301,16.2480126 L25.0761301,20.2019874 L27.1698739,20.2019874 L27.1698739,16.2480126 Z M17.2328992,24.0241632 L17.2328992,26.1 L21.2209827,26.1 L21.2209827,24.0241632 L17.2328992,24.0241632 Z M22.0850675,14.5016736 L16.3688144,14.5016736 C15.870304,14.5016736 15.4548786,14.913546 15.4548786,15.4077929 L15.4548786,21.058682 C15.4548786,21.5529289 15.870304,21.9648013 16.3688144,21.9648013 L22.0684504,21.9648013 C22.5669609,21.9648013 22.9823862,21.5529289 22.9823862,21.058682 L22.9823862,15.391318 C22.9823862,14.8970711 22.5835779,14.5016736 22.0850675,14.5016736 Z M12.3308799,26.1 L14.9896022,26.1 L14.9896022,24.0241632 L13.3777518,24.0241632 L13.3777518,22.4260983 L11.284008,22.4260983 L11.284008,25.0620816 C11.284008,25.6387029 11.7492844,26.1 12.3308799,26.1 Z M27.1698739,11.3879184 C27.1698739,10.8112971 26.7045975,10.35 26.123002,10.35 L23.4642797,10.35 L23.4642797,12.4258368 L25.0761301,12.4258368 L25.0761301,14.0239017 L27.1698739,14.0239017 L27.1698739,11.3879184 Z M25.0761301,24.0241632 L23.4642797,24.0241632 L23.4642797,26.1 L26.123002,26.1 C26.7045975,26.1 27.1698739,25.6387029 27.1698739,25.0620816 L27.1698739,22.4260983 L25.0761301,22.4260983 L25.0761301,24.0241632 Z M17.2328992,10.35 L17.2328992,12.4258368 L21.2209827,12.4258368 L21.2209827,10.35 L17.2328992,10.35 Z" id="Shape" fill="#FFFFFF" fill-rule="nonzero"></path>
            </g>
        </g>
    </g>
</svg>