<?xml version="1.0" encoding="UTF-8"?>
<svg width="36px" height="36px" viewBox="0 0 36 36" version="1.1" xmlns="http://www.w3.org/2000/svg" xmlns:xlink="http://www.w3.org/1999/xlink">
    <!-- Generator: Sketch 44.1 (41455) - http://www.bohemiancoding.com/sketch -->
    <title>icon-view-little_planet</title>
    <desc>Created with Sketch.</desc>
    <defs>
        <linearGradient x1="0%" y1="0%" x2="101.999998%" y2="100.999999%" id="linearGradient-1">
            <stop stop-color="#28324E" offset="0%"></stop>
            <stop stop-color="#534273" offset="100%"></stop>
        </linearGradient>
        <rect id="path-2" x="0" y="0" width="36" height="36" rx="3.15"></rect>
    </defs>
    <g id="General" stroke="none" stroke-width="1" fill="none" fill-rule="evenodd">
        <g id="Editor-View" transform="translate(-1209.000000, -449.000000)">
            <g id="icon-view-little_planet" transform="translate(1209.000000, 449.000000)">
                <g id="Rectangle-17-Copy-2">
                    <use fill="url(#linearGradient-1)" fill-rule="evenodd" xlink:href="#path-2"></use>
                    <rect stroke-opacity="0.25" stroke="#FFFFFF" stroke-width="1" x="0.5" y="0.5" width="35" height="35" rx="3.15"></rect>
                </g>
                <g id="Group-5" transform="translate(9.000000, 9.000000)" fill-rule="nonzero" fill="#FFFFFF">
                    <path d="M2.61756845,3.42857143 L2.7188243,3.29788209 C2.92651877,3.03578461 3.15424833,2.78989094 3.4,2.56237465 L1.83820526,1.0153776 C1.60760078,0.799903326 1.24581755,0.805127574 1.02165236,1.02716884 C0.797487168,1.24921011 0.792212948,1.60756553 1.00974833,1.83598507 L2.61756845,3.42857143 Z" id="Shape"></path>
                    <path d="M14.4637595,14.5714286 C14.1974082,14.8570858 13.9084943,15.1194287 13.6,15.3557494 L15.1911359,16.9962611 C15.4208872,17.2023872 15.7662561,17.1897111 15.98121,16.9672629 C16.1961638,16.7448147 16.2071769,16.3886838 16.0064036,16.1525694 L14.4637595,14.5714286 Z" id="Shape"></path>
                    <path d="M16.5502137,0.531648538 C15.7782783,-0.353197977 14.2840096,-0.130216656 12.2100142,1.1758168 L11.9,1.37048303 C12.3164733,1.59138588 12.7130994,1.85810039 13.0842544,2.1668449 C14.1383029,1.53683418 14.8327348,1.34924672 15.2543542,1.34924672 C15.4115947,1.33019169 15.5694616,1.37808611 15.6976745,1.48374339 C15.8774828,1.69256717 15.9673869,2.59511061 15.0590452,4.54885172 C15.3141212,5.00681969 15.5280808,5.49299708 15.6976745,6 C15.793779,5.81949131 15.880583,5.64606139 15.9673869,5.46909209 C16.6525184,4.05333767 16.9966342,2.88180088 16.9966342,1.97571805 C17.0257851,1.44511895 16.8646271,0.923809256 16.5502137,0.531648538 L16.5502137,0.531648538 Z" id="Shape"></path>
                    <path d="M4.43877108,15.7290021 C2.48037508,16.8649447 1.56972094,16.7702828 1.36735335,16.5640552 C1.16498577,16.3578275 1.07685795,15.4247318 2.17355971,13.3827397 L2.21599162,13.3083625 C1.94124648,12.8965227 1.70516386,12.4584067 1.51096906,12 C1.36082537,12.2569394 1.21720966,12.510498 1.08338593,12.7572951 C-0.117763616,15.0021341 -0.32665919,16.6316708 0.489339145,17.4903893 C0.847798265,17.8406313 1.32892344,18.0238446 1.82104843,17.9975066 C2.65989471,17.9975066 3.7435405,17.6222398 5.04260985,16.8750871 C5.33963325,16.7026672 5.64318463,16.5167242 5.95,16.3138773 C5.48001925,16.1356001 5.0284292,15.9090876 4.60197075,15.637721 L4.43877108,15.7290021 Z" id="Shape"></path>
                    <path d="M13.332684,13.4490978 L13.4624447,13.3177168 L13.5662532,13.1961893 C13.5745072,13.1902596 13.581192,13.1823633 13.5857173,13.1731977 L13.7706263,12.9597035 C13.8387506,12.8743059 13.906875,12.7889083 13.9717553,12.7002261 C14.0366357,12.6115439 14.101516,12.5195772 14.1631523,12.4276105 C14.3175593,12.1993377 14.4573393,11.9612679 14.5816305,11.7148686 L14.5816305,11.7148686 C14.7061816,11.4672297 14.8145483,11.2115823 14.9060322,10.9495743 C14.9060322,10.9495743 14.9060322,10.9495743 14.9060322,10.9331517 C14.9417164,10.8313314 14.9741565,10.7327957 15.0065967,10.6276909 C15.0782897,10.3958885 15.1367783,10.1601096 15.1817736,9.92151801 C15.2012377,9.82298227 15.2174578,9.72773104 15.2336779,9.6291953 C15.249898,9.53065955 15.266118,9.40256308 15.2758501,9.30074281 C15.2855821,9.19892253 15.2953142,9.08724869 15.2985582,8.97229032 C15.3018022,8.85733195 15.2985582,8.7193819 15.2985582,8.59128543 C15.2980086,6.29986604 14.1735815,4.15831578 12.2978426,2.8762121 C12.2297183,2.83022875 12.1648379,2.78424541 12.0934696,2.74154658 L12.0934696,2.74154658 C10.8034096,1.93377063 9.28326121,1.58685919 7.77568313,1.75618911 L7.58753015,1.77918079 C7.50967374,1.77918079 7.43181734,1.79888794 7.35720495,1.81531056 C7.32101903,1.81868843 7.28519676,1.8252829 7.25015239,1.83501771 C7.17229599,1.83501771 7.09443959,1.86129391 7.0198272,1.88100106 L6.86735841,1.91713083 L6.69542551,1.96311418 L6.49429647,2.0189511 C6.27370332,2.08792613 6.05959821,2.17003925 5.8454931,2.25872142 C5.75790464,2.2948512 5.67031619,2.33426549 5.58597175,2.37696432 C5.50162731,2.41966314 5.45621107,2.43937029 5.39133074,2.47550006 C5.3264504,2.51162984 5.24859399,2.54775961 5.18046964,2.58717391 C5.11234529,2.62658821 5.02475683,2.67585608 4.95014444,2.72512396 C4.87553206,2.77439183 4.80091967,2.82037518 4.72630728,2.86964305 C4.40061742,3.08702813 4.09546391,3.33441921 3.81473854,3.60866116 C3.76264197,3.65427801 3.71283782,3.70251163 3.66551377,3.75318025 C3.59198272,3.82981916 3.52061435,3.90536324 3.45140866,3.97981247 L3.31515995,4.13746966 L3.19188731,4.28855781 C3.12376295,4.37395546 3.0556386,4.46263763 2.99400228,4.5513198 C2.93236596,4.64000197 2.87397366,4.7221151 2.81558135,4.81079727 C2.75718905,4.89947944 2.72150486,4.95860089 2.67608863,5.03414496 C2.50900919,5.31061259 2.36261886,5.59936381 2.23814635,5.89797501 L2.14082585,6.14431438 C2.10514166,6.2395656 2.06945748,6.33810135 2.03701731,6.43335257 L1.9591609,6.68297646 C1.93645278,6.76508958 1.91374467,6.84720271 1.89428057,6.93260035 C1.87481646,7.017998 1.85535236,7.09025755 1.83913228,7.16908615 C1.80993613,7.31032072 1.78398399,7.45155529 1.76127587,7.59935891 C1.76127587,7.69132561 1.73856776,7.78657683 1.72883571,7.88182805 C1.72682379,7.89157634 1.72682379,7.90164048 1.72883571,7.91138877 C1.72883571,8.02306262 1.7093716,8.13802099 1.70288357,8.23984126 C1.69639554,8.34166154 1.70288357,8.47632706 1.70288357,8.59456995 C1.70288357,8.71281285 1.70288357,8.83105575 1.70288357,8.94929864 C1.71185863,9.16377241 1.73243491,9.37758708 1.76451989,9.589781 C1.77000245,9.64281796 1.77866919,9.69546776 1.79047203,9.74743819 C1.79047203,9.82626679 1.81642416,9.90509539 1.83264424,9.98392399 C1.84886433,10.0627526 1.87481646,10.1875645 1.9007686,10.2893848 C1.92672073,10.3912051 1.94942885,10.4733182 1.97538099,10.5652849 C2.00133312,10.6572516 2.00782116,10.6736742 2.02728526,10.7295111 C2.04674936,10.7853481 2.02728526,10.7853481 2.05323739,10.8116243 L2.09216559,10.9232981 C2.10210172,10.9557657 2.11401938,10.9875773 2.12784978,11.0185493 C2.15812727,11.1017573 2.19056744,11.1838704 2.22517028,11.2648887 C2.22376365,11.2713806 2.22376365,11.278104 2.22517028,11.2845958 C2.2673425,11.3831316 2.31275874,11.4816673 2.35817498,11.5802031 C2.40359121,11.6787388 2.45549548,11.7805591 2.50739975,11.8758103 C2.55930402,11.9710616 2.60472026,12.0564592 2.65662453,12.1418568 C2.65662453,12.1418568 2.65662453,12.1418568 2.65662453,12.1418568 L2.65662453,12.1418568 C2.7085288,12.230539 2.76367708,12.3159367 2.81882537,12.4013343 C2.87397366,12.486732 2.95831809,12.6049749 3.02968646,12.7035106 C3.10105484,12.8020464 3.15620312,12.8710214 3.22432748,12.9531345 C3.29245183,13.0352476 3.3638202,13.1206453 3.43843259,13.2027584 C3.51304498,13.2848715 3.5746813,13.350562 3.64604967,13.4228216 L3.67848984,13.4589513 C3.82447059,13.606755 3.97693939,13.744705 4.13589621,13.8793705 L4.40190559,14.0895801 C4.48949405,14.1585551 4.58032652,14.2209611 4.67115899,14.2833671 C4.76199147,14.3457731 4.85282394,14.4048945 4.94690043,14.4607314 C5.04097692,14.5165683 5.12207734,14.5691207 5.21290981,14.6183886 L5.39457475,14.7136398 L5.39457475,14.7136398 L5.49513928,14.7661922 L5.5762397,14.8056065 L5.78061276,14.8975732 C5.86171318,14.9369875 5.94605762,14.9698328 6.03364607,15.002678 C6.12123453,15.0355233 6.1926029,15.065084 6.27370332,15.0913602 L6.31587554,15.0913602 C6.39697596,15.1209209 6.4813204,15.1471971 6.56566484,15.1701888 L6.64027723,15.1931805 L6.80572209,15.2391638 L6.89979857,15.2391638 C6.95636151,15.2554478 7.01375721,15.2686053 7.07173147,15.2785781 C7.16256394,15.3015698 7.25339641,15.3179924 7.34422888,15.334415 L7.56806605,15.3705448 C7.59825099,15.3739345 7.62871357,15.3739345 7.65889852,15.3705448 C7.73999894,15.3705448 7.82434338,15.390252 7.9054438,15.4001055 C7.98654422,15.4099591 8.08710874,15.4001055 8.18118523,15.4198127 C8.27526172,15.4395198 8.41151043,15.4198127 8.52829504,15.4198127 C8.64507964,15.4198127 8.76186425,15.4198127 8.87864886,15.4198127 C8.99543346,15.4198127 9.10573004,15.4198127 9.20305054,15.3935365 L9.23224669,15.3935365 L9.51123214,15.3606912 C9.65396889,15.3376996 9.79670563,15.3114234 9.93619835,15.2818626 L10.1600355,15.2293103 L10.4000928,15.1636198 L10.6596141,15.0815066 L10.9450876,14.9764018 L11.1624367,14.8910042 C11.3683226,14.8138195 11.5697684,14.7249977 11.7658239,14.6249577 C11.8566563,14.5756898 11.9474888,14.5231374 12.0350773,14.4673005 C12.1226657,14.4114636 12.2199862,14.3523421 12.3108187,14.2899361 C12.3466769,14.2677528 12.3813299,14.2436314 12.4146272,14.2176766 L12.5184358,14.1487016 L12.5800721,14.0961492 C12.6676605,14.0304587 12.752005,13.9647682 12.8363494,13.8925086 C12.9927506,13.7662235 13.1421994,13.6313558 13.2840237,13.4885121 L13.332684,13.4490978 Z M5.75141661,3.68748975 C5.98732067,3.55111533 6.23229238,3.43148992 6.48456442,3.32947654 C6.61108107,3.28020867 6.73759773,3.23422532 6.86735841,3.19481102 C6.95470628,3.16508104 7.0434907,3.13986713 7.13336779,3.11926694 C7.22200101,3.09379762 7.31187123,3.07296803 7.40262119,3.05686097 L7.6751186,3.0075931 C7.75946304,3.0075931 7.8470515,2.9813169 7.93463995,2.97474785 C8.02222841,2.9681788 8.10981686,2.9550407 8.20064933,2.95175618 C8.29148181,2.94847165 8.41475445,2.95175618 8.52505102,2.95175618 C8.85142801,2.95159302 9.17715268,2.9812743 9.49825608,3.04043835 C10.0022524,3.12982959 10.4914282,3.29013361 10.9515756,3.51669446 C11.6612095,3.8704657 12.2899445,4.37056051 12.7974212,4.98487709 C12.6319764,4.94874731 12.4730195,4.91918659 12.3075747,4.89947944 C11.9706688,4.84561145 11.6300314,4.81925036 11.2889534,4.82065084 C11.1786568,4.82065084 11.0705229,4.82065084 10.9645517,4.82065084 C10.3395444,4.85990588 9.72282429,4.98589526 9.13168217,5.19508668 C8.96623731,5.24763908 8.80728049,5.29690695 8.66454374,5.33632125 C8.4160721,5.40540547 8.15985405,5.4418343 7.90219978,5.44471057 L7.87300363,5.44471057 C7.53530839,5.44402448 7.19999569,5.38744119 6.88033447,5.2771998 C6.50965321,5.14969282 6.1573094,4.97297776 5.83251703,4.75167582 C5.64980136,4.6344941 5.47429993,4.50616032 5.3069863,4.36738641 L5.06692905,4.16703039 C5.17722562,4.07506369 5.29401023,3.98966604 5.41079484,3.90755292 C5.52033282,3.82803296 5.63403957,3.75457122 5.75141661,3.68748975 L5.75141661,3.68748975 Z M3.05239458,7.54023746 C3.05239458,7.46140886 3.07834672,7.38586479 3.09781082,7.31032072 C3.09781082,7.31032072 3.09781082,7.31032072 3.09781082,7.31032072 C3.11339376,7.22809475 3.1339784,7.1469219 3.15944714,7.06726587 C3.18156926,6.97820137 3.20864592,6.89047412 3.24054756,6.80450388 C3.26325568,6.72895981 3.28920781,6.65670026 3.31840396,6.58444071 C3.31699733,6.57794886 3.31699733,6.57122542 3.31840396,6.56473357 C3.36093994,6.45256332 3.40967726,6.34290576 3.46438472,6.23628108 C3.48335007,6.18906232 3.50501347,6.1430011 3.52926506,6.09833103 C3.57125852,6.00623548 3.6178153,5.91634416 3.66875779,5.82899999 C3.74012616,5.70090352 3.81798256,5.57609157 3.89908298,5.45456415 C3.9801834,5.33303673 4.01262357,5.28705338 4.07425989,5.20822478 L4.12616416,5.13924976 L4.17482441,5.08012831 C4.25268082,5.15238786 4.33053722,5.21807836 4.40839363,5.28048433 C4.57059447,5.41843437 4.73279531,5.54653085 4.89824017,5.66477374 C5.21174857,5.89128813 5.54385345,6.09018221 5.89090933,6.25927275 C6.17164636,6.39461584 6.46366646,6.50452905 6.76354987,6.58772524 C6.91827435,6.62999015 7.07534622,6.66289357 7.23393231,6.68626099 C7.44108148,6.71885112 7.6503926,6.73532196 7.86002756,6.73552886 L7.89571175,6.73552886 C8.44351061,6.70723519 8.98336741,6.59081979 9.49501206,6.39065375 C9.98604147,6.20723635 10.500668,6.09660946 11.022944,6.06220126 C11.5237886,6.036611 12.0257511,6.07970011 12.5151918,6.19029773 C12.791914,6.2504344 13.0640264,6.33056287 13.32944,6.43006804 C13.4559566,6.47605139 13.5857173,6.52531927 13.712234,6.58444071 C13.712234,6.58444071 13.712234,6.58444071 13.712234,6.58444071 C13.8027356,6.82384318 13.8753887,7.06977648 13.9295831,7.32017429 L13.8484827,7.34316597 L13.6343776,7.41871004 C13.4397366,7.49096959 13.2418515,7.55337556 13.0439665,7.60921248 L12.8979857,7.64862678 C12.2615388,7.815589 11.6087187,7.91032832 10.9515756,7.93109592 C10.1335699,7.94779293 9.31686807,7.8572645 8.521807,7.66176488 C8.25904164,7.60592796 7.99627627,7.54680651 7.71729082,7.49753864 C7.33240763,7.42441772 6.94348936,7.37505878 6.55268877,7.34973502 C6.39697596,7.34973502 6.22828708,7.32674334 6.06284223,7.32345882 L5.79683284,7.32345882 C5.47243116,7.32345882 5.14802947,7.34316597 4.82362779,7.37601122 C4.5576184,7.40228741 4.29160902,7.43841719 4.02559964,7.48768506 C3.75959026,7.53695294 3.58116933,7.57308271 3.36057618,7.62563511 L3.0361745,7.70774823 C3.03832534,7.6516371 3.04374143,7.59570315 3.05239458,7.54023746 Z M12.2881106,12.7232178 L12.1259097,12.8710214 C12.0253452,12.956419 11.9215367,13.0418167 11.801508,13.1206453 L11.6295752,13.2454572 C11.4784977,13.3500389 11.3214279,13.4454576 11.1591927,13.5312109 C11.0813363,13.5771942 11.0034799,13.6166085 10.9223795,13.6560228 L10.8412791,13.6921526 L10.6725902,13.7676967 C10.6159747,13.7959825 10.557433,13.8201306 10.4974133,13.8399562 C10.4195569,13.8728015 10.3384564,13.9023622 10.257356,13.9286384 C10.1762556,13.9549146 10.0951552,13.9811908 10.0140548,14.0041825 C9.93295433,14.0271741 9.85185391,14.0501658 9.77075349,14.0665884 C9.68859973,14.0891327 9.60518769,14.1066815 9.52096419,14.1191408 C9.37198452,14.1495281 9.22144354,14.1714592 9.07004585,14.1848313 L8.91108902,14.1848313 C8.86356865,14.1882107 8.81587266,14.1882107 8.76835228,14.1848313 L8.51207495,14.1848313 L8.22660147,14.1848313 L8.14225703,14.1848313 L8.04818054,14.1848313 L8.00600832,14.1848313 C7.92660363,14.18112 7.84750902,14.1723439 7.76919509,14.1585551 C7.54378391,14.1299683 7.32052504,14.0860757 7.10092762,14.0271741 L6.85762635,13.9581991 C6.77710328,13.9357608 6.69801676,13.9083381 6.62081312,13.876086 L6.62081312,13.876086 C5.66860635,13.5223112 4.82814191,12.9152936 4.18780048,12.1188652 C4.28512099,12.0761663 4.38244149,12.0400366 4.48300602,12.0071913 C4.69494359,11.9303172 4.91168797,11.8677737 5.13180939,11.8199734 C5.43143825,11.7528279 5.73663614,11.7143393 6.04337812,11.705015 C6.64114054,11.7015498 7.2360261,11.7890182 7.80812329,11.9644925 C8.07088866,12.030183 8.34987411,12.1024425 8.66778776,12.168133 C8.98570141,12.2338235 9.290639,12.2863759 9.66694495,12.3290748 C9.88105006,12.3520664 10.0789351,12.3717736 10.2638441,12.3849117 L10.7991068,12.4144724 L11.1235085,12.4144724 L11.1429726,12.4144724 C11.4969644,12.4157017 11.8505247,12.3893477 12.2005221,12.3356438 L12.3108187,12.3159367 L12.4243593,12.292945 L12.7390289,12.2403926 C12.6871246,12.3027986 12.6319764,12.3652045 12.5768281,12.424326 L12.5768281,12.424326 C12.4881583,12.5272411 12.3919191,12.6268717 12.2881106,12.7232178 Z M12.4795076,11.0152648 C12.3594789,11.0448255 12.2426943,11.0678172 12.1226657,11.0908089 C11.9243769,11.1274338 11.7238742,11.1504777 11.5225226,11.1597839 L11.3376136,11.1597839 L11.3376136,11.1597839 C10.8389858,11.1690669 10.3403323,11.1427253 9.84536588,11.0809553 L9.84536588,11.0809553 L9.47554796,11.0316874 C9.02871874,10.9596145 8.58586188,10.8642363 8.14874506,10.7459338 C7.46690389,10.5400063 6.75808295,10.4403296 6.04662214,10.4503265 C5.4892294,10.468163 4.93643383,10.5586862 4.40190559,10.7196576 C4.20278896,10.7783316 4.00680455,10.847399 3.81473854,10.9265826 C3.72066206,10.9594279 3.62982958,10.9988422 3.53575309,11.041541 C3.51953742,11.0147068 3.50647283,10.9860467 3.49682489,10.9561434 C3.36197358,10.6588002 3.25341501,10.3499414 3.17242321,10.0331919 C3.14647107,9.92480254 3.12051894,9.81641322 3.09781082,9.70473937 C3.0751027,9.59306552 3.06861467,9.56022027 3.05888262,9.48796073 L3.05888262,9.48796073 L3.05888262,9.4321238 C3.04266253,9.34015711 3.03293048,9.24490588 3.02319843,9.14965466 C3.02319843,9.10695584 3.02319843,9.06425701 3.02319843,9.02155819 L3.324892,8.93287602 C3.40599242,8.90988434 3.49033686,8.88689267 3.57143728,8.87047004 L3.93801118,8.78178787 C4.43570476,8.67354575 4.94128117,8.60653875 5.44972304,8.58143185 C5.66058414,8.58143185 5.87144523,8.58143185 6.09852641,8.58143185 C6.46246051,8.58616865 6.82561091,8.61690053 7.18527206,8.67339855 C7.58104211,8.72923547 7.944372,8.80806407 8.32067796,8.89017719 C8.69698391,8.97229032 8.96948133,9.03469629 9.3490313,9.09381774 C9.82743083,9.17216388 10.3112458,9.21170386 10.7958628,9.21206063 L11.0780923,9.21206063 C11.2986854,9.21206063 11.5192786,9.19235349 11.7268957,9.16936181 C12.2076714,9.11145037 12.6836398,9.01814171 13.1510191,8.89017719 C13.3164639,8.8507629 13.4754207,8.80477955 13.6408656,8.75222715 C13.6871465,8.7409942 13.7326585,8.72673127 13.7771143,8.70952832 C13.8809228,8.6799676 13.9847314,8.64383783 14.101516,8.60770805 C14.101516,8.76208072 14.101516,8.91645339 14.0788079,9.06754154 C14.0788079,9.11680941 14.0788079,9.16607729 14.0625878,9.21534516 C14.0493875,9.35777115 14.0277215,9.49926221 13.9977075,9.63904887 C13.9977075,9.70473937 13.9847314,9.77042987 13.9587793,9.83612037 C13.9601859,9.84261222 13.9601859,9.84933566 13.9587793,9.85582751 C13.9459966,9.92233945 13.9297539,9.98812153 13.910119,10.052899 C13.865927,10.2220548 13.8128662,10.3887068 13.7511622,10.5521468 L13.7511622,10.5521468 C13.6181575,10.6178373 13.4819088,10.6769587 13.3424161,10.7327957 C13.0622237,10.848841 12.7737651,10.9432666 12.4795076,11.0152648 L12.4795076,11.0152648 Z" id="Shape"></path>
                </g>
            </g>
        </g>
    </g>
</svg>