<?xml version="1.0" encoding="UTF-8"?>
<svg width="67px" height="67px" viewBox="0 0 67 67" version="1.1" xmlns="http://www.w3.org/2000/svg" xmlns:xlink="http://www.w3.org/1999/xlink">
    <!-- Generator: Sketch 41.2 (35397) - http://www.bohemiancoding.com/sketch -->
    <title>article</title>
    <desc>Created with Sketch.</desc>
    <defs>
        <path d="M40.4851095,7.53807187 C31.2303,-1.57124063 16.2682524,-1.57124063 7.01525238,7.53807187 C-2.3237,16.7319937 -2.3237,31.4593687 6.93020476,40.5686812 L23.7063,56.9998219 L40.4851095,40.4840719 C49.7372048,31.3747594 49.8240619,16.6473844 40.4851095,7.53807187 Z M9.04761905,12.2842125 L22.6190476,12.2842125 L22.6190476,22.0810875 L9.04761905,22.0810875 L9.04761905,12.2842125 Z M24.4285714,12.2842125 L38,12.2842125 L38,14.0654625 L24.4285714,14.0654625 L24.4285714,12.2842125 Z M24.4285714,16.292025 L38,16.292025 L38,18.073275 L24.4285714,18.073275 L24.4285714,16.292025 Z M24.4285714,20.2998375 L38,20.2998375 L38,22.0810875 L24.4285714,22.0810875 L24.4285714,20.2998375 Z M9.04761905,23.8623375 L38,23.8623375 L38,25.6435875 L9.04761905,25.6435875 L9.04761905,23.8623375 Z M9.04761905,27.4248375 L38,27.4248375 L38,29.2060875 L9.04761905,29.2060875 L9.04761905,27.4248375 Z M9.04761905,30.9873375 L38,30.9873375 L38,32.7685875 L9.04761905,32.7685875 L9.04761905,30.9873375 Z" id="path-1"></path>
        <filter x="-50%" y="-50%" width="200%" height="200%" filterUnits="objectBoundingBox" id="filter-2">
            <feMorphology radius="0.25" operator="dilate" in="SourceAlpha" result="shadowSpreadOuter1"></feMorphology>
            <feOffset dx="0" dy="2" in="shadowSpreadOuter1" result="shadowOffsetOuter1"></feOffset>
            <feGaussianBlur stdDeviation="2" in="shadowOffsetOuter1" result="shadowBlurOuter1"></feGaussianBlur>
            <feComposite in="shadowBlurOuter1" in2="SourceAlpha" operator="out" result="shadowBlurOuter1"></feComposite>
            <feColorMatrix values="0 0 0 0 0   0 0 0 0 0   0 0 0 0 0  0 0 0 0.5 0" type="matrix" in="shadowBlurOuter1"></feColorMatrix>
        </filter>
    </defs>
    <g id="Symbols" stroke="none" stroke-width="1" fill="none" fill-rule="evenodd">
        <g id="article">
            <g id="Article" transform="translate(5.000000, 5.000000)">
                <g id="Group-3" transform="translate(4.523810, 0.000000)">
                    <g id="Combined-Shape">
                        <use fill="black" fill-opacity="1" filter="url(#filter-2)" xlink:href="#path-1"></use>
                        <use stroke="#FFFFFF" stroke-width="0.5" fill-opacity="0.7" fill="#FFFFFF" fill-rule="evenodd" xlink:href="#path-1"></use>
                    </g>
                </g>
                <rect id="Rectangle-3" x="0" y="0" width="57" height="56.109375"></rect>
            </g>
        </g>
    </g>
</svg>