<?xml version="1.0" encoding="UTF-8"?>
<svg width="67px" height="67px" viewBox="0 0 67 67" version="1.1" xmlns="http://www.w3.org/2000/svg" xmlns:xlink="http://www.w3.org/1999/xlink">
    <!-- Generator: Sketch 41.2 (35397) - http://www.bohemiancoding.com/sketch -->
    <title>image</title>
    <desc>Created with Sketch.</desc>
    <defs>
        <path d="M22.9538131,23.2220913 L26.2989427,26.5672209 C26.6604945,26.9287728 27.2616246,26.9327612 27.6299304,26.5644554 C28.0008039,26.1935818 27.9994744,25.6002461 27.6326959,25.2334677 L26.6224174,24.2231892 C26.6464453,24.2034362 26.6697394,24.1823292 26.6921983,24.1598702 L29.4696891,21.3823795 L32.9006844,24.8133748 C33.2622362,25.1749266 33.8633663,25.178915 34.231672,24.8106092 C34.6025456,24.4397357 34.601216,23.8464 34.2344376,23.4796216 L30.482738,19.7279219 C30.2315177,19.4767016 29.8646287,19.3981134 29.5405475,19.4970989 C29.1934854,19.3430094 28.7742126,19.4103496 28.4893153,19.6952468 L25.3584451,22.826117 C25.3359508,22.8486113 25.314822,22.8718792 25.2950548,22.8958266 L23.8809963,21.4817681 C23.5194445,21.1202163 22.9183144,21.1162279 22.5500086,21.4845336 C22.5488801,21.4856622 22.547755,21.4867928 22.5466333,21.4879254 C22.265002,21.4489436 21.9701392,21.5382588 21.7539283,21.7544697 L16.0205781,27.4878199 C15.6596412,27.8487568 15.6547613,28.4507783 16.0230671,28.8190841 C16.3939407,29.1899576 16.9874002,29.1885042 17.3543313,28.8215731 L22.9538131,23.2220913 Z M12.6821379,32.1656437 C12.5555225,32.2288841 12.4123974,32.2644554 12.2603774,32.2644554 C11.7395143,32.2644554 11.3172714,31.8431923 11.3172714,31.3187038 L11.3172714,13.0409762 C11.3172714,12.518652 11.735883,12.0952246 12.2603774,12.0952246 C12.412316,12.0952246 12.5558629,12.1310708 12.682985,12.1948689 C12.8336454,12.0902748 13.0160309,12.0290417 13.2121777,12.0290417 L36.7724377,12.0290417 C36.9692296,12.0290417 37.1518255,12.0898048 37.3024775,12.1940363 C37.4290929,12.1307959 37.572218,12.0952246 37.724238,12.0952246 C38.2451011,12.0952246 38.667344,12.5164877 38.667344,13.0409762 L38.667344,31.3187038 C38.667344,31.841028 38.2487324,32.2644554 37.724238,32.2644554 C37.5722994,32.2644554 37.4287525,32.2286092 37.3016303,32.1648111 C37.15097,32.2694052 36.9685845,32.3306383 36.7724377,32.3306383 L13.2121777,32.3306383 C13.0153858,32.3306383 12.8327899,32.2698752 12.6821379,32.1656437 Z M13.2034833,30.4444665 L13.2034833,13.9152141 C13.2063783,13.9152404 13.2092765,13.9152536 13.2121777,13.9152536 L36.7724377,13.9152536 C36.7753388,13.9152536 36.778237,13.9152402 36.7811321,13.9152135 L36.7811321,30.4444659 C36.7782371,30.4444396 36.7753389,30.4444264 36.7724377,30.4444264 L13.2121777,30.4444264 C13.2092765,30.4444264 13.2063784,30.4444398 13.2034833,30.4444665 Z M42.2004927,6.72687692 C32.5534619,-2.24229231 16.9573188,-2.24229231 7.31217423,6.72687692 C-2.42256539,15.7793538 -2.42256539,30.2801538 7.22352227,39.2493231 L24.7105928,55.4276769 L42.2004927,39.1660154 C51.8446941,30.1968462 51.9352323,15.6960462 42.2004927,6.72687692 Z M18.6474797,20.7824333 C19.9458114,20.7824333 21.0018949,19.7823979 21.0018949,18.5533711 C21.0018949,17.3235437 19.9458114,16.3235082 18.6474797,16.3235082 C17.349148,16.3235082 16.2930644,17.3235437 16.2930644,18.5529708 C16.2930644,19.7823979 17.349148,20.7824333 18.6474797,20.7824333 Z" id="path-1"></path>
        <filter x="-50%" y="-50%" width="200%" height="200%" filterUnits="objectBoundingBox" id="filter-2">
            <feMorphology radius="0.25" operator="dilate" in="SourceAlpha" result="shadowSpreadOuter1"></feMorphology>
            <feOffset dx="0" dy="2" in="shadowSpreadOuter1" result="shadowOffsetOuter1"></feOffset>
            <feGaussianBlur stdDeviation="2" in="shadowOffsetOuter1" result="shadowBlurOuter1"></feGaussianBlur>
            <feComposite in="shadowBlurOuter1" in2="SourceAlpha" operator="out" result="shadowBlurOuter1"></feComposite>
            <feColorMatrix values="0 0 0 0 0   0 0 0 0 0   0 0 0 0 0  0 0 0 0.5 0" type="matrix" in="shadowBlurOuter1"></feColorMatrix>
        </filter>
    </defs>
    <g id="Symbols" stroke="none" stroke-width="1" fill="none" fill-rule="evenodd">
        <g id="image">
            <g id="Image" transform="translate(9.000000, 5.000000)">
                <g id="Group-3" transform="translate(0.000000, 0.181698)">
                    <g id="Combined-Shape">
                        <use fill="black" fill-opacity="1" filter="url(#filter-2)" xlink:href="#path-1"></use>
                        <use stroke="#FFFFFF" stroke-width="0.5" fill-opacity="0.7" fill="#FFFFFF" fill-rule="evenodd" xlink:href="#path-1"></use>
                    </g>
                    <path d="M18.6263425,17.4882962 C19.2763959,17.4882962 19.805225,17.9803215 19.805225,18.58445 C19.805225,19.1885785 19.2763959,19.6806039 18.6263425,19.6806039 C17.9762891,19.6806039 17.4474601,19.1888857 17.4474601,18.5847572 C17.4474601,17.9806287 17.9762891,17.4882962 18.6263425,17.4882962 Z" id="Shape" stroke="#FFFFFF" stroke-width="0.3" fill-opacity="0.7" fill="#FFFFFF"></path>
                </g>
                <g id="Group-2" transform="translate(8.487954, 15.784615)"></g>
            </g>
        </g>
    </g>
</svg>