<?xml version="1.0" encoding="UTF-8"?>
<svg width="67px" height="67px" viewBox="0 0 67 67" version="1.1" xmlns="http://www.w3.org/2000/svg" xmlns:xlink="http://www.w3.org/1999/xlink">
    <!-- Generator: Sketch 41.2 (35397) - http://www.bohemiancoding.com/sketch -->
    <title>sound</title>
    <desc>Created with Sketch.</desc>
    <defs>
        <path d="M42.200879,7.42210154 C32.5538483,-1.54706769 16.9577052,-1.54706769 7.31256061,7.42210154 C-2.42217901,16.4745785 -2.42217901,30.9753785 7.22390865,39.9445477 L24.7109792,56.1229015 L42.200879,39.86124 C51.8450805,30.8920708 51.9356187,16.3912708 42.200879,7.42210154 Z M25.9070849,14.0340082 C25.4381655,13.7868279 24.8832455,13.7948881 24.4224938,14.053711 C24.400393,14.0658014 24.3792532,14.0801307 24.3600352,14.0953555 L17.849935,19.2283781 L12.7408276,19.2283781 C12.4751386,19.2283781 12.2603774,19.4285405 12.2603774,19.6761686 L12.2603774,28.1841883 C12.2603774,28.3033006 12.3108246,28.4170393 12.4011493,28.5007762 C12.4914739,28.584513 12.6130278,28.6319788 12.7408276,28.6319788 L17.8384042,28.6297398 L24.3451413,34.2002537 C24.3691638,34.2208521 24.3951081,34.2387637 24.4224938,34.2539886 C24.6588753,34.3869824 24.9207206,34.4537032 25.182566,34.4537032 C25.4309587,34.4532554 25.678871,34.3936992 25.9070849,34.2736914 C26.3870546,34.0211375 26.6738834,33.5599133 26.6738834,33.0400285 L26.6738834,15.2681189 C26.6738834,14.7482341 26.3870546,14.2870099 25.9070849,14.0340082 Z M30.9004038,15.669787 C30.6491284,15.5905281 30.3762326,15.7159094 30.2907125,15.9501038 C30.2056728,16.1838505 30.3401989,16.4386433 30.5914743,16.51835 C34.0031512,17.5979729 36.2953791,20.5766754 36.2953791,23.9306263 C36.2953791,27.2814426 34.0074753,30.2605929 30.6025247,31.3433503 C30.3517297,31.423057 30.2172036,31.677402 30.3032042,31.9120443 C30.3714281,32.0978773 30.5578428,32.2151984 30.7577101,32.2151984 C30.8091183,32.2151984 30.8614874,32.207586 30.9128955,32.1910177 C34.7065303,30.9851179 37.2557991,27.6656469 37.2557991,23.931074 C37.2562795,20.1924711 34.7022063,16.8730001 30.9004038,15.669787 Z M32.9322277,23.9301785 C32.9322277,21.2559736 31.0061029,18.8692501 28.2483187,18.1259179 C27.9922387,18.0583015 27.7275107,18.1939821 27.6535214,18.4322066 C27.5800125,18.6695356 27.7265498,18.9180593 27.9821493,18.9865713 C30.3310703,19.6192992 31.9718078,21.6522682 31.9718078,23.9301785 C31.9718078,26.2080888 30.3310703,28.2410577 27.9821493,28.8737857 C27.7270302,28.9422976 27.5800125,29.1908213 27.6535214,29.4281503 C27.7145385,29.6242826 27.9062382,29.7519028 28.115234,29.7519028 C28.1594354,29.7519028 28.2041173,29.7460816 28.2483187,29.734439 C31.0065833,28.9911068 32.9322277,26.6043834 32.9322277,23.9301785 Z" id="path-1"></path>
        <filter x="-50%" y="-50%" width="200%" height="200%" filterUnits="objectBoundingBox" id="filter-2">
            <feMorphology radius="0.25" operator="dilate" in="SourceAlpha" result="shadowSpreadOuter1"></feMorphology>
            <feOffset dx="0" dy="2" in="shadowSpreadOuter1" result="shadowOffsetOuter1"></feOffset>
            <feGaussianBlur stdDeviation="2" in="shadowOffsetOuter1" result="shadowBlurOuter1"></feGaussianBlur>
            <feComposite in="shadowBlurOuter1" in2="SourceAlpha" operator="out" result="shadowBlurOuter1"></feComposite>
            <feColorMatrix values="0 0 0 0 0   0 0 0 0 0   0 0 0 0 0  0 0 0 0.5 0" type="matrix" in="shadowBlurOuter1"></feColorMatrix>
        </filter>
    </defs>
    <g id="Symbols" stroke="none" stroke-width="1" fill="none" fill-rule="evenodd">
        <g id="sound">
            <g id="Audio" transform="translate(9.000000, 5.000000)">
                <g id="Group-3" transform="translate(0.000000, 0.181698)">
                    <g id="Combined-Shape">
                        <use fill="black" fill-opacity="1" filter="url(#filter-2)" xlink:href="#path-1"></use>
                        <use stroke="#FFFFFF" stroke-width="0.5" fill-opacity="0.7" fill="#FFFFFF" fill-rule="evenodd" xlink:href="#path-1"></use>
                    </g>
                </g>
            </g>
        </g>
    </g>
</svg>