<?xml version="1.0" encoding="UTF-8"?>
<svg width="67px" height="67px" viewBox="0 0 67 67" version="1.1" xmlns="http://www.w3.org/2000/svg" xmlns:xlink="http://www.w3.org/1999/xlink">
    <!-- Generator: Sketch 41.2 (35397) - http://www.bohemiancoding.com/sketch -->
    <title>url</title>
    <desc>Created with Sketch.</desc>
    <defs>
        <path d="M40.4847389,6.83198438 C31.2299293,-2.27732812 16.2678817,-2.27732812 7.01488171,6.83198438 C-2.32407067,16.0259063 -2.32407067,30.7532813 6.92983409,39.8625938 L23.7059293,56.2937344 L40.4847389,39.7779844 C49.7368341,30.6686719 49.8236912,15.9412969 40.4847389,6.83198438 M35.1073858,28.024203 C35.1073858,29.1943723 34.6863788,30.1841256 33.8443523,30.9934926 L31.6600473,33.1290408 C30.8378332,33.9384078 29.8323695,34.3430853 28.6436262,34.3430853 C27.4449766,34.3430853 26.4345599,33.9286566 25.6123458,33.0997867 L22.551347,30.0719889 C21.7291329,29.2626219 21.318032,28.2728686 21.318032,27.1026994 C21.318032,25.9032759 21.753898,24.8842688 22.6256431,24.0456476 L21.318032,22.7584679 C20.4660992,23.616592 19.4358704,24.0456476 18.2273147,24.0456476 C17.0385714,24.0456476 16.0281547,23.6360945 15.1960344,22.816976 L12.1053171,19.7745512 C11.2731968,18.9554328 10.8571429,17.9608039 10.8571429,16.7906346 C10.8571429,15.6204654 11.2781498,14.6307121 12.1201763,13.8213451 L14.3044813,11.6857969 C15.1266955,10.8764299 16.1321591,10.4717524 17.3209025,10.4717524 C18.519552,10.4717524 19.5299687,10.8861811 20.3521828,11.715051 L23.4131816,14.7428487 C24.2353958,15.5522158 24.6464967,16.5419691 24.6464967,17.7121383 C24.6464967,18.9115618 24.2106306,19.9305688 23.3388855,20.7691901 L24.6464967,22.0563698 C25.4984294,21.1982457 26.5286582,20.7691901 27.7372139,20.7691901 C28.9259572,20.7691901 29.9363739,21.1787432 30.7684943,21.9978617 L33.8592115,25.0402864 C34.6913318,25.8594049 35.1073858,26.8540338 35.1073858,28.024203 Z M21.8083861,17.7121383 C21.8083861,17.3220819 21.6697015,16.9905389 21.392328,16.7174994 L18.3313292,13.6897017 C18.0539558,13.4166622 17.7171502,13.2801445 17.3209025,13.2801445 C16.9345609,13.2801445 16.5977553,13.4117866 16.3104757,13.6750747 L14.1261707,15.8106228 C13.8487973,16.0836623 13.7101126,16.4103296 13.7101126,16.7906346 C13.7101126,17.180691 13.8487973,17.512234 14.1261707,17.7852735 L17.2168879,20.8276983 C17.4843552,21.0909864 17.8211607,21.2226284 18.2273147,21.2226284 C18.6433749,21.2226284 18.9999925,21.0714838 19.2971784,20.7691901 C19.2674598,20.7399359 19.1733524,20.6497367 19.0148532,20.4985898 C18.8563541,20.347443 18.7498641,20.2426169 18.6953801,20.1841084 C18.640896,20.1256 18.5666007,20.032963 18.4724918,19.9061946 C18.378383,19.7794263 18.3139937,19.6550977 18.279322,19.533205 C18.2446503,19.4113124 18.2273147,19.2772325 18.2273147,19.1309614 C18.2273147,18.740905 18.3659994,18.409362 18.6433728,18.1363225 C18.9207463,17.863283 19.2575518,17.7267653 19.6537996,17.7267653 C19.8023925,17.7267653 19.9386006,17.7438301 20.0624281,17.77796 C20.1862555,17.8120899 20.3125576,17.8754731 20.4413381,17.9681115 C20.5701187,18.0607499 20.6642261,18.1338844 20.7236633,18.1875172 C20.7831004,18.2411499 20.8895904,18.345976 21.0431364,18.5019986 C21.1966824,18.6580211 21.2883134,18.7506581 21.318032,18.7799124 C21.6449364,18.4776187 21.8083861,18.1216975 21.8083861,17.7121383 Z M32.254416,28.024203 C32.254416,27.6341466 32.1157314,27.3026037 31.8383579,27.0295642 L28.7476407,23.9871394 C28.4702672,23.7140999 28.1334617,23.5775822 27.7372139,23.5775822 C27.3211537,23.5775822 26.9645361,23.7336024 26.6673502,24.0456476 C26.6970688,24.0749018 26.7911763,24.165101 26.9496754,24.3162478 C27.1081745,24.4673947 27.2146645,24.5722208 27.2691485,24.6307293 C27.3236326,24.6892377 27.397928,24.7818747 27.4920368,24.9086431 C27.5861457,25.0354114 27.650535,25.15974 27.6852066,25.2816326 C27.7198783,25.4035253 27.7372139,25.5376051 27.7372139,25.6838763 C27.7372139,26.0739327 27.5985293,26.4054757 27.3211558,26.6785152 C27.0437824,26.9515546 26.7069768,27.0880723 26.310729,27.0880723 C26.1621361,27.0880723 26.025928,27.0710076 25.9021005,27.0368777 C25.7782731,27.0027478 25.651971,26.9393645 25.5231905,26.8467261 C25.39441,26.7540877 25.3003025,26.6809533 25.2408654,26.6273205 C25.1814282,26.5736878 25.0749382,26.4688617 24.9213922,26.3128391 C24.7678462,26.1568165 24.6762152,26.0641795 24.6464967,26.0349253 C24.3195922,26.337219 24.1561425,26.6931402 24.1561425,27.1026994 C24.1561425,27.4927558 24.2948271,27.8242988 24.5722006,28.0973383 L27.6331994,31.125136 C27.9006666,31.3884241 28.2374722,31.5200661 28.6436262,31.5200661 C29.0398739,31.5200661 29.3766795,31.3932997 29.6540529,31.139763 L31.8383579,29.0042149 C32.1157314,28.7311754 32.254416,28.404508 32.254416,28.024203 Z" id="path-1"></path>
        <filter x="-50%" y="-50%" width="200%" height="200%" filterUnits="objectBoundingBox" id="filter-2">
            <feMorphology radius="0.25" operator="dilate" in="SourceAlpha" result="shadowSpreadOuter1"></feMorphology>
            <feOffset dx="0" dy="2" in="shadowSpreadOuter1" result="shadowOffsetOuter1"></feOffset>
            <feGaussianBlur stdDeviation="2" in="shadowOffsetOuter1" result="shadowBlurOuter1"></feGaussianBlur>
            <feComposite in="shadowBlurOuter1" in2="SourceAlpha" operator="out" result="shadowBlurOuter1"></feComposite>
            <feColorMatrix values="0 0 0 0 0   0 0 0 0 0   0 0 0 0 0  0 0 0 0.5 0" type="matrix" in="shadowBlurOuter1"></feColorMatrix>
        </filter>
    </defs>
    <g id="Symbols" stroke="none" stroke-width="1" fill="none" fill-rule="evenodd">
        <g id="url">
            <g transform="translate(5.000000, 5.000000)">
                <g id="Group-3" transform="translate(4.523810, 0.000000)">
                    <g id="Combined-Shape">
                        <use fill="black" fill-opacity="1" filter="url(#filter-2)" xlink:href="#path-1"></use>
                        <use stroke="#FFFFFF" stroke-width="0.5" fill-opacity="0.7" fill="#FFFFFF" fill-rule="evenodd" xlink:href="#path-1"></use>
                    </g>
                    <g id="Group" transform="translate(21.714286, 13.359375)"></g>
                </g>
                <rect id="Rectangle-3" x="0" y="0.890625" width="57" height="56.109375"></rect>
            </g>
        </g>
    </g>
</svg>