<?xml version="1.0" standalone="no"?>
<!-- Generator: Adobe Fireworks 10, Export SVG Extension by Aaron Beall (http://fireworks.abeall.com) . Version: 0.6.1  -->
<!DOCTYPE svg PUBLIC "-//W3C//DTD SVG 1.1//EN" "http://www.w3.org/Graphics/SVG/1.1/DTD/svg11.dtd">
<svg id="Untitled-Page%201" viewBox="0 0 400 400" style="background-color:#ffffff00" version="1.1"
	xmlns="http://www.w3.org/2000/svg" xmlns:xlink="http://www.w3.org/1999/xlink" xml:space="preserve"
	x="0px" y="0px" width="400px" height="400px"
>
	<g id="Layer%201">
		<path id="Ellipse" d="M 0 200 C 0 89.5416 89.5416 0 200 0 C 310.4584 0 400 89.5416 400 200 C 400 310.4584 310.4584 400 200 400 C 89.5416 400 0 310.4584 0 200 Z" stroke="#d1d5d8" stroke-width="10" fill="none"/>
		<path id="Ellipse2" d="M 100 200.5 C 100 93.6315 144.7708 7 200 7 C 255.2292 7 300 93.6315 300 200.5 C 300 307.3685 255.2292 394 200 394 C 144.7708 394 100 307.3685 100 200.5 Z" stroke="#d1d5d8" stroke-width="10" fill="none"/>
		<path id="Ellipse3" d="M 200.5 101 C 307.3685 101 394 145.7708 394 201 C 394 256.2292 307.3685 301 200.5 301 C 93.6315 301 7 256.2292 7 201 C 7 145.7708 93.6315 101 200.5 101 Z" stroke="#d1d5d8" stroke-width="10" fill="none"/>
		<text x="130" y="252" width="140" fill="#838d96" style="font-family: iCiel Panton; font-size: 72px; text-align: center; color: #838d96; "><tspan><![CDATA[360]]></tspan></text>
	</g>
	<g id="Web%20Layer">
	</g>
</svg>