<?xml version="1.0" standalone="no"?>
<!-- Generator: Adobe Fireworks 10, Export SVG Extension by Aaron Beall (http://fireworks.abeall.com) . Version: 0.6.1  -->
<!DOCTYPE svg PUBLIC "-//W3C//DTD SVG 1.1//EN" "http://www.w3.org/Graphics/SVG/1.1/DTD/svg11.dtd">
<svg id="Untitled-Page%201" viewBox="0 0 243 220" style="background-color:#ffffff00" version="1.1"
	xmlns="http://www.w3.org/2000/svg" xmlns:xlink="http://www.w3.org/1999/xlink" xml:space="preserve"
	x="0px" y="0px" width="243px" height="220px"
>
	<path d="M 243.627 110.0469 C 243.4043 132.0938 240.3594 151.5898 229.0371 169.0713 C 225.502 174.5303 221.3809 178.5664 214.6074 179.1973 C 209.8555 179.6396 206.5947 182.4385 203.373 185.8164 C 181.584 208.6611 154.7129 220.6035 123.2266 220.6094 C 91.1953 220.6143 63.9956 208.4697 41.8154 185.1367 C 39.5981 182.8037 36.1099 180.707 33.0059 180.3652 C 22.5527 179.2148 16.5195 173.1592 11.8208 164.4102 C 4.8164 151.3672 1.3735 137.457 0.5513 122.8477 C -0.6216 102.0195 0.7061 81.54 10.5474 62.5146 C 11.769 60.1533 13.2949 57.9502 14.5405 55.5996 C 17.7983 49.4502 22.6348 45.6797 29.7192 44.9561 C 33.5317 44.5664 36.1714 42.4463 38.7456 39.499 C 61.2505 13.7334 89.6357 0.0273 123.9414 0.3291 C 157.2148 0.6211 184.9365 13.9561 206.8711 38.9717 C 209.9629 42.498 213.1855 44.8086 217.7246 46.2051 C 221.0811 47.2383 224.6055 49.6113 226.7461 52.3945 C 237.1172 65.8818 241.4609 81.6689 242.9492 98.3652 C 243.3477 102.8398 243.4746 107.3379 243.627 110.0469 ZM 234.7676 111.5869 C 234.2051 95.5166 231.8105 80.0938 224.5 65.5713 C 220.8623 58.3438 215.8047 54.4873 207.6797 52.7168 C 173.1123 45.1885 138.1699 42.708 102.9502 44.1113 C 78.645 45.0801 54.4985 47.9678 30.9302 54.2959 C 27.9097 55.1074 24.6665 57.4678 22.8672 60.0459 C 14.1411 72.5518 10.8853 86.8789 9.7671 101.8945 C 9.1406 110.3027 11.9116 117.5449 15.9028 124.624 C 22.6743 136.6357 43.5176 144.791 56.9541 135.8652 C 63.0518 131.8145 69.2695 127.9443 75.3662 123.8916 C 79.7734 120.9619 84.02 115.5811 88.4297 115.4854 C 92.8789 115.3877 97.9346 119.9043 101.8545 123.3799 C 111.3096 131.7646 121.2578 133.5703 132.7754 128.1436 C 134.5361 127.3135 137.668 127.999 139.5518 129.0674 C 146.7871 133.1689 153.6367 137.9561 160.8867 142.0283 C 170.457 147.4023 180.1211 152.748 191.4844 153.3945 C 212.7744 154.6074 226.2676 146.6406 232.5176 128.2656 C 234.291 123.0537 234.0723 117.165 234.7676 111.5869 ZM 92.2192 35.0283 C 112.8696 35.0283 133.4834 35.0283 154.292 35.0283 C 147.4336 18.9688 133.6299 8.7314 120.5967 9.7227 C 109.9072 10.5352 95.0718 23.71 92.2192 35.0283 ZM 94.0679 189.3389 C 98.9878 202.1895 112.7979 211.9482 124.7949 211.2793 C 135.0762 210.7061 149.4766 198.9238 151.75 189.3389 C 132.6641 189.3389 113.5469 189.3389 94.0679 189.3389 ZM 194.4707 40.5215 C 182.9365 27.4229 168.8955 18.9268 152.5313 13.9824 C 156.9141 21.2246 161.0605 28.1621 165.3281 35.0234 C 165.8613 35.8809 166.9775 36.7705 167.9316 36.9102 C 176.7646 38.2061 185.6211 39.3398 194.4707 40.5215 ZM 50.5576 40.1133 C 60.8374 38.9189 69.5776 37.9268 78.3062 36.8447 C 79.0127 36.7568 79.8955 36.2061 80.269 35.6045 C 84.6553 28.5459 88.9595 21.4375 93.5669 13.8809 C 77.2432 19.0674 63.292 27.2275 50.5576 40.1133 ZM 190.041 184.5967 C 182.3203 185.5156 174.5957 186.3916 166.8887 187.4023 C 165.8379 187.54 164.4746 188.0791 163.9336 188.8867 C 160.0459 194.6895 156.333 200.6104 152.207 207.0527 C 166.9141 202.5107 179.5137 195.5977 190.041 184.5967 ZM 56.5029 184.9717 C 67.0898 195.707 79.3955 202.7344 93.8306 207.0078 C 89.8081 200.7432 86.1787 195.0117 82.4336 189.3555 C 81.9639 188.6465 80.9307 188.0078 80.0845 187.8955 C 72.2334 186.8506 64.3657 185.9297 56.5029 184.9717 Z" fill="#ffffff"/>
	<path d="M 213.1113 79.9775 C 213.166 85.4961 209.8242 88.5732 204.2832 88.1055 C 196.8818 87.4805 189.0605 78.8633 189.1357 71.415 C 189.1875 66.2949 192.707 63.0391 197.7539 63.4404 C 205.2129 64.0332 213.0371 72.459 213.1113 79.9775 Z" fill="#ffffff"/>
</svg>