<?xml version="1.0" encoding="UTF-8" standalone="no"?>
<svg width="40px" height="30px" viewBox="0 0 40 30" version="1.1" xmlns="http://www.w3.org/2000/svg" xmlns:xlink="http://www.w3.org/1999/xlink">
    <!-- Generator: Sketch 40 (33762) - http://www.bohemiancoding.com/sketch -->
    <title>article</title>
    <desc>Created with Sketch.</desc>
    <defs></defs>
    <g id="Page-1" stroke="none" stroke-width="1" fill="none" fill-rule="evenodd">
        <g id="Screenshot" transform="translate(-339.000000, -177.000000)" fill="#0A0A0A">
            <g id="article" transform="translate(317.000000, 150.000000)">
                <g id="Shape">
                    <g transform="translate(22.142189, 27.414138)">
                        <path d="M38.8299368,4.49354129 L35.5856601,4.49354129 C35.5856601,1.69447567 34.8759746,0.065928405 31.4289306,0.065928405 L3.49773582,0.065928405 C1.723522,0.065928405 0.304150941,1.49090726 0.304150941,3.27213084 L0.304150941,25.76644 C0.304150941,27.6494478 1.82490565,29.2271029 3.75119494,29.2271029 C3.95396223,29.2271029 4.15672953,29.2271029 4.35949682,29.1762108 C4.41018864,29.1762108 4.51157229,29.1762108 4.56226411,29.1762108 L35.2308173,29.1762108 C37.5119494,29.1762108 39.336855,27.3440951 39.336855,25.0539505 L39.336855,5.00246231 C39.336855,4.7480018 39.1340877,4.49354129 38.8299368,4.49354129 L38.8299368,4.49354129 Z M3.75119494,28.1583688 C2.43320753,28.1583688 1.31798741,27.0387425 1.31798741,25.7155479 L1.31798741,3.27213084 C1.31798741,2.05072039 2.28113206,1.08377045 3.49773582,1.08377045 L31.4289306,1.08377045 C33.9128299,1.08377045 34.5718236,1.79625988 34.5718236,4.49354129 L7.35031441,4.49354129 C7.04616347,4.49354129 6.84339617,4.6971097 6.84339617,5.00246231 L6.84339617,25.0539505 C6.84339617,26.784282 5.47471694,28.1583688 3.75119494,28.1583688 L3.75119494,28.1583688 Z M38.3230186,25.0539505 C38.3230186,26.784282 36.9543393,28.1583688 35.2308173,28.1583688 L6.48855341,28.1583688 C7.35031441,27.3949872 7.90792446,26.275361 7.90792446,25.0539505 L7.90792446,5.51138333 L38.3737104,5.51138333 L38.3737104,25.0539505 L38.3230186,25.0539505 Z"></path>
                        <path d="M25.0417608,10.0407804 L33.7607544,10.0407804 C34.0649054,10.0407804 34.2676727,9.83721201 34.2676727,9.5318594 C34.2676727,9.22650679 34.0649054,9.02293838 33.7607544,9.02293838 L25.0417608,9.02293838 C24.7376099,9.02293838 24.5348426,9.22650679 24.5348426,9.5318594 C24.5348426,9.83721201 24.7376099,10.0407804 25.0417608,10.0407804 L25.0417608,10.0407804 Z"></path>
                        <path d="M33.7607544,19.8629561 L12.7743395,19.8629561 C12.4701886,19.8629561 12.2674213,20.0665245 12.2674213,20.3718771 C12.2674213,20.6772298 12.4701886,20.8807982 12.7743395,20.8807982 L33.7607544,20.8807982 C34.0649054,20.8807982 34.2676727,20.6772298 34.2676727,20.3718771 C34.2676727,20.0665245 34.0142136,19.8629561 33.7607544,19.8629561 L33.7607544,19.8629561 Z"></path>
                        <path d="M33.7607544,23.7307559 L12.7743395,23.7307559 C12.4701886,23.7307559 12.2674213,23.9343243 12.2674213,24.2396769 C12.2674213,24.5450295 12.4701886,24.7485979 12.7743395,24.7485979 L33.7607544,24.7485979 C34.0649054,24.7485979 34.2676727,24.5450295 34.2676727,24.2396769 C34.2676727,23.9343243 34.0142136,23.7307559 33.7607544,23.7307559 L33.7607544,23.7307559 Z"></path>
                        <path d="M33.7607544,15.9951564 L25.1431445,15.9951564 C24.8389935,15.9951564 24.6362262,16.1987248 24.6362262,16.5040774 C24.6362262,16.80943 24.8389935,17.0129984 25.1431445,17.0129984 L33.7607544,17.0129984 C34.0649054,17.0129984 34.2676727,16.80943 34.2676727,16.5040774 C34.2676727,16.1987248 34.0142136,15.9951564 33.7607544,15.9951564 L33.7607544,15.9951564 Z"></path>
                        <path d="M33.7607544,12.4836013 L25.1431445,12.4836013 C24.8389935,12.4836013 24.6362262,12.6871697 24.6362262,12.9925223 C24.6362262,13.297875 24.8389935,13.5014434 25.1431445,13.5014434 L33.7607544,13.5014434 C34.0649054,13.5014434 34.2676727,13.297875 34.2676727,12.9925223 C34.2676727,12.6871697 34.0142136,12.4836013 33.7607544,12.4836013 L33.7607544,12.4836013 Z"></path>
                        <path d="M12.7236477,17.0129984 L21.6454086,17.0129984 C21.9495596,17.0129984 22.1523269,16.80943 22.1523269,16.5040774 L22.1523269,9.4809673 C22.1523269,9.17561468 21.9495596,8.97204628 21.6454086,8.97204628 L12.7236477,8.97204628 C12.4194968,8.97204628 12.2167295,9.17561468 12.2167295,9.4809673 L12.2167295,16.5040774 C12.2167295,16.7585379 12.4194968,17.0129984 12.7236477,17.0129984 L12.7236477,17.0129984 Z M13.2305659,9.98988832 L21.1384904,9.98988832 L21.1384904,15.9951564 L13.2305659,15.9951564 L13.2305659,9.98988832 L13.2305659,9.98988832 Z"></path>
                    </g>
                </g>
            </g>
        </g>
    </g>
</svg>