<?xml version="1.0" encoding="UTF-8" standalone="no"?>
<svg width="40px" height="30px" viewBox="0 0 40 30" version="1.1" xmlns="http://www.w3.org/2000/svg" xmlns:xlink="http://www.w3.org/1999/xlink">
    <!-- Generator: Sketch 40 (33762) - http://www.bohemiancoding.com/sketch -->
    <title>image</title>
    <desc>Created with Sketch.</desc>
    <defs></defs>
    <g id="Page-1" stroke="none" stroke-width="1" fill="none" fill-rule="evenodd">
        <g id="Screenshot" transform="translate(-160.000000, -43.000000)" fill="#0B0B0B">
            <g id="image" transform="translate(138.000000, 13.000000)">
                <g transform="translate(22.000000, 30.000000)" id="Shape">
                    <path d="M36.5217391,29.5652174 L3.47826087,29.5652174 C1.5573913,29.5652174 0,28.0078261 0,26.0869565 L0,3.47826087 C0,1.5573913 1.5573913,0 3.47826087,0 L36.5217391,0 C38.4426087,0 40,1.5573913 40,3.47826087 L40,26.0869565 C40,28.0078261 38.4426087,29.5652174 36.5217391,29.5652174 L36.5217391,29.5652174 Z M38.2608696,3.47826087 C38.2608696,2.51826087 37.4817391,1.73913043 36.5217391,1.73913043 L3.47826087,1.73913043 C2.51826087,1.73913043 1.73913043,2.51826087 1.73913043,3.47826087 L1.73913043,26.0869565 C1.73913043,27.0469565 2.51826087,27.826087 3.47826087,27.826087 L36.5217391,27.826087 C37.4817391,27.826087 38.2608696,27.0469565 38.2608696,26.0869565 L38.2608696,3.47826087 L38.2608696,3.47826087 Z M35.0730435,24.1 L29.5652174,18.5921739 L26.4182609,21.7391304 L29.3173913,24.6382609 C29.6486957,24.9695652 29.6486957,25.5069565 29.3173913,25.8391304 C28.9852174,26.1704348 28.4478261,26.1704348 28.1165217,25.8391304 L15.6521739,13.3747826 L4.92695652,24.1 C4.59565217,24.4313043 4.05826087,24.4313043 3.72608696,24.1 C3.39478261,23.7678261 3.39478261,23.2304348 3.72608696,22.8991304 L14.9478261,11.6773913 C14.9756522,11.6356522 14.993913,11.5895652 15.0304348,11.5521739 C15.2017391,11.3808696 15.4278261,11.3026087 15.6521739,11.3078261 C15.8765217,11.3026087 16.1026087,11.3808696 16.273913,11.5521739 C16.3104348,11.5895652 16.3278261,11.6356522 16.3565217,11.6773913 L25.2173913,20.5382609 L28.8608696,16.8947826 C28.8895652,16.853913 28.9069565,16.8069565 28.9434783,16.7695652 C29.1147826,16.5991304 29.3408696,16.52 29.5652174,16.5252174 C29.7895652,16.52 30.0156522,16.5991304 30.1869565,16.7695652 C30.2234783,16.8069565 30.2408696,16.853913 30.2695652,16.8947826 L36.273913,22.8991304 C36.6052174,23.2304348 36.6052174,23.7678261 36.273913,24.1 C35.9417391,24.4313043 35.4043478,24.4313043 35.0730435,24.1 L35.0730435,24.1 Z M24.3478261,10.4347826 C22.4269565,10.4347826 20.8695652,8.8773913 20.8695652,6.95652174 C20.8695652,5.03565217 22.4269565,3.47826087 24.3478261,3.47826087 C26.2686957,3.47826087 27.826087,5.03565217 27.826087,6.95652174 C27.826087,8.8773913 26.2686957,10.4347826 24.3478261,10.4347826 L24.3478261,10.4347826 Z M24.3478261,5.2173913 C23.3878261,5.2173913 22.6086957,5.99652174 22.6086957,6.95652174 C22.6086957,7.91652174 23.3878261,8.69565217 24.3478261,8.69565217 C25.3078261,8.69565217 26.0869565,7.91652174 26.0869565,6.95652174 C26.0869565,5.99652174 25.3078261,5.2173913 24.3478261,5.2173913 L24.3478261,5.2173913 Z"></path>
                </g>
            </g>
        </g>
    </g>
</svg>