<?xml version="1.0" encoding="UTF-8" standalone="no"?>
<svg width="40px" height="40px" viewBox="0 0 40 40" version="1.1" xmlns="http://www.w3.org/2000/svg" xmlns:xlink="http://www.w3.org/1999/xlink">
    <!-- Generator: Sketch 40 (33762) - http://www.bohemiancoding.com/sketch -->
    <title>textf</title>
    <desc>Created with Sketch.</desc>
    <defs></defs>
    <g id="Page-1" stroke="none" stroke-width="1" fill="none" fill-rule="evenodd">
        <g id="Screenshot" transform="translate(-221.000000, -175.000000)" fill="#0B0B0B">
            <g id="textf" transform="translate(198.000000, 150.000000)">
                <g transform="translate(23.000000, 25.000000)" id="Shape">
                    <path d="M8.82666667,39.6436364 C8.72848485,39.6436364 8.62909091,39.6193939 8.53939394,39.5709091 C8.3430303,39.4654545 8.22060606,39.2593939 8.22060606,39.0375758 L8.22060606,30.4024242 C2.91515152,27.6436364 0,22.8133333 0,16.7612121 C0,7.40848485 8.59757576,0.356363636 20,0.356363636 C31.4024242,0.356363636 40,7.40848485 40,16.7612121 C40,26.1127273 31.4024242,33.1648485 20,33.1648485 C19.6254545,33.1648485 19.2581818,33.1442424 18.889697,33.1248485 L18.8654545,33.1236364 L9.16,39.5430303 C9.05939394,39.609697 8.9430303,39.6436364 8.82666667,39.6436364 L8.82666667,39.6436364 Z M20,1.56848485 C9.28969697,1.56848485 1.21212121,8.10060606 1.21212121,16.7612121 C1.21212121,20.7890909 2.57939394,26.2666667 9.09454545,29.4872727 C9.30060606,29.5890909 9.43151515,29.8 9.43151515,30.030303 L9.43151515,37.910303 L18.3636364,32.0024242 C18.4727273,31.929697 18.6048485,31.8872727 18.729697,31.9030303 L18.9551515,31.9151515 C19.3018182,31.9345455 19.6472727,31.9527273 19.9987879,31.9527273 C30.7090909,31.9527273 38.7866667,25.4218182 38.7866667,16.7612121 C38.7866667,8.10060606 30.710303,1.56848485 20,1.56848485 L20,1.56848485 Z"></path>
                    <path d="M29.0751515,11.6739394 L10.9248485,11.6739394 C10.590303,11.6739394 10.3187879,11.4024242 10.3187879,11.0678788 C10.3187879,10.7333333 10.590303,10.4618182 10.9248485,10.4618182 L29.0751515,10.4618182 C29.409697,10.4618182 29.6812121,10.7333333 29.6812121,11.0678788 C29.6812121,11.4024242 29.409697,11.6739394 29.0751515,11.6739394 L29.0751515,11.6739394 Z"></path>
                    <path d="M29.0751515,17.5721212 L10.9248485,17.5721212 C10.590303,17.5721212 10.3187879,17.3006061 10.3187879,16.9660606 C10.3187879,16.6315152 10.590303,16.36 10.9248485,16.36 L29.0751515,16.36 C29.409697,16.36 29.6812121,16.6315152 29.6812121,16.9660606 C29.6812121,17.3006061 29.409697,17.5721212 29.0751515,17.5721212 L29.0751515,17.5721212 Z"></path>
                    <path d="M20,23.4678788 L10.9248485,23.4678788 C10.590303,23.4678788 10.3187879,23.1963636 10.3187879,22.8618182 C10.3187879,22.5272727 10.590303,22.2557576 10.9248485,22.2557576 L20,22.2557576 C20.3345455,22.2557576 20.6060606,22.5272727 20.6060606,22.8618182 C20.6060606,23.1963636 20.3345455,23.4678788 20,23.4678788 L20,23.4678788 Z"></path>
                </g>
            </g>
        </g>
    </g>
</svg>