<?xml version="1.0" encoding="UTF-8" standalone="no"?>
<svg width="40px" height="39px" viewBox="0 0 40 39" version="1.1" xmlns="http://www.w3.org/2000/svg" xmlns:xlink="http://www.w3.org/1999/xlink">
    <!-- Generator: Sketch 40 (33762) - http://www.bohemiancoding.com/sketch -->
    <title>url</title>
    <desc>Created with Sketch.</desc>
    <defs></defs>
    <g id="Page-1" stroke="none" stroke-width="1" fill="none" fill-rule="evenodd">
        <g id="Screenshot" transform="translate(-100.000000, -174.000000)" fill="#0E0E0E">
            <g id="url" transform="translate(78.000000, 150.000000)">
                <g transform="translate(22.000000, 24.000000)" id="Shape">
                    <path d="M31.7628205,0 C29.7895533,0 27.8213918,0.753117949 26.3141026,2.25961538 L21.2339744,7.33974359 C19.7147067,8.85817949 18.959799,10.8518256 18.974359,12.8365385 L18.974359,13.8461538 C18.9705128,14.1170836 19.2162231,14.3662779 19.4871795,14.3662779 C19.7581359,14.3662779 20.0038318,14.1170836 20,13.8461538 C20,13.8461538 20.0000836,12.8258544 20,12.8205128 C19.9873692,11.0988154 20.6332636,9.38204103 21.9551282,8.06089744 L27.0352564,2.98076923 C29.6602503,0.357153846 33.8653908,0.357153846 36.4903846,2.98076923 C39.1153851,5.60444103 39.1153795,9.81227692 36.4903846,12.4358974 L31.4102564,17.5160256 C30.0983508,18.8272308 28.3914236,19.4871795 26.6826923,19.4871795 L25.6410256,19.4871795 C25.3700959,19.4833333 25.1209015,19.7290436 25.1209015,20 C25.1209015,20.2709564 25.3700959,20.5166523 25.6410256,20.5128205 L26.6826923,20.5128205 C28.6539344,20.5128205 30.6235292,19.7442564 32.1314103,18.2371795 L37.2275641,13.1570513 C40.2421415,10.1440564 40.2421359,5.27266154 37.2275641,2.25961538 C35.7202749,0.753117949 33.7360877,0 31.7628205,0 L31.7628205,0 Z M26.1378205,12.8044872 C26.0055492,12.8097128 25.8761651,12.8685215 25.7852564,12.9647436 L13.4775641,25.2724359 C13.2906067,25.4658133 13.2954221,25.8113446 13.4876974,25.9994379 C13.6799697,26.1875308 14.0255241,26.1847513 14.2147462,25.9935918 L26.5224385,13.6858995 C26.8217272,13.3975569 26.5527564,12.7811703 26.1378205,12.8044872 L26.1378205,12.8044872 Z M13.3173077,18.4615385 C11.3460656,18.4615385 9.37647077,19.2141282 7.86858974,20.7211538 L2.7724359,25.8012821 C-0.242141538,28.8142564 -0.242135897,33.6856923 2.7724359,36.6987179 C5.78701436,39.7116923 10.671319,39.7116923 13.6858974,36.6987179 L18.7660256,31.6185897 C20.2852923,30.1001795 21.040201,28.1065128 21.025641,26.1217949 L21.025641,25.1282051 C21.0294872,24.8572754 20.7837769,24.608081 20.5128205,24.608081 C20.2418641,24.608081 19.9961682,24.8572754 20,25.1282051 C20,25.1282051 19.9999164,26.1324769 20,26.1378205 C20.0126308,27.8595128 19.3667374,29.5763077 18.0448718,30.8974359 L12.9647436,35.9775641 C10.3397497,38.6012051 6.13460923,38.6012051 3.50961538,35.9775641 C0.884614872,33.3539231 0.884620513,29.1460256 3.50961538,26.5224359 L8.58974359,21.4423077 C9.90164923,20.1311282 11.6085764,19.4871795 13.3173077,19.4871795 L14.3589744,19.4871795 C14.6299041,19.4910256 14.8790985,19.2453154 14.8790985,18.974359 C14.8790985,18.7034026 14.6299041,18.4577067 14.3589744,18.4615385 L13.3173077,18.4615385 Z"></path>
                </g>
            </g>
        </g>
    </g>
</svg>