<?xml version="1.0" encoding="UTF-8" standalone="no"?>
<svg width="40px" height="40px" viewBox="0 0 40 40" version="1.1" xmlns="http://www.w3.org/2000/svg" xmlns:xlink="http://www.w3.org/1999/xlink">
    <!-- Generator: Sketch 40 (33762) - http://www.bohemiancoding.com/sketch -->
    <title>play-button</title>
    <desc>Created with Sketch.</desc>
    <defs></defs>
    <g id="Page-1" stroke="none" stroke-width="1" fill="none" fill-rule="evenodd">
        <g id="Screenshot" transform="translate(-397.000000, -36.000000)" fill="#4C4C4C">
            <g id="video" transform="translate(375.000000, 14.000000)">
                <g id="play-button" transform="translate(22.000000, 22.000000)">
                    <path d="M30.3753333,19.4493333 L15.7086667,9.44933333 C15.504,9.31066667 15.24,9.29533333 15.0213333,9.41066667 C14.8033333,9.526 14.6666667,9.75266667 14.6666667,10 L14.6666667,30 C14.6666667,30.2473333 14.8033333,30.474 15.022,30.5893333 C15.1193333,30.6413333 15.2266667,30.6666667 15.3333333,30.6666667 C15.4646667,30.6666667 15.596,30.6273333 15.7086667,30.5506667 L30.3753333,20.5506667 C30.5573333,20.4266667 30.6666667,20.2206667 30.6666667,20 C30.6666667,19.7793333 30.5573333,19.5733333 30.3753333,19.4493333 L30.3753333,19.4493333 Z M16,28.738 L16,11.262 L28.8166667,20 L16,28.738 L16,28.738 Z" id="Shape"></path>
                    <path d="M20,0 C8.972,0 0,8.972 0,20 C0,31.028 8.972,40 20,40 C31.028,40 40,31.028 40,20 C40,8.972 31.028,0 20,0 L20,0 Z M20,38.6666667 C9.70733333,38.6666667 1.33333333,30.2926667 1.33333333,20 C1.33333333,9.70733333 9.70733333,1.33333333 20,1.33333333 C30.2926667,1.33333333 38.6666667,9.70733333 38.6666667,20 C38.6666667,30.2926667 30.2926667,38.6666667 20,38.6666667 L20,38.6666667 Z" id="Shape"></path>
                </g>
            </g>
        </g>
    </g>
</svg>