<?xml version="1.0" encoding="UTF-8"?>
<svg width="230px" height="82px" viewBox="0 0 230 82" version="1.1" xmlns="http://www.w3.org/2000/svg" xmlns:xlink="http://www.w3.org/1999/xlink">
    <!-- Generator: Sketch 46.2 (44496) - http://www.bohemiancoding.com/sketch -->
    <title>Group 2</title>
    <desc>Created with Sketch.</desc>
    <defs>
        <filter x="-6.1%" y="-18.5%" width="114.2%" height="146.2%" filterUnits="objectBoundingBox" id="filter-1">
            <feOffset dx="2" dy="3" in="SourceAlpha" result="shadowOffsetOuter1"></feOffset>
            <feGaussianBlur stdDeviation="4.5" in="shadowOffsetOuter1" result="shadowBlurOuter1"></feGaussianBlur>
            <feColorMatrix values="0 0 0 0 0   0 0 0 0 0   0 0 0 0 0  0 0 0 0.396767437 0" type="matrix" in="shadowBlurOuter1" result="shadowMatrixOuter1"></feColorMatrix>
            <feMerge>
                <feMergeNode in="shadowMatrixOuter1"></feMergeNode>
                <feMergeNode in="SourceGraphic"></feMergeNode>
            </feMerge>
        </filter>
    </defs>
    <g id="Page-1" stroke="none" stroke-width="1" fill="none" fill-rule="evenodd">
        <g id="Completed" transform="translate(-614.000000, -497.000000)">
            <g id="Group-2" filter="url(#filter-1)" transform="translate(621.000000, 502.000000)">
                <path d="M212,49.923 C212,57.841 205.581,64.258 197.666,64.258 L14.705,64.258 C6.789,64.258 0.37,57.841 0.37,49.923 L0.37,15.208 C0.37,7.292 6.789,0.874 14.705,0.874 L197.666,0.874 C205.581,0.874 212,7.292 212,15.208 L212,49.923" id="Fill-154" fill="#252A30"></path>
                <path d="M19.672,27.234 L19.672,37.674 L22.297,37.674 C23.909,37.674 25.048,36.963 25.721,35.545 C26.108,34.712 26.294,33.584 26.274,32.153 C26.264,30.602 25.997,29.447 25.479,28.686 C25.079,28.116 24.644,27.726 24.174,27.517 C23.773,27.327 23.252,27.234 22.613,27.234 L19.672,27.234 Z M16.403,40.405 L16.403,24.501 L23.8,24.501 C25.988,24.501 27.685,25.737 28.886,28.208 C29.346,29.167 29.574,30.347 29.574,31.748 C29.574,34.147 29.085,36.103 28.104,37.614 C27.565,38.454 26.88,39.129 26.056,39.639 C25.231,40.147 24.405,40.405 23.573,40.405 L16.403,40.405 L16.403,40.405 Z" id="Fill-155" fill="#FFFFFE"></path>
                <path d="M39.01,38.048 C40.188,38.048 41.159,37.688 41.921,36.968 C42.99,35.999 43.526,34.533 43.526,32.573 C43.526,30.602 42.99,29.134 41.921,28.162 C41.159,27.453 40.188,27.097 39.01,27.097 C37.83,27.097 36.851,27.453 36.068,28.162 C35.02,29.134 34.495,30.602 34.495,32.573 C34.495,34.533 35.02,35.999 36.068,36.968 C36.851,37.688 37.83,38.048 39.01,38.048 Z M46.66,32.573 C46.66,33.783 46.454,34.95 46.035,36.076 C45.622,37.201 45.047,38.149 44.306,38.919 C43.025,40.239 41.26,40.9 39.01,40.9 C36.75,40.9 34.979,40.239 33.699,38.919 C32.96,38.149 32.383,37.201 31.966,36.076 C31.553,34.95 31.345,33.783 31.345,32.573 C31.345,31.362 31.553,30.195 31.966,29.07 C32.383,27.944 32.96,26.997 33.699,26.227 C34.979,24.898 36.75,24.232 39.01,24.232 C41.26,24.232 43.025,24.898 44.306,26.227 C45.047,26.997 45.622,27.944 46.035,29.07 C46.454,30.195 46.66,31.362 46.66,32.573 L46.66,32.573 Z" id="Fill-156" fill="#FFFFFE"></path>
                <polyline id="Fill-157" fill="#FFFFFE" points="47.729 24.501 51.19 24.501 53.637 36.428 56.021 24.501 59.471 24.501 61.857 36.564 64.303 24.501 67.768 24.501 63.328 40.405 60.371 40.405 57.746 28.267 55.119 40.405 52.164 40.405 47.729 24.501"></polyline>
                <polyline id="Fill-158" fill="#FFFFFE" points="69.509 24.501 72.732 24.501 79.168 35.423 79.168 24.501 82.439 24.501 82.439 40.405 79.212 40.405 72.779 29.333 72.779 40.405 69.509 40.405 69.509 24.501"></polyline>
                <polyline id="Fill-159" fill="#FFFFFE" points="85.515 24.501 88.784 24.501 88.784 37.674 96.404 37.674 96.404 40.405 85.515 40.405 85.515 24.501"></polyline>
                <path d="M105.63,38.048 C106.812,38.048 107.78,37.688 108.541,36.968 C109.612,35.999 110.146,34.533 110.146,32.573 C110.146,30.602 109.612,29.134 108.541,28.162 C107.78,27.453 106.812,27.097 105.63,27.097 C104.451,27.097 103.47,27.453 102.69,28.162 C101.641,29.134 101.114,30.602 101.114,32.573 C101.114,34.533 101.641,35.999 102.69,36.968 C103.47,37.688 104.451,38.048 105.63,38.048 Z M113.281,32.573 C113.281,33.783 113.072,34.95 112.659,36.076 C112.243,37.201 111.666,38.149 110.926,38.919 C109.646,40.239 107.883,40.9 105.63,40.9 C103.37,40.9 101.602,40.239 100.32,38.919 C99.58,38.149 99.001,37.201 98.587,36.076 C98.172,34.95 97.965,33.783 97.965,32.573 C97.965,31.362 98.172,30.195 98.587,29.07 C99.001,27.944 99.58,26.997 100.32,26.227 C101.602,24.898 103.37,24.232 105.63,24.232 C107.883,24.232 109.646,24.898 110.926,26.227 C111.666,26.997 112.243,27.944 112.659,29.07 C113.072,30.195 113.281,31.362 113.281,32.573 L113.281,32.573 Z" id="Fill-160" fill="#FFFFFE"></path>
                <path d="M122.072,28.312 L120.105,34.493 L124.175,34.493 L122.072,28.312 Z M123.947,24.501 L129.393,40.405 L126.048,40.405 L124.967,37.224 L119.073,37.224 L117.977,40.405 L114.633,40.405 L120.167,24.501 L123.947,24.501 L123.947,24.501 Z" id="Fill-161" fill="#FFFFFE"></path>
                <path d="M134.763,27.234 L134.763,37.674 L137.388,37.674 C139,37.674 140.138,36.963 140.809,35.545 C141.199,34.712 141.383,33.584 141.363,32.153 C141.354,30.602 141.09,29.447 140.569,28.686 C140.168,28.116 139.735,27.726 139.263,27.517 C138.863,27.327 138.343,27.234 137.704,27.234 L134.763,27.234 Z M131.493,40.405 L131.493,24.501 L138.889,24.501 C141.079,24.501 142.775,25.737 143.975,28.208 C144.435,29.167 144.663,30.347 144.663,31.748 C144.663,34.147 144.174,36.103 143.194,37.614 C142.653,38.454 141.971,39.129 141.146,39.639 C140.321,40.147 139.496,40.405 138.662,40.405 L131.493,40.405 L131.493,40.405 Z" id="Fill-162" fill="#FFFFFE"></path>
                <path d="M212,13.859 L177.687,13.859 C167.417,13.859 159.092,22.182 159.092,32.452 C159.092,42.721 167.417,51.046 177.687,51.046 L212,51.046 L212,13.859" id="Fill-163" fill="#12161A"></path>
                <path d="M193.916,32.684 C185.78,40.898 185.78,40.898 185.78,40.898 C185.321,40.898 185.321,40.898 185.321,40.898 C177.188,32.684 177.188,32.684 177.188,32.684 C176.728,32.684 176.728,32.227 176.728,32.227 C176.728,32.227 176.728,31.771 177.188,31.771 C178.092,30.855 178.092,30.855 178.092,30.855 C178.092,30.855 178.092,30.855 178.54,30.855 C185.78,37.7 185.78,37.7 185.78,37.7 C192.561,30.855 192.561,30.855 192.561,30.855 C192.561,30.855 192.561,30.855 193.009,30.855 C193.916,31.771 193.916,31.771 193.916,31.771 C194.363,31.771 194.363,32.227 194.363,32.227 C194.363,32.227 194.363,32.684 193.916,32.684 Z M193.916,25.839 C185.78,34.049 185.78,34.049 185.78,34.049 C185.321,34.049 185.321,34.049 185.321,34.049 C177.188,25.839 177.188,25.839 177.188,25.839 C176.728,25.839 176.728,25.839 176.728,25.382 C176.728,25.382 176.728,25.382 177.188,24.923 C178.092,24.006 178.092,24.006 178.092,24.006 C178.092,24.006 178.092,24.006 178.54,24.006 C185.78,31.312 185.78,31.312 185.78,31.312 C192.561,24.006 192.561,24.006 192.561,24.006 C192.561,24.006 192.561,24.006 193.009,24.006 C193.916,24.923 193.916,24.923 193.916,24.923 C194.363,25.382 194.363,25.382 194.363,25.382 C194.363,25.839 194.363,25.839 193.916,25.839 L193.916,25.839 Z" id="Fill-164" fill="#FFFFFE"></path>
            </g>
        </g>
    </g>
</svg>