<?xml version="1.0" encoding="UTF-8" standalone="no"?>
<svg width="117px" height="63px" viewBox="0 0 117 63" version="1.1" xmlns="http://www.w3.org/2000/svg" xmlns:xlink="http://www.w3.org/1999/xlink">
    <!-- Generator: Sketch 39.1 (31720) - http://www.bohemiancoding.com/sketch -->
    <title>right-arrow</title>
    <desc>Created with Sketch.</desc>
    <defs></defs>
    <g id="Page-1" stroke="none" stroke-width="1" fill="none" fill-rule="evenodd">
        <g id="right-arrow" transform="translate(58.500000, 31.500000) scale(-1, 1) rotate(270.000000) translate(-58.500000, -31.500000) translate(27.000000, -27.000000)" fill="#FFFFFF">
            <path d="M7.4,115.3 C6.6,116.1 5.6,116.5 4.5,116.5 C3.4,116.5 2.4,116.1 1.6,115.3 C-7.28861416e-14,113.7 -7.28861416e-14,111.1 1.6,109.5 L52.6,58.5 L1.6,7.5 C-7.99915689e-14,5.9 -7.99915689e-14,3.3 1.6,1.7 C3.2,0.1 5.8,0.1 7.4,1.7 L61.3,55.6 C62.9,57.2 62.9,59.8 61.3,61.4 L7.4,115.3 L7.4,115.3 Z" id="Shape" transform="translate(31.450000, 58.500000) scale(1, -1) translate(-31.450000, -58.500000) "></path>
        </g>
    </g>
</svg>