<?xml version="1.0" encoding="UTF-8"?>
<svg width="64px" height="64px" viewBox="0 0 64 64" version="1.1" xmlns="http://www.w3.org/2000/svg" xmlns:xlink="http://www.w3.org/1999/xlink">
    <!-- Generator: Sketch 40 (33762) - http://www.bohemiancoding.com/sketch -->
    <title>cancel</title>
    <desc>Created with Sketch.</desc>
    <defs></defs>
    <g id="Page-1" stroke="none" stroke-width="1" fill="none" fill-rule="evenodd">
        <g id="cancel" transform="translate(0.000000, -1.000000)" fill="#FFFFFF">
            <path d="M28.941,32.786 L0.613,61.114 C-0.174,61.901 -0.174,63.176 0.613,63.963 C1.006,64.357 1.522,64.553 2.037,64.553 C2.553,64.553 3.068,64.357 3.461,63.963 L32.002,35.422 L60.543,63.963 C60.937,64.357 61.452,64.553 61.967,64.553 C62.482,64.553 62.998,64.357 63.391,63.963 C64.178,63.176 64.178,61.901 63.391,61.114 L35.064,32.786 L63.41,4.438 C64.197,3.651 64.197,2.376 63.41,1.589 C62.623,0.803 61.348,0.803 60.562,1.589 L32.003,30.15 L3.441,1.59 C2.654,0.804 1.38,0.804 0.593,1.59 C-0.194,2.377 -0.194,3.652 0.593,4.439 L28.941,32.786 L28.941,32.786 Z" id="Shape"></path>
        </g>
    </g>
</svg>