<?xml version="1.0" encoding="UTF-8"?>
<svg width="16px" height="17px" viewBox="0 0 16 17" version="1.1" xmlns="http://www.w3.org/2000/svg" xmlns:xlink="http://www.w3.org/1999/xlink">
    <!-- Generator: Sketch 40.3 (33839) - http://www.bohemiancoding.com/sketch -->
    <title>noun_574696_cc</title>
    <desc>Created with Sketch.</desc>
    <defs></defs>
    <g id="Page-1" stroke="none" stroke-width="1" fill="none" fill-rule="evenodd">
        <g id="Desktop-Landscape-Copy" transform="translate(-536.000000, -177.000000)" fill="#A1905D">
            <g id="Group-2-Copy" transform="translate(520.000000, 163.000000)">
                <g id="noun_574696_cc" transform="translate(16.000000, 14.000000)">
                    <g id="Group">
                        <path d="M12.9552941,2.22602857 L3.26776471,2.22602857 C2.74823529,2.22602857 2.32658824,1.79082857 2.32658824,1.2546 C2.32658824,0.718371429 2.74823529,0.283171429 3.26776471,0.283171429 L12.9552941,0.283171429 C13.4748235,0.283171429 13.8964706,0.718371429 13.8964706,1.2546 C13.8964706,1.79082857 13.4752941,2.22602857 12.9552941,2.22602857 L12.9552941,2.22602857 Z" id="Shape"></path>
                        <path d="M15.0527059,7.08317143 L1.17035294,7.08317143 C0.650823529,7.08317143 0.229176471,6.64797143 0.229176471,6.11174286 C0.229176471,5.57551429 0.650823529,5.14031429 1.17035294,5.14031429 L15.0527059,5.14031429 C15.5722353,5.14031429 15.9938824,5.57551429 15.9938824,6.11174286 C15.9938824,6.64797143 15.5727059,7.08317143 15.0527059,7.08317143 L15.0527059,7.08317143 Z" id="Shape"></path>
                        <path d="M15.0527059,11.8596857 L1.17035294,11.8596857 C0.650823529,11.8596857 0.229176471,11.4244857 0.229176471,10.8882571 C0.229176471,10.3520286 0.650823529,9.91682857 1.17035294,9.91682857 L15.0527059,9.91682857 C15.5722353,9.91682857 15.9938824,10.3520286 15.9938824,10.8882571 C15.9938824,11.4244857 15.5727059,11.8596857 15.0527059,11.8596857 L15.0527059,11.8596857 Z" id="Shape"></path>
                        <path d="M12.9552941,16.6760286 L3.26776471,16.6760286 C2.74823529,16.6760286 2.32658824,16.2408286 2.32658824,15.7046 C2.32658824,15.1683714 2.74823529,14.7331714 3.26776471,14.7331714 L12.9552941,14.7331714 C13.4748235,14.7331714 13.8964706,15.1683714 13.8964706,15.7046 C13.8964706,16.2408286 13.4752941,16.6760286 12.9552941,16.6760286 L12.9552941,16.6760286 Z" id="Shape"></path>
                    </g>
                </g>
            </g>
        </g>
    </g>
</svg>